<svg xmlns="http://www.w3.org/2000/svg" viewBox="0 0 685.69 53.34"><defs><style>.cls-1{fill:#145654;}.cls-2{fill:#d3d3d3;}.cls-3{fill:#961f1e;}</style></defs><title>star4</title><g id="Layer_2" data-name="Layer 2"><g id="Layer_1-2" data-name="Layer 1"><path class="cls-1" d="M55.74,20.3a1,1,0,0,0-.8-.7L36.84,17,28.74.6a1.15,1.15,0,0,0-.9-.6,1,1,0,0,0-.9.6l-8,16.4L.84,19.6a.85.85,0,0,0-.8.7.91.91,0,0,0,.3,1l13.1,12.8-3.1,18a1,1,0,0,0,.4,1,1.42,1.42,0,0,0,.6.2.9.9,0,0,0,.5-.1L28,44.7l16.2,8.5a.91.91,0,0,0,1.1-.1,1,1,0,0,0,.4-1l-3.1-18,13.1-12.8A3.35,3.35,0,0,0,55.74,20.3ZM40.64,33a1.4,1.4,0,0,0-.3.9l2.8,16.5-14.8-7.8a.75.75,0,0,0-.9,0l-14.9,7.8,2.8-16.5A.86.86,0,0,0,15,33L3,21.3l16.6-2.4c.3,0,.6-.3.8-.5l7.4-15,7.4,15a.89.89,0,0,0,.8.5l16.6,2.4Z"/><path class="cls-2" d="M40.34,33.9l2.8,16.5-14.8-7.8a.75.75,0,0,0-.9,0l-14.9,7.8,2.8-16.5A.86.86,0,0,0,15,33L3,21.3l16.6-2.4c.3,0,.6-.3.8-.5l7.4-15,7.4,15a.89.89,0,0,0,.8.5l16.6,2.4L40.64,33A1.4,1.4,0,0,0,40.34,33.9Z"/><path class="cls-1" d="M125.73,20.3a1,1,0,0,0-.8-.7L106.83,17,98.73.6a1.15,1.15,0,0,0-.9-.6,1,1,0,0,0-.9.6l-8,16.4-18.1,2.6a.85.85,0,0,0-.8.7.91.91,0,0,0,.3,1l13.1,12.8-3.1,18a1,1,0,0,0,.4,1,1.42,1.42,0,0,0,.6.2.9.9,0,0,0,.5-.1L98,44.7l16.2,8.5a.91.91,0,0,0,1.1-.1,1,1,0,0,0,.4-1l-3.1-18,13.1-12.8A3.35,3.35,0,0,0,125.73,20.3ZM110.63,33a1.4,1.4,0,0,0-.3.9l2.8,16.5-14.8-7.8a.75.75,0,0,0-.9,0l-14.9,7.8,2.8-16.5A.86.86,0,0,0,85,33L73,21.3l16.6-2.4c.3,0,.6-.3.8-.5l7.4-15,7.4,15a.89.89,0,0,0,.8.5l16.6,2.4Z"/><path class="cls-2" d="M110.33,33.9l2.8,16.5-14.8-7.8a.75.75,0,0,0-.9,0l-14.9,7.8,2.8-16.5A.86.86,0,0,0,85,33L73,21.3l16.6-2.4c.3,0,.6-.3.8-.5l7.4-15,7.4,15a.89.89,0,0,0,.8.5l16.6,2.4-12,11.7A1.4,1.4,0,0,0,110.33,33.9Z"/><path class="cls-1" d="M195.72,20.3a1,1,0,0,0-.8-.7L176.82,17,168.72.6a1.15,1.15,0,0,0-.9-.6,1,1,0,0,0-.9.6l-8,16.4-18.1,2.6a.85.85,0,0,0-.8.7.91.91,0,0,0,.3,1l13.1,12.8-3.1,18a1,1,0,0,0,.4,1,1.42,1.42,0,0,0,.6.2.9.9,0,0,0,.5-.1L168,44.7l16.2,8.5a.91.91,0,0,0,1.1-.1,1,1,0,0,0,.4-1l-3.1-18,13.1-12.8A3.35,3.35,0,0,0,195.72,20.3ZM180.62,33a1.4,1.4,0,0,0-.3.9l2.8,16.5-14.8-7.8a.75.75,0,0,0-.9,0l-14.9,7.8,2.8-16.5a.86.86,0,0,0-.3-.9L143,21.3l16.6-2.4c.3,0,.6-.3.8-.5l7.4-15,7.4,15a.89.89,0,0,0,.8.5l16.6,2.4Z"/><path class="cls-2" d="M180.32,33.9l2.8,16.5-14.8-7.8a.75.75,0,0,0-.9,0l-14.9,7.8,2.8-16.5a.86.86,0,0,0-.3-.9L143,21.3l16.6-2.4c.3,0,.6-.3.8-.5l7.4-15,7.4,15a.89.89,0,0,0,.8.5l16.6,2.4-12,11.7A1.4,1.4,0,0,0,180.32,33.9Z"/><path class="cls-1" d="M265.71,20.3a1,1,0,0,0-.8-.7L246.81,17,238.71.6a1.15,1.15,0,0,0-.9-.6,1,1,0,0,0-.9.6l-8,16.4-18.1,2.6a.85.85,0,0,0-.8.7.91.91,0,0,0,.3,1l13.1,12.8-3.1,18a1,1,0,0,0,.4,1,1.42,1.42,0,0,0,.6.2.9.9,0,0,0,.5-.1L238,44.7l16.2,8.5a.91.91,0,0,0,1.1-.1,1,1,0,0,0,.4-1l-3.1-18,13.1-12.8A3.35,3.35,0,0,0,265.71,20.3ZM250.61,33a1.4,1.4,0,0,0-.3.9l2.8,16.5-14.8-7.8a.75.75,0,0,0-.9,0l-14.9,7.8,2.8-16.5a.86.86,0,0,0-.3-.9L213,21.3l16.6-2.4c.3,0,.6-.3.8-.5l7.4-15,7.4,15a.89.89,0,0,0,.8.5l16.6,2.4Z"/><path class="cls-2" d="M250.31,33.9l2.8,16.5-14.8-7.8a.75.75,0,0,0-.9,0l-14.9,7.8,2.8-16.5a.86.86,0,0,0-.3-.9L213,21.3l16.6-2.4c.3,0,.6-.3.8-.5l7.4-15,7.4,15a.89.89,0,0,0,.8.5l16.6,2.4-12,11.7A1.4,1.4,0,0,0,250.31,33.9Z"/><path class="cls-1" d="M335.69,20.3a1,1,0,0,0-.8-.7L316.79,17,308.69.6a1.15,1.15,0,0,0-.9-.6,1,1,0,0,0-.9.6l-8,16.4-18.1,2.6a.85.85,0,0,0-.8.7.91.91,0,0,0,.3,1l13.1,12.8-3.1,18a1,1,0,0,0,.4,1,1.42,1.42,0,0,0,.6.2.9.9,0,0,0,.5-.1L308,44.7l16.2,8.5a.91.91,0,0,0,1.1-.1,1,1,0,0,0,.4-1l-3.1-18,13.1-12.8A3.35,3.35,0,0,0,335.69,20.3ZM320.59,33a1.4,1.4,0,0,0-.3.9l2.8,16.5-14.8-7.8a.75.75,0,0,0-.9,0l-14.9,7.8,2.8-16.5a.86.86,0,0,0-.3-.9L283,21.3l16.6-2.4c.3,0,.6-.3.8-.5l7.4-15,7.4,15a.89.89,0,0,0,.8.5l16.6,2.4Z"/><path class="cls-2" d="M320.29,33.9l2.8,16.5-14.8-7.8a.75.75,0,0,0-.9,0l-14.9,7.8,2.8-16.5a.86.86,0,0,0-.3-.9L283,21.3l16.6-2.4c.3,0,.6-.3.8-.5l7.4-15,7.4,15a.89.89,0,0,0,.8.5l16.6,2.4-12,11.7A1.4,1.4,0,0,0,320.29,33.9Z"/><path class="cls-1" d="M405.68,20.3a1,1,0,0,0-.8-.7L386.78,17,378.68.6a1.15,1.15,0,0,0-.9-.6,1,1,0,0,0-.9.6l-8,16.4-18.1,2.6a.85.85,0,0,0-.8.7.91.91,0,0,0,.3,1l13.1,12.8-3.1,18a1,1,0,0,0,.4,1,1.42,1.42,0,0,0,.6.2.9.9,0,0,0,.5-.1L378,44.7l16.2,8.5a.91.91,0,0,0,1.1-.1,1,1,0,0,0,.4-1l-3.1-18,13.1-12.8A3.35,3.35,0,0,0,405.68,20.3ZM390.58,33a1.4,1.4,0,0,0-.3.9l2.8,16.5-14.8-7.8a.75.75,0,0,0-.9,0l-14.9,7.8,2.8-16.5a.86.86,0,0,0-.3-.9L353,21.3l16.6-2.4c.3,0,.6-.3.8-.5l7.4-15,7.4,15a.89.89,0,0,0,.8.5l16.6,2.4Z"/><path class="cls-2" d="M390.28,33.9l2.8,16.5-14.8-7.8a.75.75,0,0,0-.9,0l-14.9,7.8,2.8-16.5a.86.86,0,0,0-.3-.9L353,21.3l16.6-2.4c.3,0,.6-.3.8-.5l7.4-15,7.4,15a.89.89,0,0,0,.8.5l16.6,2.4-12,11.7A1.4,1.4,0,0,0,390.28,33.9Z"/><path class="cls-1" d="M475.67,20.3a1,1,0,0,0-.8-.7L456.77,17,448.67.6a1.15,1.15,0,0,0-.9-.6,1,1,0,0,0-.9.6l-8,16.4-18.1,2.6a.85.85,0,0,0-.8.7.91.91,0,0,0,.3,1l13.1,12.8-3.1,18a1,1,0,0,0,.4,1,1.42,1.42,0,0,0,.6.2.9.9,0,0,0,.5-.1L448,44.7l16.2,8.5a.91.91,0,0,0,1.1-.1,1,1,0,0,0,.4-1l-3.1-18,13.1-12.8A3.35,3.35,0,0,0,475.67,20.3ZM460.57,33a1.4,1.4,0,0,0-.3.9l2.8,16.5-14.8-7.8a.75.75,0,0,0-.9,0l-14.9,7.8,2.8-16.5a.86.86,0,0,0-.3-.9L423,21.3l16.6-2.4c.3,0,.6-.3.8-.5l7.4-15,7.4,15a.89.89,0,0,0,.8.5l16.6,2.4Z"/><path class="cls-2" d="M460.27,33.9l2.8,16.5-14.8-7.8a.75.75,0,0,0-.9,0l-14.9,7.8,2.8-16.5a.86.86,0,0,0-.3-.9L423,21.3l16.6-2.4c.3,0,.6-.3.8-.5l7.4-15,7.4,15a.89.89,0,0,0,.8.5l16.6,2.4-12,11.7A1.4,1.4,0,0,0,460.27,33.9Z"/><path class="cls-1" d="M545.66,20.3a1,1,0,0,0-.8-.7L526.76,17,518.66.6a1.15,1.15,0,0,0-.9-.6,1,1,0,0,0-.9.6l-8,16.4-18.1,2.6a.85.85,0,0,0-.8.7.91.91,0,0,0,.3,1l13.1,12.8-3.1,18a1,1,0,0,0,.4,1,1.42,1.42,0,0,0,.6.2.9.9,0,0,0,.5-.1L518,44.7l16.2,8.5a.91.91,0,0,0,1.1-.1,1,1,0,0,0,.4-1l-3.1-18,13.1-12.8A3.35,3.35,0,0,0,545.66,20.3ZM530.56,33a1.4,1.4,0,0,0-.3.9l2.8,16.5-14.8-7.8a.75.75,0,0,0-.9,0l-14.9,7.8,2.8-16.5a.86.86,0,0,0-.3-.9L493,21.3l16.6-2.4c.3,0,.6-.3.8-.5l7.4-15,7.4,15a.89.89,0,0,0,.8.5l16.6,2.4Z"/><path class="cls-2" d="M530.26,33.9l2.8,16.5-14.8-7.8a.75.75,0,0,0-.9,0l-14.9,7.8,2.8-16.5a.86.86,0,0,0-.3-.9L493,21.3l16.6-2.4c.3,0,.6-.3.8-.5l7.4-15,7.4,15a.89.89,0,0,0,.8.5l16.6,2.4-12,11.7A1.4,1.4,0,0,0,530.26,33.9Z"/><path class="cls-1" d="M615.65,20.3a1,1,0,0,0-.8-.7L596.75,17,588.65.6a1.15,1.15,0,0,0-.9-.6,1,1,0,0,0-.9.6l-8,16.4-18.1,2.6a.85.85,0,0,0-.8.7.91.91,0,0,0,.3,1l13.1,12.8-3.1,18a1,1,0,0,0,.4,1,1.42,1.42,0,0,0,.6.2.9.9,0,0,0,.5-.1L588,44.7l16.2,8.5a.91.91,0,0,0,1.1-.1,1,1,0,0,0,.4-1l-3.1-18,13.1-12.8A3.35,3.35,0,0,0,615.65,20.3ZM600.55,33a1.4,1.4,0,0,0-.3.9l2.8,16.5-14.8-7.8a.75.75,0,0,0-.9,0l-14.9,7.8,2.8-16.5a.86.86,0,0,0-.3-.9L563,21.3l16.6-2.4c.3,0,.6-.3.8-.5l7.4-15,7.4,15a.89.89,0,0,0,.8.5l16.6,2.4Z"/><path class="cls-2" d="M600.25,33.9l2.8,16.5-14.8-7.8a.75.75,0,0,0-.9,0l-14.9,7.8,2.8-16.5a.86.86,0,0,0-.3-.9L563,21.3l16.6-2.4c.3,0,.6-.3.8-.5l7.4-15,7.4,15a.89.89,0,0,0,.8.5l16.6,2.4-12,11.7A1.4,1.4,0,0,0,600.25,33.9Z"/><path class="cls-1" d="M685.64,20.3a1,1,0,0,0-.8-.7L666.74,17,658.64.6a1.15,1.15,0,0,0-.9-.6,1,1,0,0,0-.9.6l-8,16.4-18.1,2.6a.85.85,0,0,0-.8.7.91.91,0,0,0,.3,1l13.1,12.8-3.1,18a1,1,0,0,0,.4,1,1.42,1.42,0,0,0,.6.2.9.9,0,0,0,.5-.1l16.2-8.5,16.2,8.5a.91.91,0,0,0,1.1-.1,1,1,0,0,0,.4-1l-3.1-18,13.1-12.8A3.35,3.35,0,0,0,685.64,20.3ZM670.54,33a1.4,1.4,0,0,0-.3.9L673,50.4l-14.8-7.8a.75.75,0,0,0-.9,0l-14.9,7.8,2.8-16.5a.86.86,0,0,0-.3-.9l-12-11.7,16.6-2.4c.3,0,.6-.3.8-.5l7.4-15,7.4,15a.89.89,0,0,0,.8.5l16.6,2.4Z"/><path class="cls-2" d="M670.24,33.9,673,50.4l-14.8-7.8a.75.75,0,0,0-.9,0l-14.9,7.8,2.8-16.5a.86.86,0,0,0-.3-.9l-12-11.7,16.6-2.4c.3,0,.6-.3.8-.5l7.4-15,7.4,15a.89.89,0,0,0,.8.5l16.6,2.4-12,11.7A1.4,1.4,0,0,0,670.24,33.9Z"/><path class="cls-3" d="M55.74,20.3a1,1,0,0,0-.8-.7L36.84,17,28.74.6a1.15,1.15,0,0,0-.9-.6,1,1,0,0,0-.9.6l-8,16.4L.84,19.6a.85.85,0,0,0-.8.7.91.91,0,0,0,.3,1l13.1,12.8-3.1,18a1,1,0,0,0,.4,1,1.42,1.42,0,0,0,.6.2.9.9,0,0,0,.5-.1L28,44.7l16.2,8.5a.91.91,0,0,0,1.1-.1,1,1,0,0,0,.4-1l-3.1-18,13.1-12.8A3.35,3.35,0,0,0,55.74,20.3ZM40.64,33a1.4,1.4,0,0,0-.3.9l2.8,16.5-14.8-7.8a.75.75,0,0,0-.9,0l-14.9,7.8,2.8-16.5A.86.86,0,0,0,15,33L3,21.3l16.6-2.4c.3,0,.6-.3.8-.5l7.4-15,7.4,15a.89.89,0,0,0,.8.5l16.6,2.4Z"/><path class="cls-3" d="M40.34,33.9l2.8,16.5-14.8-7.8a.75.75,0,0,0-.9,0l-14.9,7.8,2.8-16.5A.86.86,0,0,0,15,33L3,21.3l16.6-2.4c.3,0,.6-.3.8-.5l7.4-15,7.4,15a.89.89,0,0,0,.8.5l16.6,2.4L40.64,33A1.4,1.4,0,0,0,40.34,33.9Z"/><path class="cls-3" d="M125.67,20.3a1,1,0,0,0-.8-.7L106.77,17,98.67.6a1.15,1.15,0,0,0-.9-.6,1,1,0,0,0-.9.6l-8,16.4-18.1,2.6a.85.85,0,0,0-.8.7.91.91,0,0,0,.3,1l13.1,12.8-3.1,18a1,1,0,0,0,.4,1,1.42,1.42,0,0,0,.6.2.9.9,0,0,0,.5-.1L98,44.7l16.2,8.5a.91.91,0,0,0,1.1-.1,1,1,0,0,0,.4-1l-3.1-18,13.1-12.8A3.35,3.35,0,0,0,125.67,20.3ZM110.57,33a1.4,1.4,0,0,0-.3.9l2.8,16.5-14.8-7.8a.75.75,0,0,0-.9,0l-14.9,7.8,2.8-16.5A.86.86,0,0,0,85,33L73,21.3l16.6-2.4c.3,0,.6-.3.8-.5l7.4-15,7.4,15a.89.89,0,0,0,.8.5l16.6,2.4Z"/><path class="cls-3" d="M110.27,33.9l2.8,16.5-14.8-7.8a.75.75,0,0,0-.9,0l-14.9,7.8,2.8-16.5A.86.86,0,0,0,85,33L73,21.3l16.6-2.4c.3,0,.6-.3.8-.5l7.4-15,7.4,15a.89.89,0,0,0,.8.5l16.6,2.4-12,11.7A1.4,1.4,0,0,0,110.27,33.9Z"/><path class="cls-3" d="M195.66,20.3a1,1,0,0,0-.8-.7L176.76,17,168.66.6a1.15,1.15,0,0,0-.9-.6,1,1,0,0,0-.9.6l-8,16.4-18.1,2.6a.85.85,0,0,0-.8.7.91.91,0,0,0,.3,1l13.1,12.8-3.1,18a1,1,0,0,0,.4,1,1.42,1.42,0,0,0,.6.2.9.9,0,0,0,.5-.1L168,44.7l16.2,8.5a.91.91,0,0,0,1.1-.1,1,1,0,0,0,.4-1l-3.1-18,13.1-12.8A3.35,3.35,0,0,0,195.66,20.3ZM180.56,33a1.4,1.4,0,0,0-.3.9l2.8,16.5-14.8-7.8a.75.75,0,0,0-.9,0l-14.9,7.8,2.8-16.5a.86.86,0,0,0-.3-.9L143,21.3l16.6-2.4c.3,0,.6-.3.8-.5l7.4-15,7.4,15a.89.89,0,0,0,.8.5l16.6,2.4Z"/><path class="cls-3" d="M180.26,33.9l2.8,16.5-14.8-7.8a.75.75,0,0,0-.9,0l-14.9,7.8,2.8-16.5a.86.86,0,0,0-.3-.9L143,21.3l16.6-2.4c.3,0,.6-.3.8-.5l7.4-15,7.4,15a.89.89,0,0,0,.8.5l16.6,2.4-12,11.7A1.4,1.4,0,0,0,180.26,33.9Z"/><path class="cls-3" d="M265.76,20.3a1,1,0,0,0-.8-.7L246.86,17,238.76.6a1.15,1.15,0,0,0-.9-.6,1,1,0,0,0-.9.6L229,17l-18.1,2.6a.85.85,0,0,0-.8.7.91.91,0,0,0,.3,1l13.1,12.8-3.1,18a1,1,0,0,0,.4,1,1.42,1.42,0,0,0,.6.2.9.9,0,0,0,.5-.1l16.2-8.5,16.2,8.5a.91.91,0,0,0,1.1-.1,1,1,0,0,0,.4-1l-3.1-18,13.1-12.8A3.35,3.35,0,0,0,265.76,20.3ZM250.66,33a1.4,1.4,0,0,0-.3.9l2.8,16.5-14.8-7.8a.75.75,0,0,0-.9,0l-14.9,7.8,2.8-16.5a.86.86,0,0,0-.3-.9l-12-11.7,16.6-2.4c.3,0,.6-.3.8-.5l7.4-15,7.4,15a.89.89,0,0,0,.8.5l16.6,2.4Z"/><path class="cls-3" d="M250.36,33.9l2.8,16.5-14.8-7.8a.75.75,0,0,0-.9,0l-14.9,7.8,2.8-16.5a.86.86,0,0,0-.3-.9l-12-11.7,16.6-2.4c.3,0,.6-.3.8-.5l7.4-15,7.4,15a.89.89,0,0,0,.8.5l16.6,2.4-12,11.7A1.4,1.4,0,0,0,250.36,33.9Z"/></g></g></svg>