<svg xmlns="http://www.w3.org/2000/svg" viewBox="0 0 2620.42 461.6"><defs><style>.cls-1{fill:#145654;}.cls-2{fill:#e7e7e7;}.cls-3{fill:#961f1e;}</style></defs><title>5</title><g id="Layer_2" data-name="Layer 2"><g id="Layer_1-2" data-name="Layer 1"><g id="Layer_2-2" data-name="Layer 2"><g id="Layer_1-2-2" data-name="Layer 1-2"><path class="cls-1" d="M230.8,131.9A97.62,97.62,0,0,0,183,144.3a49.36,49.36,0,0,0,95.6,0A97.62,97.62,0,0,0,230.8,131.9Z"/><path class="cls-1" d="M230.8,329.7a97.62,97.62,0,0,0,47.8-12.4,49.36,49.36,0,0,0-95.6,0A98.43,98.43,0,0,0,230.8,329.7Z"/><path class="cls-1" d="M329.7,230.8A97.62,97.62,0,0,0,317.3,183a49.39,49.39,0,0,0,0,95.7A99.38,99.38,0,0,0,329.7,230.8Z"/><path class="cls-1" d="M144.2,182.9a98.7,98.7,0,0,0,0,95.7,49.39,49.39,0,0,0,0-95.7Z"/><path class="cls-1" d="M230.8,0C103.3,0,0,103.3,0,230.8S103.3,461.6,230.8,461.6,461.6,358.3,461.6,230.8,358.2,0,230.8,0Zm0,82.4a49.4,49.4,0,1,1-49.4,49.4h0A49.38,49.38,0,0,1,230.8,82.4ZM131.9,280.2a49.4,49.4,0,1,1,49.4-49.4h0a49.38,49.38,0,0,1-49.4,49.4Zm98.9,98.9a49.45,49.45,0,1,1,49.5-49.5,49.4,49.4,0,0,1-49.5,49.5Zm98.9-98.9a49.45,49.45,0,1,1,49.5-49.5,49.4,49.4,0,0,1-49.5,49.5Z"/><path class="cls-2" d="M230.8,33A197.73,197.73,0,0,0,33,230.8c0,109.3,88.6,197.8,197.8,197.8S428.6,340,428.6,230.8,340,33,230.8,33Zm0,49.4a49.4,49.4,0,1,1-49.4,49.4h0a49.31,49.31,0,0,1,49.4-49.4ZM131.9,280.3a49.4,49.4,0,1,1,49.4-49.4h0a49.51,49.51,0,0,1-49.4,49.4Zm98.9,98.9a49.45,49.45,0,1,1,49.5-49.5,49.4,49.4,0,0,1-49.5,49.5Zm98.9-98.9a49.45,49.45,0,1,1,49.5-49.5,49.4,49.4,0,0,1-49.5,49.5Z"/><path class="cls-3" d="M230.8,131.9A97.62,97.62,0,0,0,183,144.3a49.36,49.36,0,0,0,95.6,0A97.62,97.62,0,0,0,230.8,131.9Z"/><path class="cls-3" d="M230.8,329.7a97.62,97.62,0,0,0,47.8-12.4,49.36,49.36,0,0,0-95.6,0A98.43,98.43,0,0,0,230.8,329.7Z"/><path class="cls-3" d="M329.7,230.8A97.62,97.62,0,0,0,317.3,183a49.39,49.39,0,0,0,0,95.7A99.38,99.38,0,0,0,329.7,230.8Z"/><path class="cls-3" d="M144.2,182.9a98.7,98.7,0,0,0,0,95.7,49.39,49.39,0,0,0,0-95.7Z"/><path class="cls-3" d="M230.8,0C103.3,0,0,103.3,0,230.8S103.3,461.6,230.8,461.6,461.6,358.3,461.6,230.8,358.2,0,230.8,0Zm0,82.4a49.4,49.4,0,1,1-49.4,49.4h0A49.38,49.38,0,0,1,230.8,82.4ZM131.9,280.2a49.4,49.4,0,1,1,49.4-49.4h0a49.38,49.38,0,0,1-49.4,49.4Zm98.9,98.9a49.45,49.45,0,1,1,49.5-49.5,49.4,49.4,0,0,1-49.5,49.5Zm98.9-98.9a49.45,49.45,0,1,1,49.5-49.5,49.4,49.4,0,0,1-49.5,49.5Z"/><path class="cls-2" d="M230.8,33A197.73,197.73,0,0,0,33,230.8c0,109.3,88.6,197.8,197.8,197.8S428.6,340,428.6,230.8,340,33,230.8,33Zm0,49.4a49.4,49.4,0,1,1-49.4,49.4h0a49.31,49.31,0,0,1,49.4-49.4ZM131.9,280.3a49.4,49.4,0,1,1,49.4-49.4h0a49.51,49.51,0,0,1-49.4,49.4Zm98.9,98.9a49.45,49.45,0,1,1,49.5-49.5,49.4,49.4,0,0,1-49.5,49.5Zm98.9-98.9a49.45,49.45,0,1,1,49.5-49.5,49.4,49.4,0,0,1-49.5,49.5Z"/></g></g><g id="Layer_2-3" data-name="Layer 2"><g id="Layer_1-2-3" data-name="Layer 1-2"><path class="cls-1" d="M770.52,131.9a97.62,97.62,0,0,0-47.8,12.4,49.36,49.36,0,0,0,95.6,0A97.62,97.62,0,0,0,770.52,131.9Z"/><path class="cls-1" d="M770.52,329.7a97.62,97.62,0,0,0,47.8-12.4,49.36,49.36,0,0,0-95.6,0A98.43,98.43,0,0,0,770.52,329.7Z"/><path class="cls-1" d="M869.42,230.8A97.62,97.62,0,0,0,857,183a49.39,49.39,0,0,0,0,95.7A99.38,99.38,0,0,0,869.42,230.8Z"/><path class="cls-1" d="M683.92,182.9a98.7,98.7,0,0,0,0,95.7,49.39,49.39,0,0,0,0-95.7Z"/><path class="cls-1" d="M770.52,0C643,0,539.72,103.3,539.72,230.8S643,461.6,770.52,461.6s230.8-103.3,230.8-230.8S897.92,0,770.52,0Zm0,82.4a49.4,49.4,0,1,1-49.4,49.4h0A49.38,49.38,0,0,1,770.52,82.4Zm-98.9,197.8A49.4,49.4,0,1,1,721,230.8h0a49.38,49.38,0,0,1-49.4,49.4Zm98.9,98.9A49.45,49.45,0,1,1,820,329.6a49.4,49.4,0,0,1-49.5,49.5Zm98.9-98.9a49.45,49.45,0,1,1,49.5-49.5,49.4,49.4,0,0,1-49.5,49.5Z"/><path class="cls-2" d="M770.52,33a197.73,197.73,0,0,0-197.8,197.8c0,109.3,88.6,197.8,197.8,197.8s197.8-88.6,197.8-197.8S879.72,33,770.52,33Zm0,49.4a49.4,49.4,0,1,1-49.4,49.4h0a49.31,49.31,0,0,1,49.4-49.4Zm-98.9,197.9A49.4,49.4,0,1,1,721,230.9h0a49.51,49.51,0,0,1-49.4,49.4Zm98.9,98.9A49.45,49.45,0,1,1,820,329.7a49.4,49.4,0,0,1-49.5,49.5Zm98.9-98.9a49.45,49.45,0,1,1,49.5-49.5,49.4,49.4,0,0,1-49.5,49.5Z"/><path class="cls-3" d="M770.52,131.9a97.62,97.62,0,0,0-47.8,12.4,49.36,49.36,0,0,0,95.6,0A97.62,97.62,0,0,0,770.52,131.9Z"/><path class="cls-3" d="M770.52,329.7a97.62,97.62,0,0,0,47.8-12.4,49.36,49.36,0,0,0-95.6,0A98.43,98.43,0,0,0,770.52,329.7Z"/><path class="cls-3" d="M869.42,230.8A97.62,97.62,0,0,0,857,183a49.39,49.39,0,0,0,0,95.7A99.38,99.38,0,0,0,869.42,230.8Z"/><path class="cls-3" d="M683.92,182.9a98.7,98.7,0,0,0,0,95.7,49.39,49.39,0,0,0,0-95.7Z"/><path class="cls-3" d="M770.52,0C643,0,539.72,103.3,539.72,230.8S643,461.6,770.52,461.6s230.8-103.3,230.8-230.8S897.92,0,770.52,0Zm0,82.4a49.4,49.4,0,1,1-49.4,49.4h0A49.38,49.38,0,0,1,770.52,82.4Zm-98.9,197.8A49.4,49.4,0,1,1,721,230.8h0a49.38,49.38,0,0,1-49.4,49.4Zm98.9,98.9A49.45,49.45,0,1,1,820,329.6a49.4,49.4,0,0,1-49.5,49.5Zm98.9-98.9a49.45,49.45,0,1,1,49.5-49.5,49.4,49.4,0,0,1-49.5,49.5Z"/><path class="cls-2" d="M770.52,33a197.73,197.73,0,0,0-197.8,197.8c0,109.3,88.6,197.8,197.8,197.8s197.8-88.6,197.8-197.8S879.72,33,770.52,33Zm0,49.4a49.4,49.4,0,1,1-49.4,49.4h0a49.31,49.31,0,0,1,49.4-49.4Zm-98.9,197.9A49.4,49.4,0,1,1,721,230.9h0a49.51,49.51,0,0,1-49.4,49.4Zm98.9,98.9A49.45,49.45,0,1,1,820,329.7a49.4,49.4,0,0,1-49.5,49.5Zm98.9-98.9a49.45,49.45,0,1,1,49.5-49.5,49.4,49.4,0,0,1-49.5,49.5Z"/></g></g><g id="Layer_2-4" data-name="Layer 2"><g id="Layer_1-2-4" data-name="Layer 1-2"><path class="cls-1" d="M1310.22,131.9a97.62,97.62,0,0,0-47.8,12.4,49.36,49.36,0,0,0,95.6,0A97.62,97.62,0,0,0,1310.22,131.9Z"/><path class="cls-1" d="M1310.22,329.7a97.62,97.62,0,0,0,47.8-12.4,49.36,49.36,0,0,0-95.6,0A98.43,98.43,0,0,0,1310.22,329.7Z"/><path class="cls-1" d="M1409.12,230.8a97.62,97.62,0,0,0-12.4-47.8,49.39,49.39,0,0,0,0,95.7A99.38,99.38,0,0,0,1409.12,230.8Z"/><path class="cls-1" d="M1223.62,182.9a98.7,98.7,0,0,0,0,95.7,49.39,49.39,0,0,0,0-95.7Z"/><path class="cls-1" d="M1310.22,0c-127.5,0-230.8,103.3-230.8,230.8s103.3,230.8,230.8,230.8S1541,358.3,1541,230.8,1437.62,0,1310.22,0Zm0,82.4a49.4,49.4,0,1,1-49.4,49.4h0A49.38,49.38,0,0,1,1310.22,82.4Zm-98.9,197.8a49.4,49.4,0,1,1,49.4-49.4h0a49.38,49.38,0,0,1-49.4,49.4Zm98.9,98.9a49.45,49.45,0,1,1,49.5-49.5,49.4,49.4,0,0,1-49.5,49.5Zm98.9-98.9a49.45,49.45,0,1,1,49.5-49.5,49.4,49.4,0,0,1-49.5,49.5Z"/><path class="cls-2" d="M1310.22,33a197.73,197.73,0,0,0-197.8,197.8c0,109.3,88.6,197.8,197.8,197.8S1508,340,1508,230.8,1419.42,33,1310.22,33Zm0,49.4a49.4,49.4,0,1,1-49.4,49.4h0a49.31,49.31,0,0,1,49.4-49.4Zm-98.9,197.9a49.4,49.4,0,1,1,49.4-49.4h0a49.51,49.51,0,0,1-49.4,49.4Zm98.9,98.9a49.45,49.45,0,1,1,49.5-49.5,49.4,49.4,0,0,1-49.5,49.5Zm98.9-98.9a49.45,49.45,0,1,1,49.5-49.5,49.4,49.4,0,0,1-49.5,49.5Z"/><path class="cls-3" d="M1310.22,131.9a97.62,97.62,0,0,0-47.8,12.4,49.36,49.36,0,0,0,95.6,0A97.62,97.62,0,0,0,1310.22,131.9Z"/><path class="cls-3" d="M1310.22,329.7a97.62,97.62,0,0,0,47.8-12.4,49.36,49.36,0,0,0-95.6,0A98.43,98.43,0,0,0,1310.22,329.7Z"/><path class="cls-3" d="M1409.12,230.8a97.62,97.62,0,0,0-12.4-47.8,49.39,49.39,0,0,0,0,95.7A99.38,99.38,0,0,0,1409.12,230.8Z"/><path class="cls-3" d="M1223.62,182.9a98.7,98.7,0,0,0,0,95.7,49.39,49.39,0,0,0,0-95.7Z"/><path class="cls-3" d="M1310.22,0c-127.5,0-230.8,103.3-230.8,230.8s103.3,230.8,230.8,230.8S1541,358.3,1541,230.8,1437.62,0,1310.22,0Zm0,82.4a49.4,49.4,0,1,1-49.4,49.4h0A49.38,49.38,0,0,1,1310.22,82.4Zm-98.9,197.8a49.4,49.4,0,1,1,49.4-49.4h0a49.38,49.38,0,0,1-49.4,49.4Zm98.9,98.9a49.45,49.45,0,1,1,49.5-49.5,49.4,49.4,0,0,1-49.5,49.5Zm98.9-98.9a49.45,49.45,0,1,1,49.5-49.5,49.4,49.4,0,0,1-49.5,49.5Z"/><path class="cls-2" d="M1310.22,33a197.73,197.73,0,0,0-197.8,197.8c0,109.3,88.6,197.8,197.8,197.8S1508,340,1508,230.8,1419.42,33,1310.22,33Zm0,49.4a49.4,49.4,0,1,1-49.4,49.4h0a49.31,49.31,0,0,1,49.4-49.4Zm-98.9,197.9a49.4,49.4,0,1,1,49.4-49.4h0a49.51,49.51,0,0,1-49.4,49.4Zm98.9,98.9a49.45,49.45,0,1,1,49.5-49.5,49.4,49.4,0,0,1-49.5,49.5Zm98.9-98.9a49.45,49.45,0,1,1,49.5-49.5,49.4,49.4,0,0,1-49.5,49.5Z"/></g></g><g id="Layer_2-5" data-name="Layer 2"><g id="Layer_1-2-5" data-name="Layer 1-2"><path class="cls-1" d="M1849.92,131.9a97.62,97.62,0,0,0-47.8,12.4,49.36,49.36,0,0,0,95.6,0A97.62,97.62,0,0,0,1849.92,131.9Z"/><path class="cls-1" d="M1849.92,329.7a97.62,97.62,0,0,0,47.8-12.4,49.36,49.36,0,0,0-95.6,0A98.43,98.43,0,0,0,1849.92,329.7Z"/><path class="cls-1" d="M1948.82,230.8a97.62,97.62,0,0,0-12.4-47.8,49.39,49.39,0,0,0,0,95.7A99.38,99.38,0,0,0,1948.82,230.8Z"/><path class="cls-1" d="M1763.32,182.9a98.7,98.7,0,0,0,0,95.7,49.39,49.39,0,0,0,0-95.7Z"/><path class="cls-1" d="M1849.92,0c-127.5,0-230.8,103.3-230.8,230.8s103.3,230.8,230.8,230.8,230.8-103.3,230.8-230.8S1977.32,0,1849.92,0Zm0,82.4a49.4,49.4,0,1,1-49.4,49.4h0A49.38,49.38,0,0,1,1849.92,82.4ZM1751,280.2a49.4,49.4,0,1,1,49.4-49.4h0a49.38,49.38,0,0,1-49.4,49.4Zm98.9,98.9a49.45,49.45,0,1,1,49.5-49.5,49.4,49.4,0,0,1-49.5,49.5Zm98.9-98.9a49.45,49.45,0,1,1,49.5-49.5,49.4,49.4,0,0,1-49.5,49.5Z"/><path class="cls-2" d="M1849.92,33a197.73,197.73,0,0,0-197.8,197.8c0,109.3,88.6,197.8,197.8,197.8s197.8-88.6,197.8-197.8S1959.12,33,1849.92,33Zm0,49.4a49.4,49.4,0,1,1-49.4,49.4h0a49.31,49.31,0,0,1,49.4-49.4ZM1751,280.3a49.4,49.4,0,1,1,49.4-49.4h0a49.51,49.51,0,0,1-49.4,49.4Zm98.9,98.9a49.45,49.45,0,1,1,49.5-49.5,49.4,49.4,0,0,1-49.5,49.5Zm98.9-98.9a49.45,49.45,0,1,1,49.5-49.5,49.4,49.4,0,0,1-49.5,49.5Z"/><path class="cls-3" d="M1849.92,131.9a97.62,97.62,0,0,0-47.8,12.4,49.36,49.36,0,0,0,95.6,0A97.62,97.62,0,0,0,1849.92,131.9Z"/><path class="cls-3" d="M1849.92,329.7a97.62,97.62,0,0,0,47.8-12.4,49.36,49.36,0,0,0-95.6,0A98.43,98.43,0,0,0,1849.92,329.7Z"/><path class="cls-3" d="M1948.82,230.8a97.62,97.62,0,0,0-12.4-47.8,49.39,49.39,0,0,0,0,95.7A99.38,99.38,0,0,0,1948.82,230.8Z"/><path class="cls-3" d="M1763.32,182.9a98.7,98.7,0,0,0,0,95.7,49.39,49.39,0,0,0,0-95.7Z"/><path class="cls-3" d="M1849.92,0c-127.5,0-230.8,103.3-230.8,230.8s103.3,230.8,230.8,230.8,230.8-103.3,230.8-230.8S1977.32,0,1849.92,0Zm0,82.4a49.4,49.4,0,1,1-49.4,49.4h0A49.38,49.38,0,0,1,1849.92,82.4ZM1751,280.2a49.4,49.4,0,1,1,49.4-49.4h0a49.38,49.38,0,0,1-49.4,49.4Zm98.9,98.9a49.45,49.45,0,1,1,49.5-49.5,49.4,49.4,0,0,1-49.5,49.5Zm98.9-98.9a49.45,49.45,0,1,1,49.5-49.5,49.4,49.4,0,0,1-49.5,49.5Z"/><path class="cls-2" d="M1849.92,33a197.73,197.73,0,0,0-197.8,197.8c0,109.3,88.6,197.8,197.8,197.8s197.8-88.6,197.8-197.8S1959.12,33,1849.92,33Zm0,49.4a49.4,49.4,0,1,1-49.4,49.4h0a49.31,49.31,0,0,1,49.4-49.4ZM1751,280.3a49.4,49.4,0,1,1,49.4-49.4h0a49.51,49.51,0,0,1-49.4,49.4Zm98.9,98.9a49.45,49.45,0,1,1,49.5-49.5,49.4,49.4,0,0,1-49.5,49.5Zm98.9-98.9a49.45,49.45,0,1,1,49.5-49.5,49.4,49.4,0,0,1-49.5,49.5Z"/></g></g><g id="Layer_2-6" data-name="Layer 2"><g id="Layer_1-2-6" data-name="Layer 1-2"><path class="cls-1" d="M2389.62,131.9a97.62,97.62,0,0,0-47.8,12.4,49.36,49.36,0,0,0,95.6,0A97.62,97.62,0,0,0,2389.62,131.9Z"/><path class="cls-1" d="M2389.62,329.7a97.62,97.62,0,0,0,47.8-12.4,49.36,49.36,0,0,0-95.6,0A98.43,98.43,0,0,0,2389.62,329.7Z"/><path class="cls-1" d="M2488.52,230.8a97.62,97.62,0,0,0-12.4-47.8,49.39,49.39,0,0,0,0,95.7A99.38,99.38,0,0,0,2488.52,230.8Z"/><path class="cls-1" d="M2303,182.9a98.7,98.7,0,0,0,0,95.7,49.39,49.39,0,0,0,0-95.7Z"/><path class="cls-1" d="M2389.62,0c-127.5,0-230.8,103.3-230.8,230.8s103.3,230.8,230.8,230.8,230.8-103.3,230.8-230.8S2517,0,2389.62,0Zm0,82.4a49.4,49.4,0,1,1-49.4,49.4h0A49.38,49.38,0,0,1,2389.62,82.4Zm-98.9,197.8a49.4,49.4,0,1,1,49.4-49.4h0a49.38,49.38,0,0,1-49.4,49.4Zm98.9,98.9a49.45,49.45,0,1,1,49.5-49.5,49.4,49.4,0,0,1-49.5,49.5Zm98.9-98.9a49.45,49.45,0,1,1,49.5-49.5,49.4,49.4,0,0,1-49.5,49.5Z"/><path class="cls-2" d="M2389.62,33a197.73,197.73,0,0,0-197.8,197.8c0,109.3,88.6,197.8,197.8,197.8s197.8-88.6,197.8-197.8S2498.82,33,2389.62,33Zm0,49.4a49.4,49.4,0,1,1-49.4,49.4h0a49.31,49.31,0,0,1,49.4-49.4Zm-98.9,197.9a49.4,49.4,0,1,1,49.4-49.4h0a49.51,49.51,0,0,1-49.4,49.4Zm98.9,98.9a49.45,49.45,0,1,1,49.5-49.5,49.4,49.4,0,0,1-49.5,49.5Zm98.9-98.9a49.45,49.45,0,1,1,49.5-49.5,49.4,49.4,0,0,1-49.5,49.5Z"/><path class="cls-3" d="M2389.62,131.9a97.62,97.62,0,0,0-47.8,12.4,49.36,49.36,0,0,0,95.6,0A97.62,97.62,0,0,0,2389.62,131.9Z"/><path class="cls-3" d="M2389.62,329.7a97.62,97.62,0,0,0,47.8-12.4,49.36,49.36,0,0,0-95.6,0A98.43,98.43,0,0,0,2389.62,329.7Z"/><path class="cls-3" d="M2488.52,230.8a97.62,97.62,0,0,0-12.4-47.8,49.39,49.39,0,0,0,0,95.7A99.38,99.38,0,0,0,2488.52,230.8Z"/><path class="cls-3" d="M2303,182.9a98.7,98.7,0,0,0,0,95.7,49.39,49.39,0,0,0,0-95.7Z"/><path class="cls-3" d="M2389.62,0c-127.5,0-230.8,103.3-230.8,230.8s103.3,230.8,230.8,230.8,230.8-103.3,230.8-230.8S2517,0,2389.62,0Zm0,82.4a49.4,49.4,0,1,1-49.4,49.4h0A49.38,49.38,0,0,1,2389.62,82.4Zm-98.9,197.8a49.4,49.4,0,1,1,49.4-49.4h0a49.38,49.38,0,0,1-49.4,49.4Zm98.9,98.9a49.45,49.45,0,1,1,49.5-49.5,49.4,49.4,0,0,1-49.5,49.5Zm98.9-98.9a49.45,49.45,0,1,1,49.5-49.5,49.4,49.4,0,0,1-49.5,49.5Z"/><path class="cls-2" d="M2389.62,33a197.73,197.73,0,0,0-197.8,197.8c0,109.3,88.6,197.8,197.8,197.8s197.8-88.6,197.8-197.8S2498.82,33,2389.62,33Zm0,49.4a49.4,49.4,0,1,1-49.4,49.4h0a49.31,49.31,0,0,1,49.4-49.4Zm-98.9,197.9a49.4,49.4,0,1,1,49.4-49.4h0a49.51,49.51,0,0,1-49.4,49.4Zm98.9,98.9a49.45,49.45,0,1,1,49.5-49.5,49.4,49.4,0,0,1-49.5,49.5Zm98.9-98.9a49.45,49.45,0,1,1,49.5-49.5,49.4,49.4,0,0,1-49.5,49.5Z"/></g></g></g></g></svg>