<svg xmlns="http://www.w3.org/2000/svg" viewBox="0 0 2620.43 465.16"><defs><style>.cls-1{fill:#145654;}.cls-2{fill:#e7e7e7;}.cls-3{fill:#961f1e;}</style></defs><title>2</title><g id="Layer_2" data-name="Layer 2"><g id="Layer_1-2" data-name="Layer 1"><g id="Layer_2-2" data-name="Layer 2"><g id="Layer_1-2-2" data-name="Layer 1-2"><path class="cls-1" d="M1310.22,131.9a98.43,98.43,0,0,0-47.84,12.35,49.39,49.39,0,0,0,95.67,0A98.43,98.43,0,0,0,1310.22,131.9Z"/><path class="cls-1" d="M1310.22,329.71a98.43,98.43,0,0,0,47.84-12.35,49.39,49.39,0,0,0-95.67,0A98.43,98.43,0,0,0,1310.22,329.71Z"/><path class="cls-1" d="M1409.12,230.81A98.37,98.37,0,0,0,1396.77,183a49.38,49.38,0,0,0,0,95.66A98.37,98.37,0,0,0,1409.12,230.81Z"/><path class="cls-1" d="M1223.67,183a98.76,98.76,0,0,0,0,95.66,49.38,49.38,0,0,0,0-95.66Z"/><path class="cls-1" d="M1310.22,0c-127.46,0-230.78,103.32-230.78,230.78s103.32,230.77,230.78,230.77S1541,358.26,1541,230.81,1437.67,0,1310.22,0Zm0,82.42a49.45,49.45,0,1,1-49.45,49.45h0A49.45,49.45,0,0,1,1310.22,82.45Zm-98.9,197.81a49.45,49.45,0,1,1,49.45-49.45h0a49.45,49.45,0,0,1-49.45,49.45h0Zm98.9,98.9a49.45,49.45,0,1,1,49.45-49.45,49.45,49.45,0,0,1-49.45,49.45h0Zm98.9-98.9a49.45,49.45,0,1,1,49.45-49.45,49.45,49.45,0,0,1-49.45,49.45h0Z"/><path class="cls-2" d="M1310.22,33c-109.25,0-197.78,88.53-197.78,197.78S1201,428.62,1310.25,428.62,1508,340,1508,230.81,1419.44,33,1310.22,33Zm0,49.45a49.45,49.45,0,1,1-49.45,49.45h0a49.45,49.45,0,0,1,49.42-49.48h0Zm-98.9,197.81a49.45,49.45,0,1,1,49.45-49.45h0a49.45,49.45,0,0,1-49.46,49.42Zm98.9,98.9a49.45,49.45,0,1,1,49.45-49.45,49.45,49.45,0,0,1-49.45,49.45Zm98.9-98.9a49.45,49.45,0,1,1,49.45-49.45,49.45,49.45,0,0,1-49.45,49.45Z"/><path class="cls-1" d="M1310.22,131.9a98.43,98.43,0,0,0-47.84,12.35,49.39,49.39,0,0,0,95.67,0A98.43,98.43,0,0,0,1310.22,131.9Z"/><path class="cls-1" d="M1310.22,329.71a98.43,98.43,0,0,0,47.84-12.35,49.39,49.39,0,0,0-95.67,0A98.43,98.43,0,0,0,1310.22,329.71Z"/><path class="cls-1" d="M1409.12,230.81A98.37,98.37,0,0,0,1396.77,183a49.38,49.38,0,0,0,0,95.66A98.37,98.37,0,0,0,1409.12,230.81Z"/><path class="cls-1" d="M1223.67,183a98.76,98.76,0,0,0,0,95.66,49.38,49.38,0,0,0,0-95.66Z"/><path class="cls-1" d="M1310.22,0c-127.46,0-230.78,103.32-230.78,230.78s103.32,230.77,230.78,230.77S1541,358.26,1541,230.81,1437.67,0,1310.22,0Zm0,82.42a49.45,49.45,0,1,1-49.45,49.45h0A49.45,49.45,0,0,1,1310.22,82.45Zm-98.9,197.81a49.45,49.45,0,1,1,49.45-49.45h0a49.45,49.45,0,0,1-49.45,49.45h0Zm98.9,98.9a49.45,49.45,0,1,1,49.45-49.45,49.45,49.45,0,0,1-49.45,49.45h0Zm98.9-98.9a49.45,49.45,0,1,1,49.45-49.45,49.45,49.45,0,0,1-49.45,49.45h0Z"/><path class="cls-2" d="M1310.22,33c-109.25,0-197.78,88.53-197.78,197.78S1201,428.62,1310.25,428.62,1508,340,1508,230.81,1419.44,33,1310.22,33Zm0,49.45a49.45,49.45,0,1,1-49.45,49.45h0a49.45,49.45,0,0,1,49.42-49.48h0Zm-98.9,197.81a49.45,49.45,0,1,1,49.45-49.45h0a49.45,49.45,0,0,1-49.46,49.42Zm98.9,98.9a49.45,49.45,0,1,1,49.45-49.45,49.45,49.45,0,0,1-49.45,49.45Zm98.9-98.9a49.45,49.45,0,1,1,49.45-49.45,49.45,49.45,0,0,1-49.45,49.45Z"/></g></g><g id="Layer_2-3" data-name="Layer 2"><g id="Layer_1-2-3" data-name="Layer 1-2"><path class="cls-1" d="M1849.94,131.9a98.43,98.43,0,0,0-47.84,12.35,49.39,49.39,0,0,0,95.67,0A98.43,98.43,0,0,0,1849.94,131.9Z"/><path class="cls-1" d="M1849.94,329.71a98.43,98.43,0,0,0,47.84-12.35,49.39,49.39,0,0,0-95.67,0A98.43,98.43,0,0,0,1849.94,329.71Z"/><path class="cls-1" d="M1948.84,230.81A98.37,98.37,0,0,0,1936.49,183a49.38,49.38,0,0,0,0,95.66A98.37,98.37,0,0,0,1948.84,230.81Z"/><path class="cls-1" d="M1763.39,183a98.76,98.76,0,0,0,0,95.66,49.38,49.38,0,0,0,0-95.66Z"/><path class="cls-1" d="M1849.94,0c-127.46,0-230.78,103.32-230.78,230.78s103.32,230.77,230.78,230.77,230.77-103.32,230.77-230.77S1977.39,0,1849.94,0Zm0,82.42a49.45,49.45,0,1,1-49.45,49.45h0A49.45,49.45,0,0,1,1849.94,82.45ZM1751,280.25a49.45,49.45,0,1,1,49.45-49.45h0A49.45,49.45,0,0,1,1751,280.26h0Zm98.9,98.9a49.45,49.45,0,1,1,49.45-49.45,49.45,49.45,0,0,1-49.45,49.45h0Zm98.9-98.9a49.45,49.45,0,1,1,49.45-49.45,49.45,49.45,0,0,1-49.45,49.45h0Z"/><path class="cls-2" d="M1849.94,33c-109.25,0-197.78,88.53-197.78,197.78S1740.72,428.62,1850,428.62,2047.75,340,2047.75,230.81,1959.16,33,1849.94,33Zm0,49.45a49.45,49.45,0,1,1-49.45,49.45h0a49.45,49.45,0,0,1,49.42-49.48h0ZM1751,280.29a49.45,49.45,0,1,1,49.45-49.45h0A49.45,49.45,0,0,1,1751,280.26Zm98.9,98.9a49.45,49.45,0,1,1,49.45-49.45,49.45,49.45,0,0,1-49.45,49.45Zm98.9-98.9a49.45,49.45,0,1,1,49.45-49.45,49.45,49.45,0,0,1-49.45,49.45Z"/><path class="cls-1" d="M1849.94,131.9a98.43,98.43,0,0,0-47.84,12.35,49.39,49.39,0,0,0,95.67,0A98.43,98.43,0,0,0,1849.94,131.9Z"/><path class="cls-1" d="M1849.94,329.71a98.43,98.43,0,0,0,47.84-12.35,49.39,49.39,0,0,0-95.67,0A98.43,98.43,0,0,0,1849.94,329.71Z"/><path class="cls-1" d="M1948.84,230.81A98.37,98.37,0,0,0,1936.49,183a49.38,49.38,0,0,0,0,95.66A98.37,98.37,0,0,0,1948.84,230.81Z"/><path class="cls-1" d="M1763.39,183a98.76,98.76,0,0,0,0,95.66,49.38,49.38,0,0,0,0-95.66Z"/><path class="cls-1" d="M1849.94,0c-127.46,0-230.78,103.32-230.78,230.78s103.32,230.77,230.78,230.77,230.77-103.32,230.77-230.77S1977.39,0,1849.94,0Zm0,82.42a49.45,49.45,0,1,1-49.45,49.45h0A49.45,49.45,0,0,1,1849.94,82.45ZM1751,280.25a49.45,49.45,0,1,1,49.45-49.45h0A49.45,49.45,0,0,1,1751,280.26h0Zm98.9,98.9a49.45,49.45,0,1,1,49.45-49.45,49.45,49.45,0,0,1-49.45,49.45h0Zm98.9-98.9a49.45,49.45,0,1,1,49.45-49.45,49.45,49.45,0,0,1-49.45,49.45h0Z"/><path class="cls-2" d="M1849.94,33c-109.25,0-197.78,88.53-197.78,197.78S1740.72,428.62,1850,428.62,2047.75,340,2047.75,230.81,1959.16,33,1849.94,33Zm0,49.45a49.45,49.45,0,1,1-49.45,49.45h0a49.45,49.45,0,0,1,49.42-49.48h0ZM1751,280.29a49.45,49.45,0,1,1,49.45-49.45h0A49.45,49.45,0,0,1,1751,280.26Zm98.9,98.9a49.45,49.45,0,1,1,49.45-49.45,49.45,49.45,0,0,1-49.45,49.45Zm98.9-98.9a49.45,49.45,0,1,1,49.45-49.45,49.45,49.45,0,0,1-49.45,49.45Z"/></g></g><g id="Layer_2-4" data-name="Layer 2"><g id="Layer_1-2-4" data-name="Layer 1-2"><path class="cls-1" d="M2389.66,131.9a98.43,98.43,0,0,0-47.84,12.35,49.39,49.39,0,0,0,95.67,0A98.43,98.43,0,0,0,2389.66,131.9Z"/><path class="cls-1" d="M2389.66,329.71a98.43,98.43,0,0,0,47.84-12.35,49.39,49.39,0,0,0-95.67,0A98.43,98.43,0,0,0,2389.66,329.71Z"/><path class="cls-1" d="M2488.56,230.81A98.37,98.37,0,0,0,2476.21,183a49.38,49.38,0,0,0,0,95.66A98.37,98.37,0,0,0,2488.56,230.81Z"/><path class="cls-1" d="M2303.11,183a98.76,98.76,0,0,0,0,95.66,49.38,49.38,0,0,0,0-95.66Z"/><path class="cls-1" d="M2389.66,0c-127.46,0-230.78,103.32-230.78,230.78s103.32,230.77,230.78,230.77,230.77-103.32,230.77-230.77S2517.11,0,2389.66,0Zm0,82.42a49.45,49.45,0,1,1-49.45,49.45h0A49.45,49.45,0,0,1,2389.66,82.45Zm-98.9,197.81a49.45,49.45,0,1,1,49.45-49.45h0a49.45,49.45,0,0,1-49.45,49.45h0Zm98.9,98.9a49.45,49.45,0,1,1,49.45-49.45,49.45,49.45,0,0,1-49.45,49.45h0Zm98.9-98.9A49.45,49.45,0,1,1,2538,230.8a49.45,49.45,0,0,1-49.45,49.45h0Z"/><path class="cls-2" d="M2389.66,33c-109.25,0-197.78,88.53-197.78,197.78s88.56,197.81,197.81,197.81S2587.47,340,2587.47,230.81,2498.88,33,2389.66,33Zm0,49.45a49.45,49.45,0,1,1-49.45,49.45h0a49.45,49.45,0,0,1,49.42-49.48h0Zm-98.9,197.81a49.45,49.45,0,1,1,49.45-49.45h0a49.45,49.45,0,0,1-49.46,49.42Zm98.9,98.9a49.45,49.45,0,1,1,49.45-49.45,49.45,49.45,0,0,1-49.45,49.45Zm98.9-98.9A49.45,49.45,0,1,1,2538,230.84a49.45,49.45,0,0,1-49.45,49.45Z"/><path class="cls-1" d="M2389.66,131.9a98.43,98.43,0,0,0-47.84,12.35,49.39,49.39,0,0,0,95.67,0A98.43,98.43,0,0,0,2389.66,131.9Z"/><path class="cls-1" d="M2389.66,329.71a98.43,98.43,0,0,0,47.84-12.35,49.39,49.39,0,0,0-95.67,0A98.43,98.43,0,0,0,2389.66,329.71Z"/><path class="cls-1" d="M2488.56,230.81A98.37,98.37,0,0,0,2476.21,183a49.38,49.38,0,0,0,0,95.66A98.37,98.37,0,0,0,2488.56,230.81Z"/><path class="cls-1" d="M2303.11,183a98.76,98.76,0,0,0,0,95.66,49.38,49.38,0,0,0,0-95.66Z"/><path class="cls-1" d="M2389.66,0c-127.46,0-230.78,103.32-230.78,230.78s103.32,230.77,230.78,230.77,230.77-103.32,230.77-230.77S2517.11,0,2389.66,0Zm0,82.42a49.45,49.45,0,1,1-49.45,49.45h0A49.45,49.45,0,0,1,2389.66,82.45Zm-98.9,197.81a49.45,49.45,0,1,1,49.45-49.45h0a49.45,49.45,0,0,1-49.45,49.45h0Zm98.9,98.9a49.45,49.45,0,1,1,49.45-49.45,49.45,49.45,0,0,1-49.45,49.45h0Zm98.9-98.9A49.45,49.45,0,1,1,2538,230.8a49.45,49.45,0,0,1-49.45,49.45h0Z"/><path class="cls-2" d="M2389.66,33c-109.25,0-197.78,88.53-197.78,197.78s88.56,197.81,197.81,197.81S2587.47,340,2587.47,230.81,2498.88,33,2389.66,33Zm0,49.45a49.45,49.45,0,1,1-49.45,49.45h0a49.45,49.45,0,0,1,49.42-49.48h0Zm-98.9,197.81a49.45,49.45,0,1,1,49.45-49.45h0a49.45,49.45,0,0,1-49.46,49.42Zm98.9,98.9a49.45,49.45,0,1,1,49.45-49.45,49.45,49.45,0,0,1-49.45,49.45Zm98.9-98.9A49.45,49.45,0,1,1,2538,230.84a49.45,49.45,0,0,1-49.45,49.45Z"/></g></g><g id="Layer_2-5" data-name="Layer 2"><g id="Layer_1-2-5" data-name="Layer 1-2"><path class="cls-1" d="M230.8,135.46a97.62,97.62,0,0,0-47.8,12.4,49.36,49.36,0,0,0,95.6,0A97.62,97.62,0,0,0,230.8,135.46Z"/><path class="cls-1" d="M230.8,333.26a97.62,97.62,0,0,0,47.8-12.4,49.36,49.36,0,0,0-95.6,0A98.43,98.43,0,0,0,230.8,333.26Z"/><path class="cls-1" d="M329.7,234.36a97.62,97.62,0,0,0-12.4-47.8,49.39,49.39,0,0,0,0,95.7A99.38,99.38,0,0,0,329.7,234.36Z"/><path class="cls-1" d="M144.2,186.46a98.7,98.7,0,0,0,0,95.7,49.39,49.39,0,0,0,0-95.7Z"/><path class="cls-1" d="M230.8,3.56C103.3,3.56,0,106.86,0,234.36s103.3,230.8,230.8,230.8,230.8-103.3,230.8-230.8S358.2,3.56,230.8,3.56Zm0,82.4a49.4,49.4,0,1,1-49.4,49.4h0A49.38,49.38,0,0,1,230.8,86Zm-98.9,197.8a49.4,49.4,0,1,1,49.4-49.4h0a49.38,49.38,0,0,1-49.4,49.4Zm98.9,98.9a49.45,49.45,0,1,1,49.5-49.5,49.4,49.4,0,0,1-49.5,49.5Zm98.9-98.9a49.45,49.45,0,1,1,49.5-49.5,49.4,49.4,0,0,1-49.5,49.5Z"/><path class="cls-2" d="M230.8,36.56A197.73,197.73,0,0,0,33,234.36c0,109.3,88.6,197.8,197.8,197.8s197.8-88.6,197.8-197.8S340,36.56,230.8,36.56Zm0,49.4a49.4,49.4,0,1,1-49.4,49.4h0A49.31,49.31,0,0,1,230.8,86Zm-98.9,197.9a49.4,49.4,0,1,1,49.4-49.4h0a49.51,49.51,0,0,1-49.4,49.4Zm98.9,98.9a49.45,49.45,0,1,1,49.5-49.5,49.4,49.4,0,0,1-49.5,49.5Zm98.9-98.9a49.45,49.45,0,1,1,49.5-49.5,49.4,49.4,0,0,1-49.5,49.5Z"/><path class="cls-3" d="M230.8,135.46a97.62,97.62,0,0,0-47.8,12.4,49.36,49.36,0,0,0,95.6,0A97.62,97.62,0,0,0,230.8,135.46Z"/><path class="cls-3" d="M230.8,333.26a97.62,97.62,0,0,0,47.8-12.4,49.36,49.36,0,0,0-95.6,0A98.43,98.43,0,0,0,230.8,333.26Z"/><path class="cls-3" d="M329.7,234.36a97.62,97.62,0,0,0-12.4-47.8,49.39,49.39,0,0,0,0,95.7A99.38,99.38,0,0,0,329.7,234.36Z"/><path class="cls-3" d="M144.2,186.46a98.7,98.7,0,0,0,0,95.7,49.39,49.39,0,0,0,0-95.7Z"/><path class="cls-3" d="M230.8,3.56C103.3,3.56,0,106.86,0,234.36s103.3,230.8,230.8,230.8,230.8-103.3,230.8-230.8S358.2,3.56,230.8,3.56Zm0,82.4a49.4,49.4,0,1,1-49.4,49.4h0A49.38,49.38,0,0,1,230.8,86Zm-98.9,197.8a49.4,49.4,0,1,1,49.4-49.4h0a49.38,49.38,0,0,1-49.4,49.4Zm98.9,98.9a49.45,49.45,0,1,1,49.5-49.5,49.4,49.4,0,0,1-49.5,49.5Zm98.9-98.9a49.45,49.45,0,1,1,49.5-49.5,49.4,49.4,0,0,1-49.5,49.5Z"/><path class="cls-2" d="M230.8,36.56A197.73,197.73,0,0,0,33,234.36c0,109.3,88.6,197.8,197.8,197.8s197.8-88.6,197.8-197.8S340,36.56,230.8,36.56Zm0,49.4a49.4,49.4,0,1,1-49.4,49.4h0A49.31,49.31,0,0,1,230.8,86Zm-98.9,197.9a49.4,49.4,0,1,1,49.4-49.4h0a49.51,49.51,0,0,1-49.4,49.4Zm98.9,98.9a49.45,49.45,0,1,1,49.5-49.5,49.4,49.4,0,0,1-49.5,49.5Zm98.9-98.9a49.45,49.45,0,1,1,49.5-49.5,49.4,49.4,0,0,1-49.5,49.5Z"/></g></g><g id="Layer_2-6" data-name="Layer 2"><g id="Layer_1-2-6" data-name="Layer 1-2"><path class="cls-1" d="M770.52,131.9a97.62,97.62,0,0,0-47.8,12.4,49.36,49.36,0,0,0,95.6,0A97.62,97.62,0,0,0,770.52,131.9Z"/><path class="cls-1" d="M770.52,329.7a97.62,97.62,0,0,0,47.8-12.4,49.36,49.36,0,0,0-95.6,0A98.43,98.43,0,0,0,770.52,329.7Z"/><path class="cls-1" d="M869.42,230.8A97.62,97.62,0,0,0,857,183a49.39,49.39,0,0,0,0,95.7A99.38,99.38,0,0,0,869.42,230.8Z"/><path class="cls-1" d="M683.92,182.9a98.7,98.7,0,0,0,0,95.7,49.39,49.39,0,0,0,0-95.7Z"/><path class="cls-1" d="M770.52,0C643,0,539.72,103.3,539.72,230.8S643,461.6,770.52,461.6s230.8-103.3,230.8-230.8S897.92,0,770.52,0Zm0,82.4a49.4,49.4,0,1,1-49.4,49.4h0A49.38,49.38,0,0,1,770.52,82.4Zm-98.9,197.8A49.4,49.4,0,1,1,721,230.8h0a49.38,49.38,0,0,1-49.4,49.4Zm98.9,98.9A49.45,49.45,0,1,1,820,329.6a49.4,49.4,0,0,1-49.5,49.5Zm98.9-98.9a49.45,49.45,0,1,1,49.5-49.5,49.4,49.4,0,0,1-49.5,49.5Z"/><path class="cls-2" d="M770.52,33a197.73,197.73,0,0,0-197.8,197.8c0,109.3,88.6,197.8,197.8,197.8s197.8-88.6,197.8-197.8S879.72,33,770.52,33Zm0,49.4a49.4,49.4,0,1,1-49.4,49.4h0a49.31,49.31,0,0,1,49.4-49.4Zm-98.9,197.9A49.4,49.4,0,1,1,721,230.9h0a49.51,49.51,0,0,1-49.4,49.4Zm98.9,98.9A49.45,49.45,0,1,1,820,329.7a49.4,49.4,0,0,1-49.5,49.5Zm98.9-98.9a49.45,49.45,0,1,1,49.5-49.5,49.4,49.4,0,0,1-49.5,49.5Z"/><path class="cls-3" d="M770.52,131.9a97.62,97.62,0,0,0-47.8,12.4,49.36,49.36,0,0,0,95.6,0A97.62,97.62,0,0,0,770.52,131.9Z"/><path class="cls-3" d="M770.52,329.7a97.62,97.62,0,0,0,47.8-12.4,49.36,49.36,0,0,0-95.6,0A98.43,98.43,0,0,0,770.52,329.7Z"/><path class="cls-3" d="M869.42,230.8A97.62,97.62,0,0,0,857,183a49.39,49.39,0,0,0,0,95.7A99.38,99.38,0,0,0,869.42,230.8Z"/><path class="cls-3" d="M683.92,182.9a98.7,98.7,0,0,0,0,95.7,49.39,49.39,0,0,0,0-95.7Z"/><path class="cls-3" d="M770.52,0C643,0,539.72,103.3,539.72,230.8S643,461.6,770.52,461.6s230.8-103.3,230.8-230.8S897.92,0,770.52,0Zm0,82.4a49.4,49.4,0,1,1-49.4,49.4h0A49.38,49.38,0,0,1,770.52,82.4Zm-98.9,197.8A49.4,49.4,0,1,1,721,230.8h0a49.38,49.38,0,0,1-49.4,49.4Zm98.9,98.9A49.45,49.45,0,1,1,820,329.6a49.4,49.4,0,0,1-49.5,49.5Zm98.9-98.9a49.45,49.45,0,1,1,49.5-49.5,49.4,49.4,0,0,1-49.5,49.5Z"/><path class="cls-2" d="M770.52,33a197.73,197.73,0,0,0-197.8,197.8c0,109.3,88.6,197.8,197.8,197.8s197.8-88.6,197.8-197.8S879.72,33,770.52,33Zm0,49.4a49.4,49.4,0,1,1-49.4,49.4h0a49.31,49.31,0,0,1,49.4-49.4Zm-98.9,197.9A49.4,49.4,0,1,1,721,230.9h0a49.51,49.51,0,0,1-49.4,49.4Zm98.9,98.9A49.45,49.45,0,1,1,820,329.7a49.4,49.4,0,0,1-49.5,49.5Zm98.9-98.9a49.45,49.45,0,1,1,49.5-49.5,49.4,49.4,0,0,1-49.5,49.5Z"/></g></g></g></g></svg>