<svg xmlns="http://www.w3.org/2000/svg" viewBox="0 0 2620.43 465.21"><defs><style>.cls-1{fill:#145654;}.cls-2{fill:#e7e7e7;}.cls-3{fill:#961f1e;}</style></defs><title>3</title><g id="Layer_2" data-name="Layer 2"><g id="Layer_1-2" data-name="Layer 1"><g id="Layer_2-2" data-name="Layer 2"><g id="Layer_1-2-2" data-name="Layer 1-2"><path class="cls-1" d="M1849.94,131.95a98.43,98.43,0,0,0-47.84,12.35,49.39,49.39,0,0,0,95.67,0A98.43,98.43,0,0,0,1849.94,131.95Z"/><path class="cls-1" d="M1849.94,329.76a98.43,98.43,0,0,0,47.84-12.35,49.39,49.39,0,0,0-95.67,0A98.43,98.43,0,0,0,1849.94,329.76Z"/><path class="cls-1" d="M1948.84,230.86A98.37,98.37,0,0,0,1936.49,183a49.38,49.38,0,0,0,0,95.66A98.37,98.37,0,0,0,1948.84,230.86Z"/><path class="cls-1" d="M1763.39,183a98.76,98.76,0,0,0,0,95.66,49.38,49.38,0,0,0,0-95.66Z"/><path class="cls-1" d="M1849.94.08c-127.46,0-230.78,103.32-230.78,230.78s103.32,230.77,230.78,230.77,230.77-103.32,230.77-230.77S1977.39.08,1849.94.08Zm0,82.42a49.45,49.45,0,1,1-49.45,49.45h0A49.45,49.45,0,0,1,1849.94,82.5ZM1751,280.31a49.45,49.45,0,1,1,49.45-49.45h0A49.45,49.45,0,0,1,1751,280.31h0Zm98.9,98.9a49.45,49.45,0,1,1,49.45-49.45,49.45,49.45,0,0,1-49.45,49.45h0Zm98.9-98.9a49.45,49.45,0,1,1,49.45-49.45,49.45,49.45,0,0,1-49.45,49.45h0Z"/><path class="cls-2" d="M1849.94,33.08c-109.25,0-197.78,88.53-197.78,197.78S1740.72,428.67,1850,428.67s197.78-88.59,197.78-197.81S1959.16,33.08,1849.94,33.08Zm0,49.45A49.45,49.45,0,1,1,1800.49,132h0a49.45,49.45,0,0,1,49.42-49.48h0ZM1751,280.34a49.45,49.45,0,1,1,49.45-49.45h0A49.45,49.45,0,0,1,1751,280.31Zm98.9,98.9a49.45,49.45,0,1,1,49.45-49.45,49.45,49.45,0,0,1-49.45,49.45Zm98.9-98.9a49.45,49.45,0,1,1,49.45-49.45,49.45,49.45,0,0,1-49.45,49.45Z"/><path class="cls-1" d="M1849.94,131.95a98.43,98.43,0,0,0-47.84,12.35,49.39,49.39,0,0,0,95.67,0A98.43,98.43,0,0,0,1849.94,131.95Z"/><path class="cls-1" d="M1849.94,329.76a98.43,98.43,0,0,0,47.84-12.35,49.39,49.39,0,0,0-95.67,0A98.43,98.43,0,0,0,1849.94,329.76Z"/><path class="cls-1" d="M1948.84,230.86A98.37,98.37,0,0,0,1936.49,183a49.38,49.38,0,0,0,0,95.66A98.37,98.37,0,0,0,1948.84,230.86Z"/><path class="cls-1" d="M1763.39,183a98.76,98.76,0,0,0,0,95.66,49.38,49.38,0,0,0,0-95.66Z"/><path class="cls-1" d="M1849.94.08c-127.46,0-230.78,103.32-230.78,230.78s103.32,230.77,230.78,230.77,230.77-103.32,230.77-230.77S1977.39.08,1849.94.08Zm0,82.42a49.45,49.45,0,1,1-49.45,49.45h0A49.45,49.45,0,0,1,1849.94,82.5ZM1751,280.31a49.45,49.45,0,1,1,49.45-49.45h0A49.45,49.45,0,0,1,1751,280.31h0Zm98.9,98.9a49.45,49.45,0,1,1,49.45-49.45,49.45,49.45,0,0,1-49.45,49.45h0Zm98.9-98.9a49.45,49.45,0,1,1,49.45-49.45,49.45,49.45,0,0,1-49.45,49.45h0Z"/><path class="cls-2" d="M1849.94,33.08c-109.25,0-197.78,88.53-197.78,197.78S1740.72,428.67,1850,428.67s197.78-88.59,197.78-197.81S1959.16,33.08,1849.94,33.08Zm0,49.45A49.45,49.45,0,1,1,1800.49,132h0a49.45,49.45,0,0,1,49.42-49.48h0ZM1751,280.34a49.45,49.45,0,1,1,49.45-49.45h0A49.45,49.45,0,0,1,1751,280.31Zm98.9,98.9a49.45,49.45,0,1,1,49.45-49.45,49.45,49.45,0,0,1-49.45,49.45Zm98.9-98.9a49.45,49.45,0,1,1,49.45-49.45,49.45,49.45,0,0,1-49.45,49.45Z"/></g></g><g id="Layer_2-3" data-name="Layer 2"><g id="Layer_1-2-3" data-name="Layer 1-2"><path class="cls-1" d="M2389.66,131.95a98.43,98.43,0,0,0-47.84,12.35,49.39,49.39,0,0,0,95.67,0A98.43,98.43,0,0,0,2389.66,131.95Z"/><path class="cls-1" d="M2389.66,329.76a98.43,98.43,0,0,0,47.84-12.35,49.39,49.39,0,0,0-95.67,0A98.43,98.43,0,0,0,2389.66,329.76Z"/><path class="cls-1" d="M2488.56,230.86A98.37,98.37,0,0,0,2476.21,183a49.38,49.38,0,0,0,0,95.66A98.37,98.37,0,0,0,2488.56,230.86Z"/><path class="cls-1" d="M2303.11,183a98.76,98.76,0,0,0,0,95.66,49.38,49.38,0,0,0,0-95.66Z"/><path class="cls-1" d="M2389.66.08c-127.46,0-230.78,103.32-230.78,230.78s103.32,230.77,230.78,230.77,230.77-103.32,230.77-230.77S2517.11.08,2389.66.08Zm0,82.42a49.45,49.45,0,1,1-49.45,49.45h0A49.45,49.45,0,0,1,2389.66,82.5Zm-98.9,197.81a49.45,49.45,0,1,1,49.45-49.45h0a49.45,49.45,0,0,1-49.45,49.45h0Zm98.9,98.9a49.45,49.45,0,1,1,49.45-49.45,49.45,49.45,0,0,1-49.45,49.45h0Zm98.9-98.9A49.45,49.45,0,1,1,2538,230.86a49.45,49.45,0,0,1-49.45,49.45h0Z"/><path class="cls-2" d="M2389.66,33.08c-109.25,0-197.78,88.53-197.78,197.78s88.56,197.81,197.81,197.81,197.78-88.59,197.78-197.81S2498.88,33.08,2389.66,33.08Zm0,49.45A49.45,49.45,0,1,1,2340.21,132h0a49.45,49.45,0,0,1,49.42-49.48h0Zm-98.9,197.81a49.45,49.45,0,1,1,49.45-49.45h0a49.45,49.45,0,0,1-49.46,49.42Zm98.9,98.9a49.45,49.45,0,1,1,49.45-49.45,49.45,49.45,0,0,1-49.45,49.45Zm98.9-98.9A49.45,49.45,0,1,1,2538,230.89a49.45,49.45,0,0,1-49.45,49.45Z"/><path class="cls-1" d="M2389.66,131.95a98.43,98.43,0,0,0-47.84,12.35,49.39,49.39,0,0,0,95.67,0A98.43,98.43,0,0,0,2389.66,131.95Z"/><path class="cls-1" d="M2389.66,329.76a98.43,98.43,0,0,0,47.84-12.35,49.39,49.39,0,0,0-95.67,0A98.43,98.43,0,0,0,2389.66,329.76Z"/><path class="cls-1" d="M2488.56,230.86A98.37,98.37,0,0,0,2476.21,183a49.38,49.38,0,0,0,0,95.66A98.37,98.37,0,0,0,2488.56,230.86Z"/><path class="cls-1" d="M2303.11,183a98.76,98.76,0,0,0,0,95.66,49.38,49.38,0,0,0,0-95.66Z"/><path class="cls-1" d="M2389.66.08c-127.46,0-230.78,103.32-230.78,230.78s103.32,230.77,230.78,230.77,230.77-103.32,230.77-230.77S2517.11.08,2389.66.08Zm0,82.42a49.45,49.45,0,1,1-49.45,49.45h0A49.45,49.45,0,0,1,2389.66,82.5Zm-98.9,197.81a49.45,49.45,0,1,1,49.45-49.45h0a49.45,49.45,0,0,1-49.45,49.45h0Zm98.9,98.9a49.45,49.45,0,1,1,49.45-49.45,49.45,49.45,0,0,1-49.45,49.45h0Zm98.9-98.9A49.45,49.45,0,1,1,2538,230.86a49.45,49.45,0,0,1-49.45,49.45h0Z"/><path class="cls-2" d="M2389.66,33.08c-109.25,0-197.78,88.53-197.78,197.78s88.56,197.81,197.81,197.81,197.78-88.59,197.78-197.81S2498.88,33.08,2389.66,33.08Zm0,49.45A49.45,49.45,0,1,1,2340.21,132h0a49.45,49.45,0,0,1,49.42-49.48h0Zm-98.9,197.81a49.45,49.45,0,1,1,49.45-49.45h0a49.45,49.45,0,0,1-49.46,49.42Zm98.9,98.9a49.45,49.45,0,1,1,49.45-49.45,49.45,49.45,0,0,1-49.45,49.45Zm98.9-98.9A49.45,49.45,0,1,1,2538,230.89a49.45,49.45,0,0,1-49.45,49.45Z"/></g></g><g id="Layer_2-4" data-name="Layer 2"><g id="Layer_1-2-4" data-name="Layer 1-2"><path class="cls-1" d="M230.8,135.51a97.62,97.62,0,0,0-47.8,12.4,49.36,49.36,0,0,0,95.6,0A97.62,97.62,0,0,0,230.8,135.51Z"/><path class="cls-1" d="M230.8,333.31a97.62,97.62,0,0,0,47.8-12.4,49.36,49.36,0,0,0-95.6,0A98.43,98.43,0,0,0,230.8,333.31Z"/><path class="cls-1" d="M329.7,234.41a97.62,97.62,0,0,0-12.4-47.8,49.39,49.39,0,0,0,0,95.7A99.38,99.38,0,0,0,329.7,234.41Z"/><path class="cls-1" d="M144.2,186.51a98.7,98.7,0,0,0,0,95.7,49.39,49.39,0,0,0,0-95.7Z"/><path class="cls-1" d="M230.8,3.61C103.3,3.61,0,106.91,0,234.41s103.3,230.8,230.8,230.8,230.8-103.3,230.8-230.8S358.2,3.61,230.8,3.61Zm0,82.4a49.4,49.4,0,1,1-49.4,49.4h0A49.38,49.38,0,0,1,230.8,86Zm-98.9,197.8a49.4,49.4,0,1,1,49.4-49.4h0a49.38,49.38,0,0,1-49.4,49.4Zm98.9,98.9a49.45,49.45,0,1,1,49.5-49.5,49.4,49.4,0,0,1-49.5,49.5Zm98.9-98.9a49.45,49.45,0,1,1,49.5-49.5,49.4,49.4,0,0,1-49.5,49.5Z"/><path class="cls-2" d="M230.8,36.61A197.73,197.73,0,0,0,33,234.41c0,109.3,88.6,197.8,197.8,197.8s197.8-88.6,197.8-197.8S340,36.61,230.8,36.61Zm0,49.4a49.4,49.4,0,1,1-49.4,49.4h0A49.31,49.31,0,0,1,230.8,86Zm-98.9,197.9a49.4,49.4,0,1,1,49.4-49.4h0a49.51,49.51,0,0,1-49.4,49.4Zm98.9,98.9a49.45,49.45,0,1,1,49.5-49.5,49.4,49.4,0,0,1-49.5,49.5Zm98.9-98.9a49.45,49.45,0,1,1,49.5-49.5,49.4,49.4,0,0,1-49.5,49.5Z"/><path class="cls-3" d="M230.8,135.51a97.62,97.62,0,0,0-47.8,12.4,49.36,49.36,0,0,0,95.6,0A97.62,97.62,0,0,0,230.8,135.51Z"/><path class="cls-3" d="M230.8,333.31a97.62,97.62,0,0,0,47.8-12.4,49.36,49.36,0,0,0-95.6,0A98.43,98.43,0,0,0,230.8,333.31Z"/><path class="cls-3" d="M329.7,234.41a97.62,97.62,0,0,0-12.4-47.8,49.39,49.39,0,0,0,0,95.7A99.38,99.38,0,0,0,329.7,234.41Z"/><path class="cls-3" d="M144.2,186.51a98.7,98.7,0,0,0,0,95.7,49.39,49.39,0,0,0,0-95.7Z"/><path class="cls-3" d="M230.8,3.61C103.3,3.61,0,106.91,0,234.41s103.3,230.8,230.8,230.8,230.8-103.3,230.8-230.8S358.2,3.61,230.8,3.61Zm0,82.4a49.4,49.4,0,1,1-49.4,49.4h0A49.38,49.38,0,0,1,230.8,86Zm-98.9,197.8a49.4,49.4,0,1,1,49.4-49.4h0a49.38,49.38,0,0,1-49.4,49.4Zm98.9,98.9a49.45,49.45,0,1,1,49.5-49.5,49.4,49.4,0,0,1-49.5,49.5Zm98.9-98.9a49.45,49.45,0,1,1,49.5-49.5,49.4,49.4,0,0,1-49.5,49.5Z"/><path class="cls-2" d="M230.8,36.61A197.73,197.73,0,0,0,33,234.41c0,109.3,88.6,197.8,197.8,197.8s197.8-88.6,197.8-197.8S340,36.61,230.8,36.61Zm0,49.4a49.4,49.4,0,1,1-49.4,49.4h0A49.31,49.31,0,0,1,230.8,86Zm-98.9,197.9a49.4,49.4,0,1,1,49.4-49.4h0a49.51,49.51,0,0,1-49.4,49.4Zm98.9,98.9a49.45,49.45,0,1,1,49.5-49.5,49.4,49.4,0,0,1-49.5,49.5Zm98.9-98.9a49.45,49.45,0,1,1,49.5-49.5,49.4,49.4,0,0,1-49.5,49.5Z"/></g></g><g id="Layer_2-5" data-name="Layer 2"><g id="Layer_1-2-5" data-name="Layer 1-2"><path class="cls-1" d="M770.52,132a97.62,97.62,0,0,0-47.8,12.4,49.36,49.36,0,0,0,95.6,0A97.62,97.62,0,0,0,770.52,132Z"/><path class="cls-1" d="M770.52,329.75a97.62,97.62,0,0,0,47.8-12.4,49.36,49.36,0,0,0-95.6,0A98.43,98.43,0,0,0,770.52,329.75Z"/><path class="cls-1" d="M869.42,230.85a97.62,97.62,0,0,0-12.4-47.8,49.39,49.39,0,0,0,0,95.7A99.38,99.38,0,0,0,869.42,230.85Z"/><path class="cls-1" d="M683.92,183a98.7,98.7,0,0,0,0,95.7,49.39,49.39,0,0,0,0-95.7Z"/><path class="cls-1" d="M770.52.05c-127.5,0-230.8,103.3-230.8,230.8s103.3,230.8,230.8,230.8,230.8-103.3,230.8-230.8S897.92.05,770.52.05Zm0,82.4a49.4,49.4,0,1,1-49.4,49.4h0A49.38,49.38,0,0,1,770.52,82.45Zm-98.9,197.8a49.4,49.4,0,1,1,49.4-49.4h0a49.38,49.38,0,0,1-49.4,49.4Zm98.9,98.9a49.45,49.45,0,1,1,49.5-49.5,49.4,49.4,0,0,1-49.5,49.5Zm98.9-98.9a49.45,49.45,0,1,1,49.5-49.5,49.4,49.4,0,0,1-49.5,49.5Z"/><path class="cls-2" d="M770.52,33.05a197.73,197.73,0,0,0-197.8,197.8c0,109.3,88.6,197.8,197.8,197.8s197.8-88.6,197.8-197.8S879.72,33.05,770.52,33.05Zm0,49.4a49.4,49.4,0,1,1-49.4,49.4h0a49.31,49.31,0,0,1,49.4-49.4Zm-98.9,197.9A49.4,49.4,0,1,1,721,231h0a49.51,49.51,0,0,1-49.4,49.4Zm98.9,98.9a49.45,49.45,0,1,1,49.5-49.5,49.4,49.4,0,0,1-49.5,49.5Zm98.9-98.9a49.45,49.45,0,1,1,49.5-49.5,49.4,49.4,0,0,1-49.5,49.5Z"/><path class="cls-3" d="M770.52,132a97.62,97.62,0,0,0-47.8,12.4,49.36,49.36,0,0,0,95.6,0A97.62,97.62,0,0,0,770.52,132Z"/><path class="cls-3" d="M770.52,329.75a97.62,97.62,0,0,0,47.8-12.4,49.36,49.36,0,0,0-95.6,0A98.43,98.43,0,0,0,770.52,329.75Z"/><path class="cls-3" d="M869.42,230.85a97.62,97.62,0,0,0-12.4-47.8,49.39,49.39,0,0,0,0,95.7A99.38,99.38,0,0,0,869.42,230.85Z"/><path class="cls-3" d="M683.92,183a98.7,98.7,0,0,0,0,95.7,49.39,49.39,0,0,0,0-95.7Z"/><path class="cls-3" d="M770.52.05c-127.5,0-230.8,103.3-230.8,230.8s103.3,230.8,230.8,230.8,230.8-103.3,230.8-230.8S897.92.05,770.52.05Zm0,82.4a49.4,49.4,0,1,1-49.4,49.4h0A49.38,49.38,0,0,1,770.52,82.45Zm-98.9,197.8a49.4,49.4,0,1,1,49.4-49.4h0a49.38,49.38,0,0,1-49.4,49.4Zm98.9,98.9a49.45,49.45,0,1,1,49.5-49.5,49.4,49.4,0,0,1-49.5,49.5Zm98.9-98.9a49.45,49.45,0,1,1,49.5-49.5,49.4,49.4,0,0,1-49.5,49.5Z"/><path class="cls-2" d="M770.52,33.05a197.73,197.73,0,0,0-197.8,197.8c0,109.3,88.6,197.8,197.8,197.8s197.8-88.6,197.8-197.8S879.72,33.05,770.52,33.05Zm0,49.4a49.4,49.4,0,1,1-49.4,49.4h0a49.31,49.31,0,0,1,49.4-49.4Zm-98.9,197.9A49.4,49.4,0,1,1,721,231h0a49.51,49.51,0,0,1-49.4,49.4Zm98.9,98.9a49.45,49.45,0,1,1,49.5-49.5,49.4,49.4,0,0,1-49.5,49.5Zm98.9-98.9a49.45,49.45,0,1,1,49.5-49.5,49.4,49.4,0,0,1-49.5,49.5Z"/></g></g><g id="Layer_2-6" data-name="Layer 2"><g id="Layer_1-2-6" data-name="Layer 1-2"><path class="cls-1" d="M1310.22,131.9a97.62,97.62,0,0,0-47.8,12.4,49.36,49.36,0,0,0,95.6,0A97.62,97.62,0,0,0,1310.22,131.9Z"/><path class="cls-1" d="M1310.22,329.7a97.62,97.62,0,0,0,47.8-12.4,49.36,49.36,0,0,0-95.6,0A98.43,98.43,0,0,0,1310.22,329.7Z"/><path class="cls-1" d="M1409.12,230.8a97.62,97.62,0,0,0-12.4-47.8,49.39,49.39,0,0,0,0,95.7A99.38,99.38,0,0,0,1409.12,230.8Z"/><path class="cls-1" d="M1223.62,182.9a98.7,98.7,0,0,0,0,95.7,49.39,49.39,0,0,0,0-95.7Z"/><path class="cls-1" d="M1310.22,0c-127.5,0-230.8,103.3-230.8,230.8s103.3,230.8,230.8,230.8S1541,358.3,1541,230.8,1437.62,0,1310.22,0Zm0,82.4a49.4,49.4,0,1,1-49.4,49.4h0A49.38,49.38,0,0,1,1310.22,82.4Zm-98.9,197.8a49.4,49.4,0,1,1,49.4-49.4h0a49.38,49.38,0,0,1-49.4,49.4Zm98.9,98.9a49.45,49.45,0,1,1,49.5-49.5,49.4,49.4,0,0,1-49.5,49.5Zm98.9-98.9a49.45,49.45,0,1,1,49.5-49.5,49.4,49.4,0,0,1-49.5,49.5Z"/><path class="cls-2" d="M1310.22,33a197.73,197.73,0,0,0-197.8,197.8c0,109.3,88.6,197.8,197.8,197.8S1508,340,1508,230.8,1419.42,33,1310.22,33Zm0,49.4a49.4,49.4,0,1,1-49.4,49.4h0a49.31,49.31,0,0,1,49.4-49.4Zm-98.9,197.9a49.4,49.4,0,1,1,49.4-49.4h0a49.51,49.51,0,0,1-49.4,49.4Zm98.9,98.9a49.45,49.45,0,1,1,49.5-49.5,49.4,49.4,0,0,1-49.5,49.5Zm98.9-98.9a49.45,49.45,0,1,1,49.5-49.5,49.4,49.4,0,0,1-49.5,49.5Z"/><path class="cls-3" d="M1310.22,131.9a97.62,97.62,0,0,0-47.8,12.4,49.36,49.36,0,0,0,95.6,0A97.62,97.62,0,0,0,1310.22,131.9Z"/><path class="cls-3" d="M1310.22,329.7a97.62,97.62,0,0,0,47.8-12.4,49.36,49.36,0,0,0-95.6,0A98.43,98.43,0,0,0,1310.22,329.7Z"/><path class="cls-3" d="M1409.12,230.8a97.62,97.62,0,0,0-12.4-47.8,49.39,49.39,0,0,0,0,95.7A99.38,99.38,0,0,0,1409.12,230.8Z"/><path class="cls-3" d="M1223.62,182.9a98.7,98.7,0,0,0,0,95.7,49.39,49.39,0,0,0,0-95.7Z"/><path class="cls-3" d="M1310.22,0c-127.5,0-230.8,103.3-230.8,230.8s103.3,230.8,230.8,230.8S1541,358.3,1541,230.8,1437.62,0,1310.22,0Zm0,82.4a49.4,49.4,0,1,1-49.4,49.4h0A49.38,49.38,0,0,1,1310.22,82.4Zm-98.9,197.8a49.4,49.4,0,1,1,49.4-49.4h0a49.38,49.38,0,0,1-49.4,49.4Zm98.9,98.9a49.45,49.45,0,1,1,49.5-49.5,49.4,49.4,0,0,1-49.5,49.5Zm98.9-98.9a49.45,49.45,0,1,1,49.5-49.5,49.4,49.4,0,0,1-49.5,49.5Z"/><path class="cls-2" d="M1310.22,33a197.73,197.73,0,0,0-197.8,197.8c0,109.3,88.6,197.8,197.8,197.8S1508,340,1508,230.8,1419.42,33,1310.22,33Zm0,49.4a49.4,49.4,0,1,1-49.4,49.4h0a49.31,49.31,0,0,1,49.4-49.4Zm-98.9,197.9a49.4,49.4,0,1,1,49.4-49.4h0a49.51,49.51,0,0,1-49.4,49.4Zm98.9,98.9a49.45,49.45,0,1,1,49.5-49.5,49.4,49.4,0,0,1-49.5,49.5Zm98.9-98.9a49.45,49.45,0,1,1,49.5-49.5,49.4,49.4,0,0,1-49.5,49.5Z"/></g></g></g></g></svg>