<svg xmlns="http://www.w3.org/2000/svg" viewBox="0 0 2620.43 465.26"><defs><style>.cls-1{fill:#145654;}.cls-2{fill:#e7e7e7;}.cls-3{fill:#961f1e;}</style></defs><title>4</title><g id="Layer_2" data-name="Layer 2"><g id="Layer_1-2" data-name="Layer 1"><g id="Layer_2-2" data-name="Layer 2"><g id="Layer_1-2-2" data-name="Layer 1-2"><path class="cls-1" d="M2389.66,132a98.43,98.43,0,0,0-47.84,12.35,49.39,49.39,0,0,0,95.67,0A98.43,98.43,0,0,0,2389.66,132Z"/><path class="cls-1" d="M2389.66,329.81a98.43,98.43,0,0,0,47.84-12.35,49.39,49.39,0,0,0-95.67,0A98.43,98.43,0,0,0,2389.66,329.81Z"/><path class="cls-1" d="M2488.56,230.91a98.37,98.37,0,0,0-12.35-47.83,49.38,49.38,0,0,0,0,95.66A98.37,98.37,0,0,0,2488.56,230.91Z"/><path class="cls-1" d="M2303.11,183.08a98.76,98.76,0,0,0,0,95.66,49.38,49.38,0,0,0,0-95.66Z"/><path class="cls-1" d="M2389.66.13c-127.46,0-230.78,103.32-230.78,230.78s103.32,230.77,230.78,230.77,230.77-103.32,230.77-230.77S2517.11.13,2389.66.13Zm0,82.42A49.45,49.45,0,1,1,2340.21,132h0A49.45,49.45,0,0,1,2389.66,82.55Zm-98.9,197.81a49.45,49.45,0,1,1,49.45-49.45h0a49.45,49.45,0,0,1-49.45,49.45h0Zm98.9,98.9a49.45,49.45,0,1,1,49.45-49.45,49.45,49.45,0,0,1-49.45,49.45h0Zm98.9-98.9A49.45,49.45,0,1,1,2538,230.91a49.45,49.45,0,0,1-49.45,49.45h0Z"/><path class="cls-2" d="M2389.66,33.13c-109.25,0-197.78,88.53-197.78,197.78s88.56,197.81,197.81,197.81,197.78-88.59,197.78-197.81S2498.88,33.13,2389.66,33.13Zm0,49.45A49.45,49.45,0,1,1,2340.21,132h0a49.45,49.45,0,0,1,49.42-49.48h0Zm-98.9,197.81a49.45,49.45,0,1,1,49.45-49.45h0a49.45,49.45,0,0,1-49.46,49.42Zm98.9,98.9a49.45,49.45,0,1,1,49.45-49.45,49.45,49.45,0,0,1-49.45,49.45Zm98.9-98.9A49.45,49.45,0,1,1,2538,230.94a49.45,49.45,0,0,1-49.45,49.45Z"/><path class="cls-1" d="M2389.66,132a98.43,98.43,0,0,0-47.84,12.35,49.39,49.39,0,0,0,95.67,0A98.43,98.43,0,0,0,2389.66,132Z"/><path class="cls-1" d="M2389.66,329.81a98.43,98.43,0,0,0,47.84-12.35,49.39,49.39,0,0,0-95.67,0A98.43,98.43,0,0,0,2389.66,329.81Z"/><path class="cls-1" d="M2488.56,230.91a98.37,98.37,0,0,0-12.35-47.83,49.38,49.38,0,0,0,0,95.66A98.37,98.37,0,0,0,2488.56,230.91Z"/><path class="cls-1" d="M2303.11,183.08a98.76,98.76,0,0,0,0,95.66,49.38,49.38,0,0,0,0-95.66Z"/><path class="cls-1" d="M2389.66.13c-127.46,0-230.78,103.32-230.78,230.78s103.32,230.77,230.78,230.77,230.77-103.32,230.77-230.77S2517.11.13,2389.66.13Zm0,82.42A49.45,49.45,0,1,1,2340.21,132h0A49.45,49.45,0,0,1,2389.66,82.55Zm-98.9,197.81a49.45,49.45,0,1,1,49.45-49.45h0a49.45,49.45,0,0,1-49.45,49.45h0Zm98.9,98.9a49.45,49.45,0,1,1,49.45-49.45,49.45,49.45,0,0,1-49.45,49.45h0Zm98.9-98.9A49.45,49.45,0,1,1,2538,230.91a49.45,49.45,0,0,1-49.45,49.45h0Z"/><path class="cls-2" d="M2389.66,33.13c-109.25,0-197.78,88.53-197.78,197.78s88.56,197.81,197.81,197.81,197.78-88.59,197.78-197.81S2498.88,33.13,2389.66,33.13Zm0,49.45A49.45,49.45,0,1,1,2340.21,132h0a49.45,49.45,0,0,1,49.42-49.48h0Zm-98.9,197.81a49.45,49.45,0,1,1,49.45-49.45h0a49.45,49.45,0,0,1-49.46,49.42Zm98.9,98.9a49.45,49.45,0,1,1,49.45-49.45,49.45,49.45,0,0,1-49.45,49.45Zm98.9-98.9A49.45,49.45,0,1,1,2538,230.94a49.45,49.45,0,0,1-49.45,49.45Z"/></g></g><g id="Layer_2-3" data-name="Layer 2"><g id="Layer_1-2-3" data-name="Layer 1-2"><path class="cls-1" d="M230.8,135.56A97.62,97.62,0,0,0,183,148a49.36,49.36,0,0,0,95.6,0A97.62,97.62,0,0,0,230.8,135.56Z"/><path class="cls-1" d="M230.8,333.36A97.62,97.62,0,0,0,278.6,321a49.36,49.36,0,0,0-95.6,0A98.43,98.43,0,0,0,230.8,333.36Z"/><path class="cls-1" d="M329.7,234.46a97.62,97.62,0,0,0-12.4-47.8,49.39,49.39,0,0,0,0,95.7A99.38,99.38,0,0,0,329.7,234.46Z"/><path class="cls-1" d="M144.2,186.56a98.7,98.7,0,0,0,0,95.7,49.39,49.39,0,0,0,0-95.7Z"/><path class="cls-1" d="M230.8,3.66C103.3,3.66,0,107,0,234.46s103.3,230.8,230.8,230.8S461.6,362,461.6,234.46,358.2,3.66,230.8,3.66Zm0,82.4a49.4,49.4,0,1,1-49.4,49.4h0A49.38,49.38,0,0,1,230.8,86.06Zm-98.9,197.8a49.4,49.4,0,1,1,49.4-49.4h0a49.38,49.38,0,0,1-49.4,49.4Zm98.9,98.9a49.45,49.45,0,1,1,49.5-49.5,49.4,49.4,0,0,1-49.5,49.5Zm98.9-98.9a49.45,49.45,0,1,1,49.5-49.5,49.4,49.4,0,0,1-49.5,49.5Z"/><path class="cls-2" d="M230.8,36.66A197.73,197.73,0,0,0,33,234.46c0,109.3,88.6,197.8,197.8,197.8s197.8-88.6,197.8-197.8S340,36.66,230.8,36.66Zm0,49.4a49.4,49.4,0,1,1-49.4,49.4h0a49.31,49.31,0,0,1,49.4-49.4ZM131.9,284a49.4,49.4,0,1,1,49.4-49.4h0A49.51,49.51,0,0,1,131.9,284Zm98.9,98.9a49.45,49.45,0,1,1,49.5-49.5,49.4,49.4,0,0,1-49.5,49.5ZM329.7,284a49.45,49.45,0,1,1,49.5-49.5A49.4,49.4,0,0,1,329.7,284Z"/><path class="cls-3" d="M230.8,135.56A97.62,97.62,0,0,0,183,148a49.36,49.36,0,0,0,95.6,0A97.62,97.62,0,0,0,230.8,135.56Z"/><path class="cls-3" d="M230.8,333.36A97.62,97.62,0,0,0,278.6,321a49.36,49.36,0,0,0-95.6,0A98.43,98.43,0,0,0,230.8,333.36Z"/><path class="cls-3" d="M329.7,234.46a97.62,97.62,0,0,0-12.4-47.8,49.39,49.39,0,0,0,0,95.7A99.38,99.38,0,0,0,329.7,234.46Z"/><path class="cls-3" d="M144.2,186.56a98.7,98.7,0,0,0,0,95.7,49.39,49.39,0,0,0,0-95.7Z"/><path class="cls-3" d="M230.8,3.66C103.3,3.66,0,107,0,234.46s103.3,230.8,230.8,230.8S461.6,362,461.6,234.46,358.2,3.66,230.8,3.66Zm0,82.4a49.4,49.4,0,1,1-49.4,49.4h0A49.38,49.38,0,0,1,230.8,86.06Zm-98.9,197.8a49.4,49.4,0,1,1,49.4-49.4h0a49.38,49.38,0,0,1-49.4,49.4Zm98.9,98.9a49.45,49.45,0,1,1,49.5-49.5,49.4,49.4,0,0,1-49.5,49.5Zm98.9-98.9a49.45,49.45,0,1,1,49.5-49.5,49.4,49.4,0,0,1-49.5,49.5Z"/><path class="cls-2" d="M230.8,36.66A197.73,197.73,0,0,0,33,234.46c0,109.3,88.6,197.8,197.8,197.8s197.8-88.6,197.8-197.8S340,36.66,230.8,36.66Zm0,49.4a49.4,49.4,0,1,1-49.4,49.4h0a49.31,49.31,0,0,1,49.4-49.4ZM131.9,284a49.4,49.4,0,1,1,49.4-49.4h0A49.51,49.51,0,0,1,131.9,284Zm98.9,98.9a49.45,49.45,0,1,1,49.5-49.5,49.4,49.4,0,0,1-49.5,49.5ZM329.7,284a49.45,49.45,0,1,1,49.5-49.5A49.4,49.4,0,0,1,329.7,284Z"/></g></g><g id="Layer_2-4" data-name="Layer 2"><g id="Layer_1-2-4" data-name="Layer 1-2"><path class="cls-1" d="M770.52,132a97.62,97.62,0,0,0-47.8,12.4,49.36,49.36,0,0,0,95.6,0A97.62,97.62,0,0,0,770.52,132Z"/><path class="cls-1" d="M770.52,329.8a97.62,97.62,0,0,0,47.8-12.4,49.36,49.36,0,0,0-95.6,0A98.43,98.43,0,0,0,770.52,329.8Z"/><path class="cls-1" d="M869.42,230.9A97.62,97.62,0,0,0,857,183.1a49.39,49.39,0,0,0,0,95.7A99.38,99.38,0,0,0,869.42,230.9Z"/><path class="cls-1" d="M683.92,183a98.7,98.7,0,0,0,0,95.7,49.39,49.39,0,0,0,0-95.7Z"/><path class="cls-1" d="M770.52.1C643,.1,539.72,103.4,539.72,230.9S643,461.7,770.52,461.7s230.8-103.3,230.8-230.8S897.92.1,770.52.1Zm0,82.4a49.4,49.4,0,1,1-49.4,49.4h0A49.38,49.38,0,0,1,770.52,82.5Zm-98.9,197.8A49.4,49.4,0,1,1,721,230.9h0a49.38,49.38,0,0,1-49.4,49.4Zm98.9,98.9A49.45,49.45,0,1,1,820,329.7a49.4,49.4,0,0,1-49.5,49.5Zm98.9-98.9a49.45,49.45,0,1,1,49.5-49.5,49.4,49.4,0,0,1-49.5,49.5Z"/><path class="cls-2" d="M770.52,33.1a197.73,197.73,0,0,0-197.8,197.8c0,109.3,88.6,197.8,197.8,197.8s197.8-88.6,197.8-197.8S879.72,33.1,770.52,33.1Zm0,49.4a49.4,49.4,0,1,1-49.4,49.4h0a49.31,49.31,0,0,1,49.4-49.4Zm-98.9,197.9A49.4,49.4,0,1,1,721,231h0a49.51,49.51,0,0,1-49.4,49.4Zm98.9,98.9A49.45,49.45,0,1,1,820,329.8a49.4,49.4,0,0,1-49.5,49.5Zm98.9-98.9a49.45,49.45,0,1,1,49.5-49.5,49.4,49.4,0,0,1-49.5,49.5Z"/><path class="cls-3" d="M770.52,132a97.62,97.62,0,0,0-47.8,12.4,49.36,49.36,0,0,0,95.6,0A97.62,97.62,0,0,0,770.52,132Z"/><path class="cls-3" d="M770.52,329.8a97.62,97.62,0,0,0,47.8-12.4,49.36,49.36,0,0,0-95.6,0A98.43,98.43,0,0,0,770.52,329.8Z"/><path class="cls-3" d="M869.42,230.9A97.62,97.62,0,0,0,857,183.1a49.39,49.39,0,0,0,0,95.7A99.38,99.38,0,0,0,869.42,230.9Z"/><path class="cls-3" d="M683.92,183a98.7,98.7,0,0,0,0,95.7,49.39,49.39,0,0,0,0-95.7Z"/><path class="cls-3" d="M770.52.1C643,.1,539.72,103.4,539.72,230.9S643,461.7,770.52,461.7s230.8-103.3,230.8-230.8S897.92.1,770.52.1Zm0,82.4a49.4,49.4,0,1,1-49.4,49.4h0A49.38,49.38,0,0,1,770.52,82.5Zm-98.9,197.8A49.4,49.4,0,1,1,721,230.9h0a49.38,49.38,0,0,1-49.4,49.4Zm98.9,98.9A49.45,49.45,0,1,1,820,329.7a49.4,49.4,0,0,1-49.5,49.5Zm98.9-98.9a49.45,49.45,0,1,1,49.5-49.5,49.4,49.4,0,0,1-49.5,49.5Z"/><path class="cls-2" d="M770.52,33.1a197.73,197.73,0,0,0-197.8,197.8c0,109.3,88.6,197.8,197.8,197.8s197.8-88.6,197.8-197.8S879.72,33.1,770.52,33.1Zm0,49.4a49.4,49.4,0,1,1-49.4,49.4h0a49.31,49.31,0,0,1,49.4-49.4Zm-98.9,197.9A49.4,49.4,0,1,1,721,231h0a49.51,49.51,0,0,1-49.4,49.4Zm98.9,98.9A49.45,49.45,0,1,1,820,329.8a49.4,49.4,0,0,1-49.5,49.5Zm98.9-98.9a49.45,49.45,0,1,1,49.5-49.5,49.4,49.4,0,0,1-49.5,49.5Z"/></g></g><g id="Layer_2-5" data-name="Layer 2"><g id="Layer_1-2-5" data-name="Layer 1-2"><path class="cls-1" d="M1310.22,132a97.62,97.62,0,0,0-47.8,12.4,49.36,49.36,0,0,0,95.6,0A97.62,97.62,0,0,0,1310.22,132Z"/><path class="cls-1" d="M1310.22,329.75a97.62,97.62,0,0,0,47.8-12.4,49.36,49.36,0,0,0-95.6,0A98.43,98.43,0,0,0,1310.22,329.75Z"/><path class="cls-1" d="M1409.12,230.85a97.62,97.62,0,0,0-12.4-47.8,49.39,49.39,0,0,0,0,95.7A99.38,99.38,0,0,0,1409.12,230.85Z"/><path class="cls-1" d="M1223.62,183a98.7,98.7,0,0,0,0,95.7,49.39,49.39,0,0,0,0-95.7Z"/><path class="cls-1" d="M1310.22.05c-127.5,0-230.8,103.3-230.8,230.8s103.3,230.8,230.8,230.8S1541,358.35,1541,230.85,1437.62.05,1310.22.05Zm0,82.4a49.4,49.4,0,1,1-49.4,49.4h0A49.38,49.38,0,0,1,1310.22,82.45Zm-98.9,197.8a49.4,49.4,0,1,1,49.4-49.4h0a49.38,49.38,0,0,1-49.4,49.4Zm98.9,98.9a49.45,49.45,0,1,1,49.5-49.5,49.4,49.4,0,0,1-49.5,49.5Zm98.9-98.9a49.45,49.45,0,1,1,49.5-49.5,49.4,49.4,0,0,1-49.5,49.5Z"/><path class="cls-2" d="M1310.22,33.05a197.73,197.73,0,0,0-197.8,197.8c0,109.3,88.6,197.8,197.8,197.8s197.8-88.6,197.8-197.8S1419.42,33.05,1310.22,33.05Zm0,49.4a49.4,49.4,0,1,1-49.4,49.4h0a49.31,49.31,0,0,1,49.4-49.4Zm-98.9,197.9a49.4,49.4,0,1,1,49.4-49.4h0a49.51,49.51,0,0,1-49.4,49.4Zm98.9,98.9a49.45,49.45,0,1,1,49.5-49.5,49.4,49.4,0,0,1-49.5,49.5Zm98.9-98.9a49.45,49.45,0,1,1,49.5-49.5,49.4,49.4,0,0,1-49.5,49.5Z"/><path class="cls-3" d="M1310.22,132a97.62,97.62,0,0,0-47.8,12.4,49.36,49.36,0,0,0,95.6,0A97.62,97.62,0,0,0,1310.22,132Z"/><path class="cls-3" d="M1310.22,329.75a97.62,97.62,0,0,0,47.8-12.4,49.36,49.36,0,0,0-95.6,0A98.43,98.43,0,0,0,1310.22,329.75Z"/><path class="cls-3" d="M1409.12,230.85a97.62,97.62,0,0,0-12.4-47.8,49.39,49.39,0,0,0,0,95.7A99.38,99.38,0,0,0,1409.12,230.85Z"/><path class="cls-3" d="M1223.62,183a98.7,98.7,0,0,0,0,95.7,49.39,49.39,0,0,0,0-95.7Z"/><path class="cls-3" d="M1310.22.05c-127.5,0-230.8,103.3-230.8,230.8s103.3,230.8,230.8,230.8S1541,358.35,1541,230.85,1437.62.05,1310.22.05Zm0,82.4a49.4,49.4,0,1,1-49.4,49.4h0A49.38,49.38,0,0,1,1310.22,82.45Zm-98.9,197.8a49.4,49.4,0,1,1,49.4-49.4h0a49.38,49.38,0,0,1-49.4,49.4Zm98.9,98.9a49.45,49.45,0,1,1,49.5-49.5,49.4,49.4,0,0,1-49.5,49.5Zm98.9-98.9a49.45,49.45,0,1,1,49.5-49.5,49.4,49.4,0,0,1-49.5,49.5Z"/><path class="cls-2" d="M1310.22,33.05a197.73,197.73,0,0,0-197.8,197.8c0,109.3,88.6,197.8,197.8,197.8s197.8-88.6,197.8-197.8S1419.42,33.05,1310.22,33.05Zm0,49.4a49.4,49.4,0,1,1-49.4,49.4h0a49.31,49.31,0,0,1,49.4-49.4Zm-98.9,197.9a49.4,49.4,0,1,1,49.4-49.4h0a49.51,49.51,0,0,1-49.4,49.4Zm98.9,98.9a49.45,49.45,0,1,1,49.5-49.5,49.4,49.4,0,0,1-49.5,49.5Zm98.9-98.9a49.45,49.45,0,1,1,49.5-49.5,49.4,49.4,0,0,1-49.5,49.5Z"/></g></g><g id="Layer_2-6" data-name="Layer 2"><g id="Layer_1-2-6" data-name="Layer 1-2"><path class="cls-1" d="M1849.92,131.9a97.62,97.62,0,0,0-47.8,12.4,49.36,49.36,0,0,0,95.6,0A97.62,97.62,0,0,0,1849.92,131.9Z"/><path class="cls-1" d="M1849.92,329.7a97.62,97.62,0,0,0,47.8-12.4,49.36,49.36,0,0,0-95.6,0A98.43,98.43,0,0,0,1849.92,329.7Z"/><path class="cls-1" d="M1948.82,230.8a97.62,97.62,0,0,0-12.4-47.8,49.39,49.39,0,0,0,0,95.7A99.38,99.38,0,0,0,1948.82,230.8Z"/><path class="cls-1" d="M1763.32,182.9a98.7,98.7,0,0,0,0,95.7,49.39,49.39,0,0,0,0-95.7Z"/><path class="cls-1" d="M1849.92,0c-127.5,0-230.8,103.3-230.8,230.8s103.3,230.8,230.8,230.8,230.8-103.3,230.8-230.8S1977.32,0,1849.92,0Zm0,82.4a49.4,49.4,0,1,1-49.4,49.4h0A49.38,49.38,0,0,1,1849.92,82.4ZM1751,280.2a49.4,49.4,0,1,1,49.4-49.4h0a49.38,49.38,0,0,1-49.4,49.4Zm98.9,98.9a49.45,49.45,0,1,1,49.5-49.5,49.4,49.4,0,0,1-49.5,49.5Zm98.9-98.9a49.45,49.45,0,1,1,49.5-49.5,49.4,49.4,0,0,1-49.5,49.5Z"/><path class="cls-2" d="M1849.92,33a197.73,197.73,0,0,0-197.8,197.8c0,109.3,88.6,197.8,197.8,197.8s197.8-88.6,197.8-197.8S1959.12,33,1849.92,33Zm0,49.4a49.4,49.4,0,1,1-49.4,49.4h0a49.31,49.31,0,0,1,49.4-49.4ZM1751,280.3a49.4,49.4,0,1,1,49.4-49.4h0a49.51,49.51,0,0,1-49.4,49.4Zm98.9,98.9a49.45,49.45,0,1,1,49.5-49.5,49.4,49.4,0,0,1-49.5,49.5Zm98.9-98.9a49.45,49.45,0,1,1,49.5-49.5,49.4,49.4,0,0,1-49.5,49.5Z"/><path class="cls-3" d="M1849.92,131.9a97.62,97.62,0,0,0-47.8,12.4,49.36,49.36,0,0,0,95.6,0A97.62,97.62,0,0,0,1849.92,131.9Z"/><path class="cls-3" d="M1849.92,329.7a97.62,97.62,0,0,0,47.8-12.4,49.36,49.36,0,0,0-95.6,0A98.43,98.43,0,0,0,1849.92,329.7Z"/><path class="cls-3" d="M1948.82,230.8a97.62,97.62,0,0,0-12.4-47.8,49.39,49.39,0,0,0,0,95.7A99.38,99.38,0,0,0,1948.82,230.8Z"/><path class="cls-3" d="M1763.32,182.9a98.7,98.7,0,0,0,0,95.7,49.39,49.39,0,0,0,0-95.7Z"/><path class="cls-3" d="M1849.92,0c-127.5,0-230.8,103.3-230.8,230.8s103.3,230.8,230.8,230.8,230.8-103.3,230.8-230.8S1977.32,0,1849.92,0Zm0,82.4a49.4,49.4,0,1,1-49.4,49.4h0A49.38,49.38,0,0,1,1849.92,82.4ZM1751,280.2a49.4,49.4,0,1,1,49.4-49.4h0a49.38,49.38,0,0,1-49.4,49.4Zm98.9,98.9a49.45,49.45,0,1,1,49.5-49.5,49.4,49.4,0,0,1-49.5,49.5Zm98.9-98.9a49.45,49.45,0,1,1,49.5-49.5,49.4,49.4,0,0,1-49.5,49.5Z"/><path class="cls-2" d="M1849.92,33a197.73,197.73,0,0,0-197.8,197.8c0,109.3,88.6,197.8,197.8,197.8s197.8-88.6,197.8-197.8S1959.12,33,1849.92,33Zm0,49.4a49.4,49.4,0,1,1-49.4,49.4h0a49.31,49.31,0,0,1,49.4-49.4ZM1751,280.3a49.4,49.4,0,1,1,49.4-49.4h0a49.51,49.51,0,0,1-49.4,49.4Zm98.9,98.9a49.45,49.45,0,1,1,49.5-49.5,49.4,49.4,0,0,1-49.5,49.5Zm98.9-98.9a49.45,49.45,0,1,1,49.5-49.5,49.4,49.4,0,0,1-49.5,49.5Z"/></g></g></g></g></svg>