<?xml version="1.0" encoding="utf-8"?>
<!-- Generator: Adobe Illustrator 21.1.0, SVG Export Plug-In . SVG Version: 6.00 Build 0)  -->
<svg version="1.1" id="Capa_1" xmlns="http://www.w3.org/2000/svg" xmlns:xlink="http://www.w3.org/1999/xlink" x="0px" y="0px"
	 viewBox="0 0 468.8 468.8" style="enable-background:new 0 0 468.8 468.8;" xml:space="preserve">
<style type="text/css">
	.st0{fill:#145654;}
</style>
<g>
	<g>
		<g>
			<path class="st0" d="M234.4,0C104.9,0,0,104.9,0,234.4s104.9,234.4,234.4,234.4s234.4-104.9,234.4-234.4
				C468.8,104.9,363.8,0,234.4,0z M380.9,370.3c0,5.8-4.7,10.6-10.6,10.6H98.5c-5.8,0-10.6-4.7-10.6-10.6V98.5
				c0-5.8,4.7-10.6,10.6-10.6h271.8c5.8,0,10.6,4.7,10.6,10.6C380.9,98.5,380.9,370.3,380.9,370.3z M175.8,234.4
				c0-32.4,26.3-58.6,58.6-58.6S293,202,293,234.4S266.8,293,234.4,293S175.8,266.8,175.8,234.4z M293,117.2h58.6v58.6H293V117.2z
				 M319.6,219.7h32v131.8H117.2V219.7h32c-1.2,5.9-2,8.4-2,14.7c0,48.1,39.1,87.2,87.2,87.2c48.1,0,87.2-39.1,87.2-87.2
				C321.6,228.2,320.9,225.6,319.6,219.7z"/>
		</g>
	</g>
</g>
</svg>
