<?xml version="1.0" encoding="iso-8859-1"?>
<!-- Generator: Adobe Illustrator 19.0.0, SVG Export Plug-In . SVG Version: 6.00 Build 0)  -->
<svg version="1.1" id="Layer_1" xmlns="http://www.w3.org/2000/svg" xmlns:xlink="http://www.w3.org/1999/xlink" x="0px" y="0px"
	 viewBox="0 0 512 512" style="enable-background:new 0 0 512 512;" xml:space="preserve">
<g>
	<g>
		<g>
			<path d="M256,0C114.848,0,0,114.848,0,256s114.848,256,256,256s256-114.848,256-256S397.152,0,256,0z M256,490.667
				C126.603,490.667,21.333,385.397,21.333,256S126.603,21.333,256,21.333S490.667,126.603,490.667,256S385.397,490.667,256,490.667
				z"/>
			<path d="M389.216,248.107l-115.371-104.8c-4.357-3.965-11.104-3.646-15.068,0.711c-1.788,1.965-2.778,4.526-2.777,7.182v50.133
				l-90.155-59.051c-4.928-3.228-11.539-1.851-14.768,3.077c-1.137,1.736-1.743,3.765-1.744,5.84v209.6
				c-0.003,5.891,4.77,10.669,10.661,10.672c2.079,0.001,4.112-0.605,5.851-1.744L256,310.677v50.133
				c-0.002,5.891,4.772,10.668,10.663,10.671c2.656,0.001,5.218-0.989,7.182-2.777l115.371-104.811
				c4.359-3.962,4.681-10.708,0.719-15.068C389.707,248.575,389.467,248.335,389.216,248.107z M277.333,336.693v-45.76
				c0.003-5.891-4.77-10.669-10.661-10.672c-2.079-0.001-4.112,0.605-5.851,1.744l-90.155,59.061V170.933l90.155,59.051
				c4.928,3.228,11.539,1.851,14.768-3.077c1.137-1.736,1.743-3.765,1.744-5.84v-45.76L366.176,256L277.333,336.693z"/>
		</g>
	</g>
</g>
<g>
</g>
<g>
</g>
<g>
</g>
<g>
</g>
<g>
</g>
<g>
</g>
<g>
</g>
<g>
</g>
<g>
</g>
<g>
</g>
<g>
</g>
<g>
</g>
<g>
</g>
<g>
</g>
<g>
</g>
</svg>
