<?xml version="1.0" encoding="utf-8"?>
<!-- Generator: Adobe Illustrator 21.1.0, SVG Export Plug-In . SVG Version: 6.00 Build 0)  -->
<svg version="1.1" id="Capa_1" xmlns="http://www.w3.org/2000/svg" xmlns:xlink="http://www.w3.org/1999/xlink" x="0px" y="0px"
	 viewBox="0 0 508.5 508.5" style="enable-background:new 0 0 508.5 508.5;" xml:space="preserve">
<style type="text/css">
	.st0{fill:#145654;}
</style>
<g>
	<g>
		<path class="st0" d="M254.3,0C113.8,0,0,113.8,0,254.3s113.8,254.3,254.3,254.3s254.3-113.8,254.3-254.3
			C508.5,113.8,394.7,0,254.3,0z M405.3,185.1c-17.1,96-112.3,177.4-141,195.9c-28.7,18.6-54.8-7.4-64.3-27.1
			c-10.8-22.4-43.4-144-51.9-154.1c-8.5-10.1-34.1,10.1-34.1,10.1l-12.4-16.2c0,0,51.9-61.9,91.4-69.7
			c41.9-8.2,41.8,64.3,51.9,104.5c9.8,38.9,16.3,61.2,24.8,61.2c8.5,0,24.8-21.7,42.6-55c17.9-33.3-0.8-62.7-35.6-41.8
			C290.7,109.2,422.3,89.1,405.3,185.1z"/>
	</g>
</g>
</svg>
