<?xml version="1.0" encoding="iso-8859-1"?>
<!-- Generator: Adobe Illustrator 19.0.0, SVG Export Plug-In . SVG Version: 6.00 Build 0)  -->
<svg version="1.1" id="Layer_1" xmlns="http://www.w3.org/2000/svg" xmlns:xlink="http://www.w3.org/1999/xlink" x="0px" y="0px"
	 viewBox="0 0 512 512" style="enable-background:new 0 0 512 512;" xml:space="preserve">
<g>
	<g>
		<g>
			<path d="M256,0C114.848,0,0,114.848,0,256s114.848,256,256,256s256-114.848,256-256S397.152,0,256,0z M256,490.667
				C126.603,490.667,21.333,385.397,21.333,256S126.603,21.333,256,21.333S490.667,126.603,490.667,256S385.397,490.667,256,490.667
				z"/>
			<path d="M335.723,151.467c-3.459-1.858-7.659-1.665-10.933,0.501l-79.456,52.469v-43.605
				c-0.004-5.891-4.783-10.663-10.674-10.659c-2.473,0.002-4.868,0.863-6.777,2.435l-115.477,95.168
				c-4.545,3.748-5.191,10.471-1.443,15.016c0.434,0.526,0.917,1.009,1.443,1.443l115.477,95.168
				c4.546,3.747,11.269,3.099,15.015-1.447c1.575-1.911,2.436-4.311,2.435-6.787v-43.605l79.456,52.501
				c4.916,3.246,11.533,1.892,14.779-3.024c1.15-1.742,1.764-3.784,1.765-5.872V160.832
				C341.323,156.917,339.17,153.322,335.723,151.467z M320,331.339l-79.456-52.501c-4.916-3.246-11.533-1.892-14.779,3.024
				c-1.15,1.742-1.764,3.784-1.765,5.872v40.8L135.957,256L224,183.467v40.821c0.003,5.891,4.781,10.664,10.672,10.661
				c2.088-0.001,4.13-0.615,5.872-1.765L320,180.672V331.339z"/>
		</g>
	</g>
</g>
<g>
</g>
<g>
</g>
<g>
</g>
<g>
</g>
<g>
</g>
<g>
</g>
<g>
</g>
<g>
</g>
<g>
</g>
<g>
</g>
<g>
</g>
<g>
</g>
<g>
</g>
<g>
</g>
<g>
</g>
</svg>
