<?xml version="1.0" encoding="iso-8859-1"?>
<!-- Generator: Adobe Illustrator 19.0.0, SVG Export Plug-In . SVG Version: 6.00 Build 0)  -->
<svg version="1.1" id="Layer_1" xmlns="http://www.w3.org/2000/svg" xmlns:xlink="http://www.w3.org/1999/xlink" x="0px" y="0px"
	 viewBox="0 0 512 512" style="enable-background:new 0 0 512 512;" xml:space="preserve">
<g>
	<g>
		<path d="M256,0C114.848,0,0,114.848,0,256s114.848,256,256,256s256-114.848,256-256S397.152,0,256,0z M256,490.667
			C126.603,490.667,21.333,385.397,21.333,256S126.603,21.333,256,21.333S490.667,126.603,490.667,256S385.397,490.667,256,490.667z
			"/>
	</g>
</g>
<g>
	<g>
		<path d="M352,149.333H160c-5.891,0-10.667,4.776-10.667,10.667v192c0,5.891,4.776,10.667,10.667,10.667h192
			c5.891,0,10.667-4.776,10.667-10.667V160C362.667,154.109,357.891,149.333,352,149.333z M341.333,341.333H170.667V170.667h170.667
			V341.333z"/>
	</g>
</g>
<g>
</g>
<g>
</g>
<g>
</g>
<g>
</g>
<g>
</g>
<g>
</g>
<g>
</g>
<g>
</g>
<g>
</g>
<g>
</g>
<g>
</g>
<g>
</g>
<g>
</g>
<g>
</g>
<g>
</g>
</svg>
