<?xml version="1.0" encoding="iso-8859-1"?>
<!-- Generator: Adobe Illustrator 19.0.0, SVG Export Plug-In . SVG Version: 6.00 Build 0)  -->
<svg version="1.1" id="Layer_1" xmlns="http://www.w3.org/2000/svg" xmlns:xlink="http://www.w3.org/1999/xlink" x="0px" y="0px"
	 viewBox="0 0 490.667 490.667" style="enable-background:new 0 0 490.667 490.667;" xml:space="preserve">
<g>
	<g>
		<g>
			<path d="M250.667,426.667c-5.867,0-10.667,4.8-10.667,10.667V480c0,5.867,4.8,10.667,10.667,10.667
				c5.867,0,10.667-4.8,10.667-10.667v-42.667C261.333,431.467,256.533,426.667,250.667,426.667z"/>
			<path d="M464,256h-42.667c-5.867,0-10.667,4.8-10.667,10.667c0,5.867,4.8,10.667,10.667,10.667H464
				c5.867,0,10.667-4.8,10.667-10.667C474.667,260.8,469.867,256,464,256z"/>
			<path d="M250.667,0C244.8,0,240,4.8,240,10.667V96c0,5.867,4.8,10.667,10.667,10.667c5.867,0,10.667-4.8,10.667-10.667V10.667
				C261.333,4.8,256.533,0,250.667,0z"/>
			<path d="M180.8,417.067c-5.227-2.667-11.627-0.533-14.293,4.8l-21.333,42.667c-2.667,5.227-0.533,11.627,4.8,14.293
				c5.227,2.667,11.627,0.533,14.293-4.8L185.6,431.36C188.16,426.133,186.027,419.733,180.8,417.067z"/>
			<path d="M324.267,421.867c-2.667-5.227-9.067-7.36-14.293-4.8c-5.227,2.56-7.36,9.067-4.8,14.293l21.333,42.667
				c2.667,5.227,9.067,7.36,14.293,4.8c5.227-2.56,7.36-9.067,4.8-14.293L324.267,421.867z"/>
			<path d="M69.333,277.333c5.867,0,10.667-4.8,10.667-10.667C80,260.8,75.2,256,69.333,256H26.667C20.8,256,16,260.8,16,266.667
				c0,5.867,4.8,10.667,10.667,10.667H69.333z"/>
			<path d="M401.067,207.467c2.667,5.227,9.067,7.467,14.293,4.8l42.667-21.333c5.227-2.667,7.36-9.067,4.693-14.293
				c-2.667-5.227-9.067-7.36-14.293-4.693L405.76,193.28C400.64,195.733,398.507,202.133,401.067,207.467z"/>
			<path d="M89.493,325.867c-2.667-5.227-9.067-7.467-14.293-4.8L32.533,342.4c-5.227,2.667-7.36,9.067-4.8,14.4
				c2.56,5.333,9.067,7.36,14.4,4.8L84.8,340.267C90.027,337.6,92.16,331.2,89.493,325.867z"/>
			<path d="M375.573,387.093c-4.267-4.053-10.987-3.947-15.04,0.213c-3.947,4.16-3.947,10.667,0,14.827l32,32
				c4.267,4.053,10.987,3.947,15.04-0.213c3.947-4.16,3.947-10.667,0-14.827L375.573,387.093z"/>
			<path d="M368,149.333c2.88,0,5.547-1.173,7.573-3.093l32-32c4.053-4.267,3.947-10.987-0.213-15.04
				c-4.16-3.947-10.667-3.947-14.827,0l-32,32c-4.16,4.16-4.16,10.88,0,15.04C362.453,148.16,365.12,149.333,368,149.333z"/>
			<path d="M340.8,54.4c-5.227-2.667-11.627-0.533-14.293,4.8l-21.333,42.667c-2.667,5.227-0.533,11.627,4.8,14.293
				c5.333,2.667,11.627,0.533,14.293-4.8L345.6,68.693C348.16,63.467,346.027,57.067,340.8,54.4z"/>
			<path d="M174.827,59.2c-2.667-5.227-9.067-7.36-14.293-4.8s-7.36,9.067-4.8,14.293l21.333,42.667
				c2.667,5.227,9.067,7.36,14.293,4.8s7.36-9.067,4.8-14.293L174.827,59.2z"/>
			<path d="M98.24,99.093c-4.267-4.053-10.987-3.947-15.04,0.213c-3.947,4.16-3.947,10.667,0,14.827l32,32
				c4.267,4.053,10.987,3.947,15.04-0.213c3.947-4.16,3.947-10.667,0-14.827L98.24,99.093z"/>
			<path d="M115.093,387.093l-32,32c-4.267,4.053-4.373,10.88-0.213,15.04c4.16,4.16,10.88,4.373,15.04,0.213
				c0.107-0.107,0.213-0.213,0.213-0.213l32-32c4.053-4.267,3.947-10.987-0.213-15.04
				C125.76,383.147,119.253,383.147,115.093,387.093z"/>
			<path d="M458.133,342.4l-42.667-21.333c-5.227-2.667-11.733-0.533-14.4,4.8c-2.667,5.333-0.533,11.733,4.8,14.4l42.667,21.333
				c5.227,2.667,11.733,0.533,14.4-4.8C465.6,351.467,463.36,345.067,458.133,342.4z"/>
			<path d="M32.533,190.827L75.2,212.16c5.227,2.667,11.733,0.533,14.293-4.693c2.56-5.227,0.533-11.733-4.693-14.293L42.133,171.84
				c-5.227-2.667-11.733-0.533-14.293,4.693S27.307,188.267,32.533,190.827z"/>
		</g>
	</g>
</g>
<g>
</g>
<g>
</g>
<g>
</g>
<g>
</g>
<g>
</g>
<g>
</g>
<g>
</g>
<g>
</g>
<g>
</g>
<g>
</g>
<g>
</g>
<g>
</g>
<g>
</g>
<g>
</g>
<g>
</g>
</svg>
