<?xml version="1.0" encoding="iso-8859-1"?>
<!-- Generator: Adobe Illustrator 19.0.0, SVG Export Plug-In . SVG Version: 6.00 Build 0)  -->
<svg version="1.1" id="Layer_1" xmlns="http://www.w3.org/2000/svg" xmlns:xlink="http://www.w3.org/1999/xlink" x="0px" y="0px"
	 viewBox="0 0 512 512" style="enable-background:new 0 0 512 512;" xml:space="preserve">
<g>
	<g>
		<g>
			<path d="M355.413,173.867L202.88,316.16l-46.08-46.08c-4.053-4.267-10.88-4.373-15.04-0.213
				c-4.267,4.053-4.373,10.88-0.213,15.04c0.107,0.107,0.213,0.213,0.213,0.213l53.333,53.333c4.053,4.053,10.667,4.16,14.827,0.213
				l160-149.333c4.267-4.053,4.587-10.773,0.533-15.04C366.4,170.027,359.68,169.813,355.413,173.867z"/>
			<path d="M256,0C114.88,0,0,114.88,0,256s114.88,256,256,256s256-114.88,256-256S397.12,0,256,0z M256,490.667
				c-129.387,0-234.667-105.28-234.667-234.667S126.613,21.333,256,21.333S490.667,126.613,490.667,256S385.387,490.667,256,490.667
				z"/>
		</g>
	</g>
</g>
<g>
</g>
<g>
</g>
<g>
</g>
<g>
</g>
<g>
</g>
<g>
</g>
<g>
</g>
<g>
</g>
<g>
</g>
<g>
</g>
<g>
</g>
<g>
</g>
<g>
</g>
<g>
</g>
<g>
</g>
</svg>
