<?xml version="1.0" encoding="utf-8"?>
<!-- Generator: Adobe Illustrator 21.1.0, SVG Export Plug-In . SVG Version: 6.00 Build 0)  -->
<svg version="1.1" id="Capa_1" xmlns="http://www.w3.org/2000/svg" xmlns:xlink="http://www.w3.org/1999/xlink" x="0px" y="0px"
	 viewBox="0 0 399 399" style="enable-background:new 0 0 399 399;" xml:space="preserve">
<style type="text/css">
	.st0{fill:#961F1E;}
</style>
<g id="_x33_8-Award_symbol">
	<g>
		<path class="st0" d="M398.6,207.1c-0.3-0.2-0.6-0.3-0.9-0.2s-0.7,0.2-1,0.3h-0.1c-0.7,0.2-1.4,0.4-2,0.7
			c-10,4-17.9,10.8-24.1,20.9c-1.5,2.5-2.7,5.1-3.7,7.6c1.6-8.7,1.9-12,2.2-21.7c0-0.4,0-0.8,0-1.2c0-1.1,0-2.2,0.2-3.1
			c0.3-1.1,0.9-2.3,1.5-3.4c0.2-0.3,0.3-0.6,0.5-0.9c0-0.1,0.2-0.1,0.3-0.2c2.9-0.4,5.4-1.7,7.8-3.7c2.4-2.1,4.3-4.7,5.8-7.6
			c5.3-10.6,7.9-22.4,7.9-34.9c0-1.2-0.1-2.4-0.3-3.7c-0.1-0.6-0.1-1.2-0.2-1.8c0-0.3-0.2-0.6-0.5-0.8c-0.3-0.1-0.6-0.1-0.9,0
			c-0.2,0.1-0.3,0.2-0.5,0.3c-0.3,0.2-0.5,0.3-0.7,0.4c-4.5,3.2-8.5,7.3-11.8,12c-5.5,7.7-8.6,16.4-9.5,26c-0.1-1.1-0.2-2.1-0.3-3.2
			v-0.4c-0.3-4.2-0.7-8.5-1-12.8c-0.1-1.1-0.3-2.1-0.5-3.1c-0.4-1.9-0.8-3.8-0.2-5.7c0.1-0.4,0.2-0.9,0.4-1.3
			c0.3-1.1,1.6-2.8,3.7-4.6l0.1-0.1c0.8-0.6,4.6-4.2,6.8-11.2c2.2-7.1,2.1-14.6,1.9-20v-0.1c-0.2-7.5-1-13.1-2.6-18.3
			c-0.2-0.7-0.5-1.3-0.7-2c-0.1-0.4-0.3-0.7-0.4-1.1c-0.1-0.3-0.4-0.6-0.7-0.6h-0.2c-0.3,0-0.6,0.1-0.8,0.4l-1.6,2
			c-7.7,9.4-11.4,20.3-11.2,32.6c0,2.2,0.2,4.4,0.5,6.7c-2-6.7-4.2-13.3-6.8-19.6c-0.1-0.1-0.1-0.3-0.1-0.5v-0.9
			c0-1.2-0.1-2.5,0-3.8c0-0.2,0.1-0.6,0.4-1c0.4-0.5,0.8-1.1,1.3-1.6c0.8-0.9,1.6-1.9,2.2-2.9c2.1-3.5,3-7.6,3.1-12.9
			c0-6.3-0.9-12.9-3.1-20.8c-1.2-4.3-2.9-9.9-6.1-15c-0.2-0.3-0.5-0.7-0.7-1c-0.1-0.2-0.2-0.3-0.4-0.5c-0.2-0.2-0.4-0.4-0.8-0.4
			c-0.3,0-0.6,0.2-0.8,0.5c-4.1,7.3-6.1,15.2-6.2,24c-0.1,7.3,1.1,13.7,2.5,18.6c-3.7-6.7-7.7-13.1-12.1-19.3l-0.1-0.1
			c-0.1-0.1-0.1-0.2-0.1-0.2c-0.3-2-0.5-3.6-0.6-4.9c0,0,0-0.1,0.2-0.5c0.3-0.5,0.6-1,0.9-1.5c0.7-1,1.4-2.1,1.8-3.3
			c1.4-3.6,1.7-7.7,0.9-12.5c-1.6-10.7-6.3-20.3-14.4-29.3c-0.8-0.9-1.7-1.8-2.7-2.6l-0.3-0.2c-0.4-0.3-0.8-0.7-1.2-1.1
			c-0.3-0.2-0.6-0.3-1-0.2c-0.3,0.1-0.6,0.4-0.7,0.7l-0.2,0.8c-0.1,0.5-0.2,0.9-0.3,1.3c-1.1,6.5-1,13.4,0.2,21.2
			c1.2,7.7,3.7,14.4,7.5,20.2c-5.7-6.7-11.2-12.3-17-17.3c0,0-0.1-0.1-0.1-0.2c0.5-3.9-0.5-7.5-2.9-11.2c-3.2-4.8-7.6-8.4-13.1-10.8
			c-3.3-1.4-6.8-2.7-10.1-4c-1.6-0.6-3.2-1.2-4.9-1.8c-1.7-0.7-2.4-0.8-2.8-0.4c-0.5,0.5-0.4,0.9-0.2,1.6l0.1,0.2
			c2,6.8,4.7,12.3,8.3,16.6c6.5,7.9,14,11.9,23.1,12.3c0.3,0,0.6,0.1,0.7,0.2c1.3,1,2.2,1.7,3,2.5c2.6,2.4,5.2,5,7.7,7.7
			c-3.8-2.3-8.4-3.4-13.6-3.1c-2.8,0.1-5.7,0.6-8.4,1h-0.1c-0.8,0.1-1.6,0.2-2.4,0.3c-1.8,0.2-3.5,0.5-5.1,0.8
			c-0.6,0.1-2.1,0.5-2.5,1.2c-0.1,0.3-0.1,0.5,0,0.8c0.1,0.2,0.3,0.4,0.4,0.6c4.5,5.8,9.6,9.7,15.7,11.7c7.4,2.5,14.2,2.3,20.3-0.7
			c0.9-0.5,2.1-0.8,3.3-0.8c1,0,1.7,0.2,1.9,0.2c0.4,0.1,0.9,0.3,1,0.4c3.8,5,7.4,10.3,10.7,15.9c-2.8-2.8-6.5-4.6-11.6-5.8
			c-4.4-1.1-8.9-1.3-13.3-1.5l-1.5-0.1c-1.4-0.1-2.7-0.2-4.2-0.2l-2.4-0.1c-0.3,0-0.6,0.1-0.8,0.4c-0.2,0.3-0.2,0.6-0.1,0.9
			s0.3,0.7,0.4,0.9c4.6,7.7,10,13,16.5,16.3c6.4,3.2,12.1,4,17.9,2.6c0.7-0.2,1.5-0.2,2.3-0.2c2.5,0,4.2,0.8,4.6,1.5
			c3.2,6.6,6,13.4,8.5,20.4c-2.6-3.6-6.2-6.4-10.8-8.6c-4.5-2.1-9.3-4.1-13.9-6c-2-0.8-4-1.7-6-2.5c-0.3-0.1-0.6-0.1-0.9,0.1
			s-0.4,0.5-0.4,0.8c0,0.6,6.6,19,16.3,26.3c3.9,3,8.8,6,14.9,6.1c1.8,0,3.7,0.3,5.1,1.9c0.2,0.3,0.5,0.5,0.8,0.6
			c0.5,0.2,0.6,0.5,0.9,1.5c2,8.3,3.4,16.8,4.3,25.5c-0.3-0.9-0.6-1.8-0.9-2.7c-2.2-5.5-5.8-10.2-11.4-15.1
			c-2.9-2.5-5.9-4.9-8.9-7.2l-0.1-0.1c-1.3-1.1-2.7-2.1-4-3.2c-0.3-0.2-0.5-0.4-0.9-0.7l-0.8-0.7c-0.3-0.2-0.7-0.3-1.1-0.1
			c-0.3,0.2-0.6,0.5-0.5,0.9c0,0.6,0.1,1.1,0.1,1.7v0.2c0.1,1.1,0.1,2.1,0.2,3.2c1,10,4,18.3,9,25.4c3.1,4.4,7.6,9.8,14.6,12.4
			c1.7,0.6,2.9,1.6,4.3,3.3c1.2,1.6,1.5,3,1.5,4.9c-0.1,7.6-0.7,15.2-1.6,22.7c-0.2-2.1-0.7-4.2-1.4-6.4c-1.5-4.6-3.9-9-7.2-13.6
			c-2.9-4-5.9-7.9-8.8-11.8l-0.2-0.3c-1.1-1.5-2.3-3.1-3.4-4.5c-0.2-0.3-0.5-0.4-0.7-0.5s-0.5-0.1-0.8,0s-0.5,0.3-0.5,0.6v0.1
			c0,0.1-0.1,0.3-0.1,0.4c-2,11.9-0.8,22.6,3.8,32.7c2.2,4.9,5.2,10.5,10.4,14.5c2.4,1.8,4.3,4.4,5.3,7.2c0.2,0.6,0.2,0.9,0.2,1
			c-2.2,9.2-5.1,18-8.6,26.4c0.9-4.4,0.8-9-0.2-13.8c-1.5-6.8-4-13.4-6.2-19l-0.7-1.7c-1.1-2.6-2.1-5.3-3.2-8.1
			c-0.1-0.4-0.5-0.6-0.9-0.6s-0.7,0.2-0.8,0.5l-0.4,0.7c-0.2,0.3-0.3,0.6-0.4,0.8c-4.5,10.2-6,20.6-4.5,31.1
			c1.1,7.4,2.9,12.8,5.9,17.3c1.6,2.3,3.1,4.9,3.3,8.1c0.1,0.8,0,1.3-0.3,1.9c-3.8,6.7-8.1,13-12.8,18.8c0,0,0-0.1,0.1-0.1
			c3.4-6.2,3.5-12.8,3.1-18.5c-0.3-4.9-0.9-9.8-1.4-14.5v-0.3c-0.2-1.9-0.4-3.8-0.6-5.7c-0.1-1.1-0.2-2.1-0.4-3.2l-0.2-1.5
			c0-0.3-0.2-0.6-0.5-0.8c-0.5-0.3-1.4,0.2-2.3,1.3c-6.4,7.6-10.4,16.1-11.8,25.4c-1.5,9.6-0.7,17.9,2.5,25.2
			c0.1,0.2,0.1,0.6,0.1,0.7l-0.2,4.2c0,0.3-0.2,0.6-0.3,0.8c-6.4,6.1-13.4,11.5-20.9,15.9c3.6-3.2,6.1-7.4,7.8-12.8
			c1.8-5.9,2.8-12.1,3.7-18l0.1-0.5c0.3-2.1,0.7-4.2,1-6.3l0.4-2.4c0.1-0.4-0.1-0.7-0.4-0.9c-0.3-0.2-0.7-0.3-1-0.1l-0.3,0.1
			c-0.4,0.1-0.7,0.3-1,0.4c-14.3,7.1-23.6,23.7-22.3,39.5c0.2,2.5,0,4.8-0.7,7.1c-0.1,0.2-0.3,0.4-0.3,0.5
			c-6.8,2.9-13.2,4.9-19.7,6.4c-0.3,0.1-0.6,0.3-0.7,0.6c-0.1,0.3,0,0.7,0.2,0.9c0.7,0.8,1.3,1.7,1.8,2.7c0.2,0.4,0.7,0.6,1.1,0.5
			c5.3-1.2,10.4-2.8,15.3-4.6c0.4-0.2,0.7-0.2,1-0.2c1.1,0.1,2.2,0.4,3.5,0.7c0.3,0.1,0.5,0.2,0.5,0.2c2.8,5.5,7.5,9,14.6,10.8
			c1.5,0.4,3.1,0.6,4.7,0.8c1.7,0.2,3.5,0.3,5.5,0.3c2.8,0,4.7-0.2,4.7-0.2c6.1-0.7,11.3-2.1,15.9-4.2c1.9-0.9,4-2.1,5.7-4.2
			c0.3-0.4,0.3-1-0.1-1.3c-4.7-4.1-9.5-7.1-14.6-9.2c-7.6-3-14.5-3.8-21.3-2.5c-1,0.2-2,0.4-3,0.7c6.3-3.8,12.4-8.3,18.2-13.3
			c0.1-0.1,0.3-0.2,0.4-0.2c0.9-0.2,2.2-0.3,3.5-0.4c0.1,0,0.3,0.1,0.3,0.1c3.5,3.9,7.9,5.8,13.6,5.8c0.3,0,0.6,0,0.9,0
			c6.2-0.2,12.4-1.9,18.5-5.1c4.4-2.3,9.1-5,12.8-9c0.8-0.9,1.6-1.9,2.2-2.8l0.1-0.1c0.3-0.4,0.6-0.8,0.9-1.2
			c0.2-0.2,0.2-0.5,0.2-0.8s-0.2-0.5-0.5-0.7c-0.1,0-1.7-0.9-3.1-1.4c-9.7-3.7-19.5-4.1-28.8-1.1c-3.1,1-5.9,2.5-8.7,4.5
			c5.2-6,10-12.6,14.3-19.7c0-0.1,0.2-0.3,0.2-0.3c0.4-0.2,0.8-0.5,1.2-0.7c0.7-0.4,1.4-0.8,2.1-1.3c0.6-0.4,0.7-0.4,1.3-0.1
			c0.8,0.5,1.8,0.8,2.6,1c4.9,1.2,9.7,0.6,15.1-1.9c4.9-2.3,8.7-6,12.1-9.6c4.9-5.3,8.1-10,10.1-15c0.4-1,0.7-2.1,1-3.2
			c0.1-0.5,0.3-0.9,0.4-1.4c0.2-0.5-0.1-1-0.6-1.2h-0.4c-2,0-19.8,0.3-30.3,10.4c-2.3,2.2-4.3,4.5-6.2,7.1
			c4.1-8.7,7.6-17.9,10.4-27.5v-0.1c0-0.1,0.1-0.3,0.1-0.3l2.7-3.7c0.1-0.1,0.1-0.1,0.3-0.1c0.1,0,0.1,0,0.2,0h0.6
			c2,0.1,3.2,0.1,4.2,0c3.9-0.6,7.4-2.6,10.7-6c7.8-8,13.1-17.9,16.4-30.4c0.3-1.3,0.4-2.7,0.5-4.1c0-0.6,0.1-1.3,0.2-2
			C399,207.6,398.9,207.3,398.6,207.1z"/>
		<path class="st0" d="M134.6,352.4c-6.5-1.4-12.9-3.5-19.7-6.4c-0.1,0-0.3-0.3-0.3-0.5c-0.7-2.3-0.9-4.6-0.7-7.1
			c1.3-15.8-8.1-32.4-22.3-39.5c-0.3-0.2-0.6-0.3-1-0.4l-0.3-0.1c-0.3-0.1-0.7-0.1-1,0.1s-0.4,0.6-0.4,0.9l0.4,2.4
			c0.3,2.1,0.7,4.2,1,6.3l0.1,0.5c0.9,6,1.9,12.1,3.7,18c1.7,5.3,4.2,9.5,7.8,12.8c-7.5-4.4-14.6-9.8-20.9-15.9
			c-0.1-0.1-0.3-0.5-0.3-0.8l-0.2-4.2c0-0.1,0-0.5,0.1-0.7c3.1-7.3,3.9-15.6,2.5-25.2c-1.4-9.3-5.4-17.8-11.8-25.4
			c-0.7-0.9-1.4-1.3-2-1.3c-0.1,0-0.3,0-0.4,0.1c-0.3,0.1-0.5,0.4-0.5,0.8l-0.2,1.5c-0.1,1.1-0.3,2.2-0.4,3.2
			c-0.2,1.9-0.4,3.8-0.6,5.7v0.3c-0.5,4.7-1.1,9.6-1.4,14.5c-0.3,5.7-0.2,12.4,3.1,18.5c0,0,0,0.1,0.1,0.1
			c-4.7-5.9-9-12.2-12.8-18.8c-0.3-0.6-0.4-1.1-0.3-1.9c0.3-3.2,1.8-5.8,3.3-8.1c3-4.5,4.9-9.8,5.9-17.3c1.5-10.4,0-20.9-4.5-31.1
			c-0.1-0.3-0.3-0.6-0.4-0.8l-0.4-0.7c-0.2-0.3-0.5-0.5-0.9-0.5s-0.7,0.3-0.9,0.6c-1.1,2.8-2.2,5.4-3.2,8.1l-0.7,1.7
			c-2.2,5.6-4.8,12.2-6.2,19c-1,4.8-1.1,9.4-0.2,13.8c-3.5-8.4-6.4-17.2-8.6-26.4c0-0.1,0-0.4,0.2-1c1-2.8,2.9-5.4,5.3-7.2
			c5.2-4,8.2-9.6,10.4-14.5c4.5-10.1,5.8-20.7,3.8-32.7c0-0.1-0.1-0.2-0.1-0.4v-0.1c-0.1-0.3-0.3-0.5-0.5-0.6
			c-0.3-0.1-0.6-0.1-0.8,0s-0.5,0.2-0.7,0.5c-1.1,1.5-2.3,3-3.4,4.6l-0.2,0.3c-2.9,3.9-5.9,7.8-8.8,11.8c-3.3,4.6-5.7,9-7.2,13.6
			c-0.7,2.2-1.2,4.3-1.4,6.4c-1-7.4-1.5-15-1.6-22.7c0-1.8,0.2-3.3,1.5-4.9c1.3-1.7,2.6-2.6,4.3-3.3c7-2.6,11.5-7.9,14.6-12.4
			c5-7.1,8-15.4,9-25.4c0.1-1,0.2-2.1,0.2-3.2v-0.2c0-0.5,0.1-1.1,0.1-1.7c0-0.4-0.2-0.8-0.5-0.9c-0.3-0.2-0.8-0.1-1.1,0.1l-0.8,0.7
			c-0.3,0.3-0.6,0.5-0.9,0.7c-1.3,1.1-2.7,2.1-4,3.2l-0.1,0.1c-2.9,2.3-6,4.7-8.9,7.2c-5.6,4.8-9.3,9.6-11.4,15.1
			c-0.4,0.9-0.7,1.8-0.9,2.7c0.9-8.7,2.3-17.2,4.3-25.5c0.2-1,0.4-1.3,0.9-1.5c0.3-0.1,0.6-0.3,0.8-0.6c1.4-1.6,3.3-1.9,5.1-1.9
			c6.1-0.1,10.9-3.2,14.9-6.1c9.6-7.3,16.3-25.7,16.3-26.3c0-0.3-0.2-0.6-0.4-0.8c-0.3-0.2-0.6-0.2-0.9-0.1c-2,0.9-4,1.7-6.1,2.5
			c-4.6,1.9-9.3,3.9-13.8,6c-4.6,2.2-8.2,5.1-10.8,8.6c2.5-7,5.3-13.8,8.5-20.4c0.4-0.7,2.1-1.5,4.6-1.5c0.8,0,1.6,0.1,2.3,0.2
			c5.8,1.4,11.6,0.5,17.9-2.6c6.5-3.3,11.9-8.6,16.5-16.3c0.1-0.1,0.3-0.6,0.4-0.9s0.1-0.7-0.1-0.9c-0.2-0.2-0.5-0.4-0.8-0.4l0,0
			l-2.3,0.1c-1.4,0.1-2.8,0.2-4.2,0.2l-1.5,0.1c-4.4,0.2-8.9,0.4-13.3,1.5c-5,1.2-8.7,3.1-11.6,5.8c3.4-5.6,7-10.9,10.7-15.9
			c0.1-0.1,0.6-0.3,1-0.4c0.2,0,0.9-0.2,1.9-0.2c1.3,0,2.4,0.3,3.4,0.8c6.1,3,12.9,3.2,20.2,0.6c6.1-2.1,11.2-5.9,15.7-11.7
			c0.1-0.2,0.3-0.4,0.4-0.6s0.1-0.5,0-0.8c-0.3-0.7-1.9-1.1-2.5-1.2c-1.6-0.3-3.3-0.6-5.1-0.8c-0.8-0.1-1.6-0.2-2.4-0.3h-0.1
			c-2.7-0.4-5.5-0.8-8.4-1c-5.2-0.3-9.8,0.8-13.6,3.1c2.5-2.7,5.1-5.3,7.7-7.7c0.8-0.8,1.8-1.5,3.1-2.5c0.1-0.1,0.4-0.2,0.7-0.2
			c9.1-0.4,16.6-4.4,23.1-12.3c3.5-4.3,6.2-9.7,8.3-16.6l0.1-0.2c0.2-0.7,0.3-1.1-0.2-1.6c-0.4-0.4-1.1-0.3-2.8,0.4
			c-1.6,0.6-3.2,1.2-4.9,1.8c-3.3,1.2-6.8,2.5-10.1,3.9c-5.5,2.4-10,6.1-13.1,10.8c-2.4,3.6-3.4,7.3-2.9,11.2c0,0,0,0.1,0,0.2
			c-5.8,5-11.3,10.6-17,17.3c3.8-5.8,6.3-12.4,7.5-20.2s1.3-14.7,0.2-21.2c-0.1-0.4-0.2-0.8-0.3-1.3l-0.2-0.8
			c-0.1-0.3-0.3-0.6-0.7-0.7c-0.3-0.1-0.7,0-0.9,0.2c-0.4,0.4-0.8,0.7-1.2,1.1L79,37.2c-1,0.9-1.9,1.7-2.7,2.6
			c-8,9.2-12.7,18.8-14.4,29.4c-0.7,4.8-0.4,8.9,0.9,12.5c0.5,1.2,1.2,2.3,1.9,3.3c0.3,0.5,0.6,1,0.9,1.5c0.2,0.4,0.2,0.5,0.2,0.4
			c-0.1,1.4-0.3,3-0.6,4.9c0,0,0,0.1-0.2,0.2l-0.1,0.1c-4.4,6.1-8.5,12.6-12.1,19.3c1.4-5,2.6-11.3,2.5-18.6
			c-0.1-8.8-2.1-16.7-6.2-24c-0.2-0.3-0.5-0.5-0.9-0.5c-0.3,0-0.6,0.1-0.8,0.4c-0.1,0.2-0.2,0.3-0.4,0.5c-0.3,0.3-0.5,0.7-0.7,1
			c-3.2,5.1-5,10.7-6.1,15c-2.1,7.9-3.1,14.5-3.1,20.8c0,5.3,1,9.4,3.1,12.9c0.6,1.1,1.5,2,2.3,3c0.4,0.5,0.9,1,1.3,1.6
			c0.3,0.4,0.4,0.7,0.4,1c0.1,1.3,0,2.6,0,3.8v0.9c0,0.1,0,0.3-0.1,0.4c-2.6,6.3-4.9,12.9-6.8,19.6c0.3-2.3,0.4-4.5,0.5-6.7
			c0.2-12.3-3.5-23.3-11.2-32.6L25,108c-0.2-0.2-0.5-0.4-0.8-0.4H24c-0.3,0.1-0.6,0.3-0.7,0.6c-0.1,0.4-0.3,0.8-0.4,1.1
			c-0.3,0.7-0.5,1.3-0.7,2c-1.6,5.2-2.5,10.8-2.6,18.3v0.1c-0.1,5.4-0.3,12.9,1.9,20c2.2,7,6.1,10.6,6.8,11.2l0.1,0.1
			c2,1.8,3.4,3.5,3.7,4.6c0.1,0.4,0.2,0.9,0.4,1.3c0.6,1.9,0.2,3.8-0.2,5.8c-0.2,1-0.4,2-0.5,3.1c-0.3,4.3-0.6,8.6-1,12.8v0.4
			c-0.1,1.1-0.2,2.1-0.3,3.2c-0.9-9.6-4-18.3-9.5-26c-3.3-4.7-7.3-8.7-11.8-12c-0.2-0.1-0.4-0.3-0.7-0.4c-0.1-0.1-0.3-0.2-0.5-0.3
			c-0.3-0.2-0.6-0.2-0.9,0c-0.3,0.1-0.5,0.4-0.5,0.8c-0.1,0.6-0.1,1.2-0.2,1.8c-0.2,1.2-0.3,2.4-0.3,3.6C6,172.2,8.7,184,14,194.6
			c1.5,3,3.4,5.5,5.8,7.6s4.9,3.3,7.8,3.7c0.1,0,0.2,0.1,0.2,0.1c0.2,0.3,0.3,0.6,0.5,0.9c0.6,1.1,1.2,2.2,1.5,3.4
			c0.2,1,0.2,2,0.2,3.1c0,0.4,0,0.8,0,1.2c0.3,9.7,0.6,13.1,2.2,21.7c-0.9-2.6-2.1-5.2-3.7-7.6c-6.2-10.1-14.1-16.9-24.1-20.9
			c-0.6-0.3-1.3-0.4-2-0.7H2.3c-0.3-0.1-0.6-0.2-1-0.3c-0.3-0.1-0.7,0-0.9,0.2c-0.3,0.2-0.4,0.5-0.3,0.9c0.1,0.7,0.1,1.4,0.2,2
			c0.1,1.4,0.2,2.8,0.5,4.1c3.2,12.5,8.6,22.5,16.4,30.4c3.3,3.4,6.8,5.4,10.7,6c1,0.2,2.2,0.2,4.2,0h0.6c0.1,0,0.2,0,0.2,0
			c0.2,0,0.2,0,0.3,0.2l2.7,3.7c0,0,0.1,0.2,0.1,0.3v0.1c2.8,9.6,6.3,18.8,10.4,27.5c-1.9-2.6-3.9-4.9-6.2-7.1
			C29.9,265.2,12,264.9,10,264.9H9.8H9.6c-0.5,0.2-0.8,0.7-0.6,1.2c0.1,0.5,0.3,0.9,0.4,1.5c0.3,1,0.6,2.1,1,3.1
			c2,4.9,5.2,9.7,10.1,15c3.4,3.6,7.2,7.3,12.1,9.6c5.4,2.5,10.3,3.2,15.1,1.9c0.8-0.2,1.8-0.5,2.6-1c0.6-0.4,0.7-0.4,1.3,0.1
			c0.7,0.5,1.4,0.9,2.1,1.3c0.4,0.2,0.8,0.5,1.1,0.7c0.1,0,0.2,0.3,0.2,0.3c4.4,7.1,9.2,13.7,14.3,19.7c-2.8-2-5.7-3.5-8.7-4.5
			c-9.3-3-19.1-2.6-28.8,1.1c-1.4,0.6-3,1.4-3.1,1.5c-0.2,0.1-0.4,0.4-0.4,0.7c0,0.3,0,0.5,0.2,0.7c0.3,0.4,0.6,0.8,0.9,1.2l0.1,0.1
			c0.7,0.9,1.4,1.9,2.2,2.8c3.7,4,8.4,6.7,12.8,9c6.1,3.2,12.3,4.9,18.5,5.1c0.3,0,0.6,0,0.9,0c5.7,0,10.2-1.9,13.6-5.7
			c0,0,0.2-0.1,0.3-0.1c1.3,0.1,2.6,0.3,3.5,0.4c0.1,0,0.3,0.1,0.4,0.2c5.7,5.1,11.8,9.5,18.2,13.3c-1-0.3-2-0.5-3-0.7
			c-6.8-1.3-13.7-0.5-21.3,2.5c-5.1,2-9.9,5-14.6,9.2c-0.4,0.3-0.4,0.9-0.1,1.3c1.7,2.1,3.8,3.3,5.7,4.2c4.6,2.1,9.8,3.5,15.9,4.2
			c0,0,2,0.2,4.7,0.2c2,0,3.8-0.1,5.5-0.3c1.6-0.2,3.2-0.4,4.7-0.8c7-1.7,11.8-5.2,14.5-10.7c0,0,0.3-0.2,0.5-0.2
			c1.3-0.3,2.4-0.5,3.5-0.7c0.3,0,0.6,0,1,0.2c4.9,1.9,10,3.4,15.3,4.6c0.1,0,0.2,0,0.2,0c0.4,0,0.7-0.2,0.9-0.5
			c0.5-0.9,1.1-1.8,1.8-2.7c0.2-0.3,0.3-0.6,0.2-0.9C135.2,352.7,134.9,352.5,134.6,352.4z"/>
	</g>
	<path class="st0" d="M246.9,223.3l40.2-39.2c1.4-1.3,1.9-3.3,1.3-5.1s-2.2-3.1-4-3.4l-55.5-8.1L204,117.3c-0.8-1.7-2.6-2.8-4.5-2.8
		s-3.6,1.1-4.5,2.8l-24.8,50.3l-55.5,8.1c-1.9,0.3-3.4,1.6-4,3.4c-0.6,1.8-0.1,3.8,1.3,5.1l40.2,39.2l-9.5,55.3
		c-0.3,1.9,0.4,3.8,2,4.9c1.5,1.1,3.6,1.3,5.3,0.4l49.7-26.1l49.7,26.1c0.7,0.4,1.5,0.6,2.3,0.6c1,0,2.1-0.3,2.9-1
		c1.5-1.1,2.3-3,2-4.9L246.9,223.3z"/>
</g>
</svg>
