<?xml version="1.0" encoding="utf-8"?>
<!-- Generator: Adobe Illustrator 22.0.0, SVG Export Plug-In . SVG Version: 6.00 Build 0)  -->
<svg version="1.1" id="Layer_1" xmlns="http://www.w3.org/2000/svg" xmlns:xlink="http://www.w3.org/1999/xlink" x="0px" y="0px"
	 viewBox="0 0 512 512" style="enable-background:new 0 0 512 512;" xml:space="preserve">
<style type="text/css">
	.st0{fill:#FFFFFF;}
</style>
<path class="st0" d="M256,0C114.9,0,0,114.9,0,256s114.9,256,256,256s256-114.9,256-256S397.1,0,256,0z M256,490.7
	C126.6,490.7,21.3,385.4,21.3,256S126.6,21.3,256,21.3S490.7,126.6,490.7,256S385.4,490.7,256,490.7z"/>
<g>
	<path class="st0" d="M326,383c-2.2,0-4.5-0.6-6.5-1.9l-176-114.8c-3.4-2.2-5.5-6-5.4-10.1c0-4.1,2.1-7.9,5.5-10.1l176-113.2
		c5.6-3.6,13-2,16.6,3.6c3.6,5.6,2,13-3.6,16.6L172.1,256.3l160.5,104.7c5.6,3.6,7.1,11.1,3.5,16.6C333.8,381.1,329.9,383,326,383z"
		/>
</g>
</svg>
