<?xml version="1.0" encoding="utf-8"?>
<!-- Generator: Adobe Illustrator 22.0.0, SVG Export Plug-In . SVG Version: 6.00 Build 0)  -->
<svg version="1.1" id="Capa_1" xmlns="http://www.w3.org/2000/svg" xmlns:xlink="http://www.w3.org/1999/xlink" x="0px" y="0px"
	 viewBox="0 0 55.9 55.9" style="enable-background:new 0 0 55.9 55.9;" xml:space="preserve">
<style type="text/css">
	.st0{fill:#961F1E;}
</style>
<path class="st0" d="M55.8,21.6c-0.1-0.4-0.4-0.6-0.8-0.7l-18.1-2.6L28.8,1.9c-0.2-0.3-0.5-0.6-0.9-0.6S27.2,1.5,27,1.9l-8,16.4
	L0.9,20.9c-0.4,0-0.7,0.3-0.8,0.7s0,0.8,0.3,1l13.1,12.8l-3.1,18c-0.1,0.4,0.1,0.8,0.4,1c0.2,0.1,0.4,0.2,0.6,0.2
	c0.2,0,0.3,0,0.5-0.1L28.1,46l16.2,8.5c0.3,0.2,0.8,0.2,1.1-0.1c0.3-0.2,0.5-0.6,0.4-1l-3.1-18l13.1-12.8
	C55.8,22.3,55.9,21.9,55.8,21.6z M40.7,34.3c-0.2,0.2-0.3,0.6-0.3,0.9l2.8,16.5l-14.8-7.8c-0.3-0.2-0.6-0.2-0.9,0l-14.9,7.8
	l2.8-16.5c0.1-0.3,0-0.6-0.3-0.9l-12-11.7l16.6-2.4c0.3,0,0.6-0.3,0.8-0.5l7.4-15l7.4,15c0.2,0.3,0.4,0.5,0.8,0.5l16.6,2.4
	L40.7,34.3z"/>
<path class="st0" d="M40.4,35.2l2.8,16.5l-14.8-7.8c-0.3-0.2-0.6-0.2-0.9,0l-14.9,7.8l2.8-16.5c0.1-0.3,0-0.6-0.3-0.9l-12-11.7
	l16.6-2.4c0.3,0,0.6-0.3,0.8-0.5l7.4-15l7.4,15c0.2,0.3,0.4,0.5,0.8,0.5l16.6,2.4l-12,11.7C40.5,34.5,40.4,34.9,40.4,35.2z"/>
</svg>
