<svg xmlns="http://www.w3.org/2000/svg" viewBox="0 0 60.89 57.65"><defs><style>.cls-1{fill:#145654;}.cls-2{fill:#961f1e;}</style></defs><title>clickstar</title><g id="Layer_2" data-name="Layer 2"><g id="Capa_1" data-name="Capa 1"><path class="cls-1" d="M56.32,20.26a1,1,0,0,0-.81-.68L37.42,17,29.33.56a1,1,0,0,0-1.79,0L19.45,17,1.36,19.58a1,1,0,0,0-.56,1.7L13.89,34l-3.09,18a1,1,0,0,0,.4,1,1,1,0,0,0,.59.19.93.93,0,0,0,.46-.12l16.18-8.5,16.18,8.5a1,1,0,0,0,1.45-1L43,34l13.1-12.76A1,1,0,0,0,56.32,20.26ZM41.2,33a1,1,0,0,0-.28.88L43.75,50.4,28.9,42.59a1,1,0,0,0-.93,0L13.11,50.4,16,33.86a1,1,0,0,0-.29-.88l-12-11.72,16.6-2.41A1,1,0,0,0,21,18.3l7.42-15,7.43,15a1,1,0,0,0,.75.55l16.61,2.41Z"/><path class="cls-1" d="M40.92,33.86,43.75,50.4,28.9,42.59a1,1,0,0,0-.93,0L13.11,50.4,16,33.86a1,1,0,0,0-.29-.88l-12-11.72,16.6-2.41A1,1,0,0,0,21,18.3l7.42-15,7.43,15a1,1,0,0,0,.75.55l16.61,2.41L41.2,33A1,1,0,0,0,40.92,33.86Z"/><path class="cls-2" d="M13.84,10.85a.5.5,0,0,1-.37-.17L7.11,3.59a.5.5,0,0,1,.74-.67L14.22,10a.5.5,0,0,1-.37.83Z"/><path class="cls-2" d="M42.4,13.72a.5.5,0,0,1-.35-.85l6.73-6.73a.5.5,0,0,1,.71.71l-6.73,6.73A.5.5,0,0,1,42.4,13.72Z"/><path class="cls-2" d="M28.44,57.65a.5.5,0,0,1-.5-.5V47.49a.5.5,0,0,1,1,0v9.67A.5.5,0,0,1,28.44,57.65Z"/><path class="cls-2" d="M60.39,41.12a.51.51,0,0,1-.18,0l-9.92-3.82a.5.5,0,0,1,.36-.93l9.92,3.82a.5.5,0,0,1-.18,1Z"/><path class="cls-2" d="M.5,41.88A.5.5,0,0,1,.22,41l7.24-4.83A.5.5,0,0,1,8,37L.78,41.8A.5.5,0,0,1,.5,41.88Z"/></g></g></svg>