<?xml version="1.0" encoding="utf-8"?>
<!-- Generator: Adobe Illustrator 21.1.0, SVG Export Plug-In . SVG Version: 6.00 Build 0)  -->
<svg version="1.1" id="Capa_1" xmlns="http://www.w3.org/2000/svg" xmlns:xlink="http://www.w3.org/1999/xlink" x="0px" y="0px"
	 viewBox="0 0 289.2 289.2" style="enable-background:new 0 0 289.2 289.2;" xml:space="preserve">
<style type="text/css">
	.st0{fill:#145654;}
</style>
<g id="_x30_3-Director_chair">
	<path class="st0" d="M25.4,152.7h34.5c2.8,0,5-2.2,5-5v-17.8c53.2-6.9,106.1-6.9,159.3,0v17.8c0,2.8,2.2,5,5,5h34.5
		c2.8,0,5-2.2,5-5V5c0-2.8-2.2-5-5-5h-34.5c-2.8,0-5,2.2-5,5v17.8c-53.2,6.9-106.1,6.9-159.3,0V5c0-2.8-2.2-5-5-5H25.4
		c-2.8,0-5,2.2-5,5v142.7C20.4,150.5,22.7,152.7,25.4,152.7z"/>
	<path class="st0" d="M14.8,172.5v36h24.7l73.6,43.5l-62.8,37.2h62.9l31.4-18.6l31.4,18.6h62.9L176,252l73.6-43.5h24.7v-36
		L14.8,172.5L14.8,172.5z M144.6,233.5l-42.2-24.9h84.4L144.6,233.5z"/>
</g>
</svg>
