<?xml version="1.0" encoding="utf-8"?>
<!-- Generator: Adobe Illustrator 21.1.0, SVG Export Plug-In . SVG Version: 6.00 Build 0)  -->
<svg version="1.1" id="Capa_1" xmlns="http://www.w3.org/2000/svg" xmlns:xlink="http://www.w3.org/1999/xlink" x="0px" y="0px"
	 viewBox="0 0 512 512" style="enable-background:new 0 0 512 512;" xml:space="preserve">
<style type="text/css">
	.st0{fill:#961F1E;}
</style>
<g>
	<g id="Layer_1_80_">
		<g>
			<path class="st0" d="M401.5,413.1H110.5c-12.9,0-23.3,10.4-23.3,23.3s10.4,23.3,23.3,23.3h290.9c12.9,0,23.3-10.4,23.3-23.3
				S414.3,413.1,401.5,413.1z"/>
			<path class="st0" d="M81.5,238.5v58.2c0,9.6,7.8,17.5,17.5,17.5c9.6,0,17.5-7.8,17.5-17.5v-58.2c0-9.6-7.8-17.5-17.5-17.5
				C89.3,221.1,81.5,228.9,81.5,238.5z"/>
			<path class="st0" d="M139.6,215.3v81.5c0,9.6,7.8,17.5,17.5,17.5c9.6,0,17.5-7.8,17.5-17.5v-81.5c0-9.6-7.8-17.5-17.5-17.5
				C147.5,197.8,139.6,205.6,139.6,215.3z"/>
			<path class="st0" d="M197.8,192v104.7c0,9.6,7.8,17.5,17.5,17.5c9.6,0,17.5-7.8,17.5-17.5V192c0-9.6-7.8-17.5-17.5-17.5
				C205.6,174.5,197.8,182.4,197.8,192z"/>
			<path class="st0" d="M488.7,52.4H23.3C10.4,52.4,0,62.8,0,75.6v290.9c0,12.9,10.4,23.3,23.3,23.3h444.2c-0.7-0.6-1.4-1.1-2.1-1.7
				l-32.2-32.2C414.6,366.4,393.6,372,372,372c-29.4,0-57.2-10.1-79.6-28.7H46.5V98.9h418.9v65.6c20.2,22.8,31.4,51.8,31.4,82.6
				c0,21.6-5.6,42.6-16.1,61.1l31.2,31.2V75.6C512,62.8,501.6,52.4,488.7,52.4z"/>
			<path class="st0" d="M461.6,322c-2.3-2.3-5.4-3.3-8.5-3l-4.9-4.9c16.3-18.6,25.4-42.1,25.4-67c0-27.1-10.6-52.6-29.7-71.8
				c-19.2-19.2-44.7-29.8-71.9-29.8c-27.1,0-52.6,10.6-71.8,29.8c-19.2,19.2-29.8,44.7-29.8,71.8s10.6,52.6,29.8,71.8
				c19.2,19.2,44.7,29.8,71.8,29.8c25,0,48.5-9,67-25.4l4.9,4.9c-0.3,3.1,0.6,6.1,3,8.5l35,35c2,2,4.7,3,7.4,3c2.6,0,5.3-1,7.4-3
				c4.1-4.1,4.1-10.7,0-14.7L461.6,322z M429.1,304.2c-15.3,15.3-35.5,23.7-57.1,23.7c-21.5,0-41.8-8.4-57.1-23.7
				c-15.2-15.2-23.7-35.5-23.7-57.1c0-21.6,8.4-41.8,23.7-57.1c15.3-15.3,35.6-23.7,57.1-23.7c21.6,0,41.9,8.4,57.1,23.7
				c15.2,15.3,23.6,35.5,23.6,57.1C452.8,268.7,444.3,288.9,429.1,304.2z"/>
		</g>
	</g>
</g>
</svg>
