<?xml version="1.0" encoding="utf-8"?>
<!-- Generator: Adobe Illustrator 21.1.0, SVG Export Plug-In . SVG Version: 6.00 Build 0)  -->
<svg version="1.1" id="Capa_1" xmlns="http://www.w3.org/2000/svg" xmlns:xlink="http://www.w3.org/1999/xlink" x="0px" y="0px"
	 viewBox="0 0 290.3 290.3" style="enable-background:new 0 0 290.3 290.3;" xml:space="preserve">
<style type="text/css">
	.st0{fill:#961F1E;}
</style>
<path id="_x34_9-HD_icon" class="st0" d="M278.7,33.6H11.5C5.2,33.6,0,38.8,0,45.1v200c0,6.4,5.2,11.5,11.5,11.5h267.2
	c6.4,0,11.5-5.2,11.5-11.5v-200C290.3,38.8,285.1,33.6,278.7,33.6z M104.1,190.1l10-35H76.8l-10,35H43.9l25.7-90h22.9l-10.6,37h37.3
	l10.6-37h22.9l-25.7,90H104.1L104.1,190.1z M244.3,145.1c-7.6,26.6-32.7,45-61.6,45h-37.8l17-59.5h22.9L173,171.9h16.3
	c14,0,27.1-10.8,31.6-26.6c4.6-15.9-2.9-26.9-17.4-26.9h-38.2l5.2-18.3h38.7C237.6,100.1,252,118.4,244.3,145.1z"/>
</svg>
