<?xml version="1.0"?>
<svg xmlns="http://www.w3.org/2000/svg" xmlns:xlink="http://www.w3.org/1999/xlink" version="1.1" id="Layer_1" x="0px" y="0px" viewBox="0 0 490.732 490.732" style="enable-background:new 0 0 490.732 490.732;" xml:space="preserve" width="512px" height="512px" class=""><g transform="matrix(1 0 0 -1 0 490.732)"><g>
	<g>
		<g>
			<path d="M490.699,241.131c-1.173-65.707-26.987-126.827-72.747-172.16c-45.76-45.44-108.16-70.4-172.8-68.907     C179.446,1.238,117.579,27.798,70.966,74.838c-46.827,47.467-72,109.547-70.933,174.827     c1.173,65.707,26.987,126.827,72.747,172.16c45.12,44.587,104.747,68.907,168.427,68.907c1.493,0,2.88,0,4.373,0     c65.707-1.173,127.573-27.733,174.187-74.773C466.699,368.491,491.766,306.411,490.699,241.131z M404.619,400.918     c-42.027,42.88-99.307,67.52-159.36,68.48c-58.773,1.387-115.627-21.333-157.333-62.827     c-41.92-41.28-65.493-97.173-66.56-157.227c-1.067-59.52,21.973-116.16,64.747-159.467c42.133-42.88,99.413-67.52,159.467-68.48     c1.387,0,2.667,0,4.053,0c58.027,0,112.32,22.187,153.387,62.827c41.707,41.28,65.28,97.173,66.347,157.333     C470.433,301.078,447.393,357.718,404.619,400.918z" data-original="#000000" class="active-path" data-old_color="#ffffff" fill="#ffffff"/>
			<path d="M245.366,288.064c5.867,0,10.667-4.8,10.667-10.667V106.731c0-5.867-4.8-10.667-10.667-10.667     c-5.867,0-10.667,4.8-10.667,10.667v170.667C234.699,283.371,239.499,288.064,245.366,288.064z" data-original="#000000" class="active-path" data-old_color="#ffffff" fill="#ffffff"/>
			<path d="M245.366,330.731h-0.427c-11.733,0.107-21.227,9.707-21.12,21.547c0.107,11.733,9.707,21.227,21.547,21.12h0.427     c11.733-0.107,21.227-9.707,21.12-21.547C266.806,340.118,257.099,330.624,245.366,330.731z" data-original="#000000" class="active-path" data-old_color="#ffffff" fill="#ffffff"/>
		</g>
	</g>
</g></g> </svg>
