<?xml version="1.0" encoding="utf-8"?>
<!-- Generator: Adobe Illustrator 21.1.0, SVG Export Plug-In . SVG Version: 6.00 Build 0)  -->
<svg version="1.1" id="Capa_1" xmlns="http://www.w3.org/2000/svg" xmlns:xlink="http://www.w3.org/1999/xlink" x="0px" y="0px"
	 viewBox="0 0 104 104" style="enable-background:new 0 0 104 104;" xml:space="preserve">
<style type="text/css">
	.st0{fill:#145654;}
</style>
<g>
	<g>
		<path class="st0" d="M9.3,77h85.3c2.2,0,4-1.8,4-4V23.5c0-2.2-1.8-4-4-4H9.3c-2.2,0-4,1.8-4,4V73C5.3,75.2,7.1,77,9.3,77z
			 M17.2,41.9v-6.3l18.9,13.6l10.6-7.1l13.8,7.6l25.5-6.1v8.1l-25,6l-14.4-5.2l-10.7,4.4L17.2,41.9z M9.3,23.5h85.3l0,49.5h-6.5
			V41.4L60.9,48l-14.4-7.9l-10.4,7L15,31.7V73H9.3V23.5z"/>
		<path class="st0" d="M103,79.4H1c-0.4,0-0.8,0.2-0.9,0.6c-0.2,0.4-0.2,0.8,0.1,1.2c0.4,0.7,1.1,1.8,17.2,2.6
			c9.1,0.5,21.2,0.7,34.1,0.7c11.6,0,49.5-0.2,52.2-3.1c0.3-0.3,0.4-0.6,0.4-1C104,79.8,103.5,79.4,103,79.4z"/>
	</g>
</g>
</svg>
