<?xml version="1.0" encoding="utf-8"?>
<!-- Generator: Adobe Illustrator 21.1.0, SVG Export Plug-In . SVG Version: 6.00 Build 0)  -->
<svg version="1.1" id="Layer_1" xmlns="http://www.w3.org/2000/svg" xmlns:xlink="http://www.w3.org/1999/xlink" x="0px" y="0px"
	 viewBox="0 0 600 600" style="enable-background:new 0 0 600 600;" xml:space="preserve">
<style type="text/css">
	.st0{fill:#B2B2B2;}
	.st1{fill:#DDDDDD;}
	.st2{fill:#145654;}
</style>
<g>
	<path class="st0" d="M72,589.5c-33.9,0-61.5-27.6-61.5-61.5V72c0-33.9,27.6-61.5,61.5-61.5h456c33.9,0,61.5,27.6,61.5,61.5v456
		c0,33.9-27.6,61.5-61.5,61.5H72z"/>
	<path class="st1" d="M528,21c28.1,0,51,22.9,51,51v456c0,28.1-22.9,51-51,51H72c-28.1,0-51-22.9-51-51V72c0-28.1,22.9-51,51-51H528
		 M528,0H72C32.2,0,0,32.2,0,72v456c0,39.8,32.2,72,72,72h456c39.8,0,72-32.2,72-72V72C600,32.2,567.8,0,528,0L528,0z"/>
</g>
<g>
	<g>
		<g>
			<path class="st2" d="M545.3,65.3H54.7C48.8,65.3,44,70.1,44,76v117.3c0,5.9,4.8,10.7,10.7,10.7h490.7c5.9,0,10.7-4.8,10.7-10.7
				V76C556,70.1,551.2,65.3,545.3,65.3z M534.7,182.7H65.3v-96h469.3L534.7,182.7L534.7,182.7z"/>
			<path class="st2" d="M545.3,225.3H54.7c-5.9,0-10.7,4.8-10.7,10.7v128c0,5.9,4.8,10.7,10.7,10.7h490.7c5.9,0,10.7-4.8,10.7-10.7
				V236C556,230.1,551.2,225.3,545.3,225.3z M534.7,353.3H65.3V246.7h469.3L534.7,353.3L534.7,353.3z"/>
			<path class="st2" d="M545.3,396H54.7c-5.9,0-10.7,4.8-10.7,10.7V524c0,5.9,4.8,10.7,10.7,10.7h490.7c5.9,0,10.7-4.8,10.7-10.7
				V406.7C556,400.8,551.2,396,545.3,396z M534.7,513.3H65.3v-96h469.3L534.7,513.3L534.7,513.3z"/>
		</g>
	</g>
</g>
</svg>
