<svg xmlns="http://www.w3.org/2000/svg" viewBox="0 0 309.41 67"><defs><style>.cls-1{fill:#333;}.cls-2{fill:#c7c7c7;}.cls-3{fill:#e7e7e7;}.cls-4{fill:#145654;}</style></defs><title>logo</title><g id="Layer_2" data-name="Layer 2"><g id="Layer_1-2" data-name="Layer 1"><path class="cls-1" d="M308,67a1.51,1.51,0,0,1-1.5-1.3,8.2,8.2,0,0,0-8.1-7.2H57A11.57,11.57,0,0,1,45.5,47a1.5,1.5,0,1,1,3,0A8.49,8.49,0,0,0,57,55.5H298.4a11.12,11.12,0,0,1,11,9.8,1.55,1.55,0,0,1-1.3,1.7Z"/><path class="cls-1" d="M28,16a11.94,11.94,0,0,0-5.8,1.5,6,6,0,0,0,11.6,0A11.94,11.94,0,0,0,28,16Z"/><path class="cls-1" d="M28,40a11.94,11.94,0,0,0,5.8-1.5,6,6,0,0,0-11.6,0A11.94,11.94,0,0,0,28,40Z"/><path class="cls-1" d="M40,28a11.94,11.94,0,0,0-1.5-5.8,6,6,0,0,0,0,11.6A11.94,11.94,0,0,0,40,28Z"/><path class="cls-1" d="M17.5,22.2a12,12,0,0,0,0,11.6,6,6,0,0,0,0-11.6Z"/><path class="cls-2" d="M28,0A28,28,0,1,0,56,28,28,28,0,0,0,28,0Zm0,10a6,6,0,1,1-6,6A6,6,0,0,1,28,10ZM16,34a6,6,0,1,1,6-6A6,6,0,0,1,16,34ZM28,46a6,6,0,1,1,6-6A6,6,0,0,1,28,46ZM40,34a6,6,0,1,1,6-6A6,6,0,0,1,40,34Z"/><path class="cls-3" d="M28,4A24,24,0,1,0,52,28,23.94,23.94,0,0,0,28,4Zm0,6a6,6,0,1,1-6,6A6,6,0,0,1,28,10ZM16,34a6,6,0,1,1,6-6A6,6,0,0,1,16,34ZM28,46a6,6,0,1,1,6-6A6,6,0,0,1,28,46ZM40,34a6,6,0,1,1,6-6A6,6,0,0,1,40,34Z"/><path class="cls-4" d="M72,48.2H65.3V19.8H72Z"/><path class="cls-4" d="M103.2,48.2H97.3L84.6,28.9V48.1H78V19.8h9.6l9,13.6V19.8h6.7Z"/><path class="cls-4" d="M127,19.8a3.17,3.17,0,0,1,2.3.9,2.87,2.87,0,0,1,1,2.2V45.3a2.81,2.81,0,0,1-1,2.1,2.86,2.86,0,0,1-2.3.8H107.8V19.8Zm-3.4,6.1h-9.2V42.2h9.2Z"/><path class="cls-4" d="M143.5,48.2h-6.7V19.8h6.7Z"/><path class="cls-4" d="M156.5,25.9v5.2h8.1v6h-8.1v5.1h14.8v6H150V19.8h21.3v6.1Z"/><path class="cls-4" d="M211.4,48.2,205,38.4h-4.8v9.8h-6.7V19.8h19.3a3.58,3.58,0,0,1,2.4.9,2.81,2.81,0,0,1,1,2.1V35.4a3.21,3.21,0,0,1-1,2.2,3.58,3.58,0,0,1-2.4.9l6.5,9.8h-7.9ZM200.1,32.4h9.3V25.8h-9.3Z"/><path class="cls-4" d="M228.8,25.9v5.2h8.1v6h-8.1v5.1h14.8v6H222.3V19.8h21.3v6.1Z"/><path class="cls-4" d="M255.2,25.9v5.2h8.1v6h-8.1v5.1H270v6H248.6V19.8H270v6.1Z"/><path class="cls-4" d="M281.3,42.1h12.5v6H274.6V19.8h6.8V42.1Z"/></g></g></svg>