<svg xmlns="http://www.w3.org/2000/svg" viewBox="0 0 309.5 67"><defs><style>.cls-1{fill:#333;}.cls-2{fill:#c7c7c7;}.cls-3{fill:#e7e7e7;}.cls-4{fill:#145654;}</style></defs><title>Logo</title><g id="Layer_2" data-name="Layer 2"><g id="Layer_1-2" data-name="Layer 1"><path class="cls-1" d="M308,67a1.5,1.5,0,0,1-1.49-1.33,8.13,8.13,0,0,0-8.07-7.17H57A11.51,11.51,0,0,1,45.5,47a1.5,1.5,0,0,1,3,0A8.51,8.51,0,0,0,57,55.5H298.44a11.13,11.13,0,0,1,11,9.83A1.5,1.5,0,0,1,308.17,67Z"/><path class="cls-1" d="M28,16a11.94,11.94,0,0,0-5.8,1.5,6,6,0,0,0,11.61,0A11.94,11.94,0,0,0,28,16Z"/><path class="cls-1" d="M28,40a11.94,11.94,0,0,0,5.8-1.5,6,6,0,0,0-11.61,0A11.94,11.94,0,0,0,28,40Z"/><path class="cls-1" d="M40,28a11.94,11.94,0,0,0-1.5-5.8,6,6,0,0,0,0,11.61A11.94,11.94,0,0,0,40,28Z"/><path class="cls-1" d="M17.5,22.2a12,12,0,0,0,0,11.61,6,6,0,0,0,0-11.61Z"/><path class="cls-2" d="M28,0A28,28,0,1,0,56,28,28,28,0,0,0,28,0Zm0,10a6,6,0,1,1-6,6A6,6,0,0,1,28,10ZM16,34a6,6,0,1,1,6-6A6,6,0,0,1,16,34ZM28,46a6,6,0,1,1,6-6A6,6,0,0,1,28,46ZM40,34a6,6,0,1,1,6-6A6,6,0,0,1,40,34Z"/><path class="cls-3" d="M28,4A24,24,0,1,0,52,28,24,24,0,0,0,28,4Zm0,6a6,6,0,1,1-6,6A6,6,0,0,1,28,10ZM16,34a6,6,0,1,1,6-6A6,6,0,0,1,16,34ZM28,46a6,6,0,1,1,6-6A6,6,0,0,1,28,46ZM40,34a6,6,0,1,1,6-6A6,6,0,0,1,40,34Z"/><path class="cls-4" d="M72,48.18H65.33V19.77H72Z"/><path class="cls-4" d="M103.23,48.18H97.38L84.64,28.94V48.18H78V19.77h9.56l9,13.65V19.77h6.69Z"/><path class="cls-4" d="M127,19.77a3.38,3.38,0,0,1,2.34.88,2.81,2.81,0,0,1,1,2.18V45.19a2.71,2.71,0,0,1-1,2.14,3.45,3.45,0,0,1-2.34.85H107.84V19.77Zm-3.38,6.11h-9.17V42.2h9.17Z"/><path class="cls-4" d="M143.46,48.18h-6.69V19.77h6.69Z"/><path class="cls-4" d="M156.46,25.88v5.2h8.13v6h-8.12V42.2h14.76v6H149.9V19.77h21.32v6.11Z"/><path class="cls-4" d="M211.45,48.18,205,38.43h-4.81v9.75h-6.7V19.77h19.31a3.46,3.46,0,0,1,2.4.88,2.74,2.74,0,0,1,1,2.11V35.37a2.81,2.81,0,0,1-1,2.18,3.46,3.46,0,0,1-2.4.88l6.5,9.75ZM200.14,32.38h9.29V25.82h-9.29Z"/><path class="cls-4" d="M228.8,25.88v5.2h8.13v6H228.8V42.2h14.76v6H222.24V19.77h21.32v6.11Z"/><path class="cls-4" d="M255.19,25.88v5.2h8.13v6h-8.12V42.2H270v6H248.63V19.77H270v6.11Z"/><path class="cls-4" d="M281.26,42.13h12.48v6H274.5V19.77h6.76Z"/></g></g></svg>