<?xml version="1.0" encoding="utf-8"?>
<!-- Generator: Adobe Illustrator 21.1.0, SVG Export Plug-In . SVG Version: 6.00 Build 0)  -->
<svg version="1.1" id="Layer_1" xmlns="http://www.w3.org/2000/svg" xmlns:xlink="http://www.w3.org/1999/xlink" x="0px" y="0px"
	 viewBox="0 0 600 600" style="enable-background:new 0 0 600 600;" xml:space="preserve">
<style type="text/css">
	.st0{fill:#E7E7E7;}
	.st1{fill:#145654;}
</style>
<path class="st0" d="M574,600H26c-14.4,0-26-11.6-26-26V26C0,11.6,11.6,0,26,0h548c14.4,0,26,11.6,26,26v548
	C600,588.4,588.4,600,574,600z"/>
<g>
	<g>
		<g>
			<path class="st1" d="M193.3,44H54.7C48.8,44,44,48.8,44,54.7v138.7c0,5.9,4.8,10.7,10.7,10.7h138.7c5.9,0,10.7-4.8,10.7-10.7
				V54.7C204,48.8,199.2,44,193.3,44z M182.7,182.7H65.3V65.3h117.3L182.7,182.7L182.7,182.7z"/>
			<path class="st1" d="M374.7,44H225.3c-5.9,0-10.7,4.8-10.7,10.7v138.7c0,5.9,4.8,10.7,10.7,10.7h149.3c5.9,0,10.7-4.8,10.7-10.7
				V54.7C385.3,48.8,380.6,44,374.7,44z M364,182.7H236V65.3h128V182.7z"/>
			<path class="st1" d="M545.3,44H406.7c-5.9,0-10.7,4.8-10.7,10.7v138.7c0,5.9,4.8,10.7,10.7,10.7h138.7c5.9,0,10.7-4.8,10.7-10.7
				V54.7C556,48.8,551.2,44,545.3,44z M534.7,182.7H417.3V65.3h117.3L534.7,182.7L534.7,182.7z"/>
			<path class="st1" d="M193.3,214.7H54.7c-5.9,0-10.7,4.8-10.7,10.7v149.3c0,5.9,4.8,10.7,10.7,10.7h138.7
				c5.9,0,10.7-4.8,10.7-10.7V225.3C204,219.4,199.2,214.7,193.3,214.7z M182.7,364H65.3V236h117.3L182.7,364L182.7,364z"/>
			<path class="st1" d="M374.7,214.7H225.3c-5.9,0-10.7,4.8-10.7,10.7v149.3c0,5.9,4.8,10.7,10.7,10.7h149.3
				c5.9,0,10.7-4.8,10.7-10.7V225.3C385.3,219.4,380.6,214.7,374.7,214.7z M364,364H236V236h128V364z"/>
			<path class="st1" d="M545.3,214.7H406.7c-5.9,0-10.7,4.8-10.7,10.7v149.3c0,5.9,4.8,10.7,10.7,10.7h138.7
				c5.9,0,10.7-4.8,10.7-10.7V225.3C556,219.4,551.2,214.7,545.3,214.7z M534.7,364H417.3V236h117.3L534.7,364L534.7,364z"/>
			<path class="st1" d="M193.3,396H54.7c-5.9,0-10.7,4.8-10.7,10.7v138.7c0,5.9,4.8,10.7,10.7,10.7h138.7c5.9,0,10.7-4.8,10.7-10.7
				V406.7C204,400.8,199.2,396,193.3,396z M182.7,534.7H65.3V417.3h117.3L182.7,534.7L182.7,534.7z"/>
			<path class="st1" d="M374.7,396H225.3c-5.9,0-10.7,4.8-10.7,10.7v138.7c0,5.9,4.8,10.7,10.7,10.7h149.3c5.9,0,10.7-4.8,10.7-10.7
				V406.7C385.3,400.8,380.6,396,374.7,396z M364,534.7H236V417.3h128V534.7z"/>
			<path class="st1" d="M545.3,396H406.7c-5.9,0-10.7,4.8-10.7,10.7v138.7c0,5.9,4.8,10.7,10.7,10.7h138.7c5.9,0,10.7-4.8,10.7-10.7
				V406.7C556,400.8,551.2,396,545.3,396z M534.7,534.7H417.3V417.3h117.3L534.7,534.7L534.7,534.7z"/>
		</g>
	</g>
</g>
</svg>
