<?xml version="1.0" encoding="utf-8"?>
<!-- Generator: Adobe Illustrator 22.0.0, SVG Export Plug-In . SVG Version: 6.00 Build 0)  -->
<svg version="1.1" id="Layer_1" xmlns="http://www.w3.org/2000/svg" xmlns:xlink="http://www.w3.org/1999/xlink" x="0px" y="0px"
	 viewBox="0 0 461.5 461.5" style="enable-background:new 0 0 461.5 461.5;" xml:space="preserve">
<style type="text/css">
	.st0{fill:#145654;}
	.st1{fill:#E7E7E7;}
	.st2{fill:#961F1E;}
</style>
<title>rating_selected</title>
<g id="Layer_2_1_">
	<g id="Layer_1-2">
		<path class="st0" d="M230.8,131.9c-16.7,0-33.2,4.2-47.8,12.4c6.8,26.4,33.7,42.3,60.1,35.5c17.4-4.5,31.1-18.1,35.5-35.5
			C264,136.1,247.5,131.9,230.8,131.9z"/>
		<path class="st0" d="M230.8,329.7c16.7,0,33.2-4.2,47.8-12.4c-6.8-26.4-33.7-42.3-60.1-35.5c-17.4,4.5-31.1,18.1-35.5,35.5
			C197.6,325.4,214,329.7,230.8,329.7z"/>
		<path class="st0" d="M329.7,230.8c0-16.7-4.2-33.2-12.4-47.8c-26.4,6.8-42.3,33.7-35.6,60.1c4.5,17.5,18.1,31.1,35.6,35.6
			C325.4,264,329.7,247.5,329.7,230.8z"/>
		<path class="st0" d="M144.2,182.9c-16.5,29.8-16.5,65.9,0,95.7c26.4-6.8,42.3-33.7,35.6-60.1C175.3,201.1,161.7,187.4,144.2,182.9
			L144.2,182.9z"/>
		<path class="st0" d="M230.8,0C103.3,0,0,103.3,0,230.8s103.3,230.8,230.8,230.8s230.8-103.3,230.8-230.8S358.2,0,230.8,0z
			 M230.8,82.4c27.3,0,49.5,22.1,49.5,49.4s-22.1,49.4-49.5,49.4s-49.4-22.1-49.4-49.4l0,0C181.3,104.6,203.5,82.4,230.8,82.4z
			 M131.9,280.2c-27.3,0-49.5-22.1-49.5-49.4s22.1-49.4,49.5-49.4s49.4,22.1,49.4,49.4l0,0C181.3,258.1,159.2,280.2,131.9,280.2
			C131.9,280.2,131.9,280.2,131.9,280.2L131.9,280.2z M230.8,379.1c-27.3,0-49.4-22.1-49.4-49.5c0-27.3,22.1-49.4,49.5-49.4
			c27.3,0,49.4,22.1,49.4,49.4C280.2,357,258.1,379.1,230.8,379.1C230.8,379.1,230.8,379.1,230.8,379.1L230.8,379.1z M329.7,280.2
			c-27.3,0-49.4-22.1-49.4-49.5s22.1-49.4,49.5-49.4c27.3,0,49.4,22.1,49.4,49.4S357,280.2,329.7,280.2L329.7,280.2L329.7,280.2z"/>
		<path class="st1" d="M230.8,33C121.5,33,33,121.5,33,230.8s88.6,197.8,197.8,197.8S428.6,340,428.6,230.8S340,33,230.8,33z
			 M230.8,82.4c27.3,0,49.5,22.1,49.5,49.4s-22.1,49.4-49.5,49.4s-49.4-22.1-49.4-49.4l0,0C181.3,104.6,203.4,82.4,230.8,82.4
			C230.8,82.4,230.8,82.4,230.8,82.4L230.8,82.4z M131.9,280.3c-27.3,0-49.5-22.1-49.5-49.4s22.1-49.4,49.5-49.4
			s49.4,22.1,49.4,49.4l0,0C181.3,258.1,159.2,280.2,131.9,280.3L131.9,280.3z M230.8,379.2c-27.3,0-49.4-22.1-49.4-49.5
			c0-27.3,22.1-49.4,49.5-49.4c27.3,0,49.4,22.1,49.4,49.4C280.2,357,258.1,379.1,230.8,379.2L230.8,379.2z M329.7,280.3
			c-27.3,0-49.4-22.1-49.4-49.5s22.1-49.4,49.5-49.4c27.3,0,49.4,22.1,49.4,49.4C379.1,258.1,357,280.2,329.7,280.3L329.7,280.3z"/>
		<path class="st2" d="M230.8,131.9c-16.7,0-33.2,4.2-47.8,12.4c6.8,26.4,33.7,42.3,60.1,35.5c17.4-4.5,31.1-18.1,35.5-35.5
			C264,136.1,247.5,131.9,230.8,131.9z"/>
		<path class="st2" d="M230.8,329.7c16.7,0,33.2-4.2,47.8-12.4c-6.8-26.4-33.7-42.3-60.1-35.5c-17.4,4.5-31.1,18.1-35.5,35.5
			C197.6,325.4,214,329.7,230.8,329.7z"/>
		<path class="st2" d="M329.7,230.8c0-16.7-4.2-33.2-12.4-47.8c-26.4,6.8-42.3,33.7-35.6,60.1c4.5,17.5,18.1,31.1,35.6,35.6
			C325.4,264,329.7,247.5,329.7,230.8z"/>
		<path class="st2" d="M144.2,182.9c-16.5,29.8-16.5,65.9,0,95.7c26.4-6.8,42.3-33.7,35.6-60.1C175.3,201.1,161.7,187.4,144.2,182.9
			L144.2,182.9z"/>
		<path class="st2" d="M230.8,0C103.3,0,0,103.3,0,230.8s103.3,230.8,230.8,230.8s230.8-103.3,230.8-230.8S358.2,0,230.8,0z
			 M230.8,82.4c27.3,0,49.5,22.1,49.5,49.4s-22.1,49.4-49.5,49.4s-49.4-22.1-49.4-49.4l0,0C181.3,104.6,203.5,82.4,230.8,82.4z
			 M131.9,280.2c-27.3,0-49.5-22.1-49.5-49.4s22.1-49.4,49.5-49.4s49.4,22.1,49.4,49.4l0,0C181.3,258.1,159.2,280.2,131.9,280.2
			C131.9,280.2,131.9,280.2,131.9,280.2L131.9,280.2z M230.8,379.1c-27.3,0-49.4-22.1-49.4-49.5c0-27.3,22.1-49.4,49.5-49.4
			c27.3,0,49.4,22.1,49.4,49.4C280.2,357,258.1,379.1,230.8,379.1C230.8,379.1,230.8,379.1,230.8,379.1L230.8,379.1z M329.7,280.2
			c-27.3,0-49.4-22.1-49.4-49.5s22.1-49.4,49.5-49.4c27.3,0,49.4,22.1,49.4,49.4S357,280.2,329.7,280.2L329.7,280.2L329.7,280.2z"/>
		<path class="st1" d="M230.8,33C121.5,33,33,121.5,33,230.8s88.6,197.8,197.8,197.8S428.6,340,428.6,230.8S340,33,230.8,33z
			 M230.8,82.4c27.3,0,49.5,22.1,49.5,49.4s-22.1,49.4-49.5,49.4s-49.4-22.1-49.4-49.4l0,0C181.3,104.6,203.4,82.4,230.8,82.4
			C230.8,82.4,230.8,82.4,230.8,82.4L230.8,82.4z M131.9,280.3c-27.3,0-49.5-22.1-49.5-49.4s22.1-49.4,49.5-49.4
			s49.4,22.1,49.4,49.4l0,0C181.3,258.1,159.2,280.2,131.9,280.3L131.9,280.3z M230.8,379.2c-27.3,0-49.4-22.1-49.4-49.5
			c0-27.3,22.1-49.4,49.5-49.4c27.3,0,49.4,22.1,49.4,49.4C280.2,357,258.1,379.1,230.8,379.2L230.8,379.2z M329.7,280.3
			c-27.3,0-49.4-22.1-49.4-49.5s22.1-49.4,49.5-49.4c27.3,0,49.4,22.1,49.4,49.4C379.1,258.1,357,280.2,329.7,280.3L329.7,280.3z"/>
	</g>
</g>
</svg>
