<svg xmlns="http://www.w3.org/2000/svg" viewBox="0 0 461.55 461.55"><defs><style>.cls-1{fill:#4d4d4d;}.cls-2{fill:#145654;}</style></defs><title>rating_selected</title><g id="Layer_2" data-name="Layer 2"><g id="Layer_1-2" data-name="Layer 1"><path class="cls-1" d="M230.78,131.87a98.43,98.43,0,0,0-47.84,12.35,49.39,49.39,0,0,0,95.67,0A98.43,98.43,0,0,0,230.78,131.87Z"/><path class="cls-1" d="M230.78,329.68a98.43,98.43,0,0,0,47.84-12.35,49.39,49.39,0,0,0-95.67,0A98.43,98.43,0,0,0,230.78,329.68Z"/><path class="cls-1" d="M329.68,230.78a98.37,98.37,0,0,0-12.35-47.83,49.38,49.38,0,0,0,0,95.66A98.37,98.37,0,0,0,329.68,230.78Z"/><path class="cls-1" d="M144.23,182.95a98.76,98.76,0,0,0,0,95.66,49.38,49.38,0,0,0,0-95.66Z"/><path class="cls-1" d="M230.78,0C103.32,0,0,103.32,0,230.78S103.32,461.55,230.78,461.55,461.55,358.23,461.55,230.78,358.23,0,230.78,0Zm0,82.42a49.45,49.45,0,1,1-49.45,49.45A49.45,49.45,0,0,1,230.78,82.42Zm-98.9,197.81a49.45,49.45,0,1,1,49.45-49.45A49.45,49.45,0,0,1,131.87,280.23Zm98.9,98.9a49.45,49.45,0,1,1,49.45-49.45A49.45,49.45,0,0,1,230.78,379.13Zm98.9-98.9a49.45,49.45,0,1,1,49.45-49.45A49.45,49.45,0,0,1,329.68,280.23Z"/><path class="cls-2" d="M230.78,33C121.53,33,33,121.53,33,230.78s88.56,197.81,197.81,197.81S428.59,340,428.59,230.78,340,33,230.78,33Zm0,49.45a49.45,49.45,0,1,1-49.45,49.45A49.45,49.45,0,0,1,230.78,82.42Zm-98.9,197.81a49.45,49.45,0,1,1,49.45-49.45A49.45,49.45,0,0,1,131.87,280.23Zm98.9,98.9a49.45,49.45,0,1,1,49.45-49.45A49.45,49.45,0,0,1,230.78,379.13Zm98.9-98.9a49.45,49.45,0,1,1,49.45-49.45A49.45,49.45,0,0,1,329.68,280.23Z"/></g></g></svg>