<?xml version="1.0" encoding="utf-8"?>
<!-- Generator: Adobe Illustrator 21.1.0, SVG Export Plug-In . SVG Version: 6.00 Build 0)  -->
<svg version="1.1" id="Capa_1" xmlns="http://www.w3.org/2000/svg" xmlns:xlink="http://www.w3.org/1999/xlink" x="0px" y="0px"
	 viewBox="0 0 486.4 486.4" style="enable-background:new 0 0 486.4 486.4;" xml:space="preserve">
<style type="text/css">
	.st0{fill:#145654;}
</style>
<g>
	<g>
		<g>
			<g>
				<path class="st0" d="M243.2,0C108.9,0,0,108.9,0,243.2s108.9,243.2,243.2,243.2s243.2-108.9,243.2-243.2
					C486.4,108.9,377.5,0,243.2,0z M392.6,297.6c-1.6,20.2-17,46.1-38.5,49.8c-68.9,5.4-150.4,4.7-221.8,0
					c-22.3-2.8-36.9-29.6-38.5-49.8c-3.5-42.5-3.5-66.7,0-109.2c1.6-20.2,16.6-46.9,38.5-49.3c70.5-5.9,152.5-4.7,221.8,0
					c24.7,0.9,36.9,26.4,38.5,46.7C396,228.3,396,255.1,392.6,297.6z"/>
				<polygon class="st0" points="212.8,304 304,243.2 212.8,182.4 				"/>
			</g>
		</g>
	</g>
</g>
</svg>
